<svg width="26" height="17" viewBox="0 0 26 17" fill="none" xmlns="http://www.w3.org/2000/svg">
<g clip-path="url(#clip0_389_167255)">
<path d="M5.94594 15.0045L8.9739 1.60692C9.17408 0.727016 10.2839 0.0197953 11.166 0.00219727H5.29041C4.40281 0.00219727 3.26554 0.721515 3.06316 1.60912L0.0340959 15.0045C0.0170423 15.0835 0.00564828 15.1637 0 15.2443V15.4929C0.0593934 16.133 0.549938 16.5993 1.25056 16.6103H7.1613C6.2935 16.5971 5.74356 15.8822 5.94594 15.0045Z" fill="#ED1C24"/>
<path d="M13.0952 15.0045L16.1232 1.60692C16.3223 0.736914 17.4178 0.0307916 18.2977 0.00439453H15.7525H11.1661C10.2861 0.0219926 9.17417 0.732513 8.974 1.60912L5.94603 15.0045C5.74586 15.8844 6.2892 16.5971 7.1614 16.6103H14.3106C13.4428 16.5971 12.8929 15.8822 13.0952 15.0045Z" fill="#0072BC"/>
<path d="M24.7164 0.00537109H18.314H18.2975C17.4176 0.0317682 16.3177 0.737889 16.1231 1.60789L13.0951 15.0044C12.896 15.8843 13.4383 16.597 14.3116 16.6102H21.0384C21.8974 16.5673 22.7333 15.87 22.9291 15.0099L25.9571 1.61669C26.1605 0.72579 25.604 0.00537109 24.7164 0.00537109Z" fill="#009DA5"/>
<path d="M11.2892 9.76465H11.3992C11.4394 9.76969 11.4802 9.76265 11.5165 9.74444C11.5527 9.72623 11.5827 9.69766 11.6026 9.66236L11.8919 9.22901H12.6618L12.5012 9.51388H13.4284L13.3108 9.95383H12.2109C12.1653 10.0385 12.097 10.1087 12.0136 10.1565C11.9302 10.2044 11.8351 10.2279 11.739 10.2244H11.1649L11.2892 9.76905V9.76465ZM11.1627 10.3927H13.1953L13.0655 10.8667H12.2483L12.1229 11.3188H12.9192L12.7894 11.7928H11.9942L11.8094 12.4671C11.7632 12.577 11.8237 12.6309 11.9887 12.6199H12.6365L12.5166 13.0599H11.2716C11.0362 13.0599 10.9548 12.9246 11.0296 12.654L11.265 11.7928H10.7568L10.8866 11.3188H11.3948L11.5191 10.8623H11.0329L11.1627 10.3927ZM14.4062 9.23121L14.3743 9.50728C14.3743 9.50728 14.7582 9.22021 15.1058 9.22021H16.3926L15.901 11.0009C15.8599 11.2048 15.685 11.3067 15.3763 11.3067H13.9179L13.5758 12.5572C13.556 12.6243 13.5846 12.6584 13.6583 12.6584H13.9443L13.8398 13.0467H13.1128C12.8334 13.0467 12.7168 12.9624 12.763 12.7937L13.7276 9.23121H14.4062ZM15.4962 9.73386H14.3479L14.2127 10.2101C14.366 10.1155 14.5428 10.066 14.723 10.0671C15.042 10.0671 15.406 10.0671 15.406 10.0671L15.4962 9.73386ZM15.0805 10.8491C15.1651 10.8612 15.2124 10.8271 15.2179 10.7479L15.2883 10.495H14.139L14.0422 10.8491H15.0805ZM14.3039 11.4244H14.9639L14.9518 11.7114H15.1288C15.2179 11.7114 15.2619 11.6828 15.2619 11.6267L15.3136 11.4409H15.8636L15.7899 11.7114C15.7283 11.9369 15.5633 12.0546 15.2949 12.0667H14.9419V12.5572C14.9353 12.6353 15.0068 12.676 15.153 12.676H15.483L15.373 13.0643H14.5767C14.3567 13.0742 14.2467 12.9686 14.2467 12.7431L14.3039 11.4244Z" fill="white"/>
<path d="M17.1218 9.78349L17.2758 9.24235H18.0534L18.0204 9.44143C18.0204 9.44143 18.4175 9.24235 18.7035 9.24235H19.6648L19.5119 9.78349H19.3601L18.6353 12.3363H18.787L18.643 12.8433H18.4912L18.4285 13.0633H17.6762L17.7389 12.8433H16.2529L16.3981 12.3363H16.5466L17.2725 9.78349H17.1218ZM17.961 9.78349L17.7631 10.4742C17.9665 10.397 18.1773 10.3406 18.3922 10.3059C18.4571 10.0651 18.5407 9.78129 18.5407 9.78129L17.961 9.78349ZM17.6718 10.7987L17.4727 11.5224C17.6723 11.4233 17.886 11.3554 18.1062 11.3211C18.1799 11.0417 18.2547 10.7987 18.2547 10.7987H17.6718ZM17.817 12.3385L17.9654 11.8139H17.3858L17.2362 12.3385H17.817ZM19.6977 9.20605H20.4281L20.4589 9.47553C20.4589 9.54482 20.4952 9.57671 20.582 9.57671H20.7107L20.5799 10.0343H20.042C19.8363 10.0442 19.7318 9.96607 19.7219 9.79669L19.6977 9.20605ZM19.4833 10.186H21.8502L21.7116 10.6766H20.9582L20.8284 11.133H21.5818L21.4422 11.6258H20.6029L20.4138 11.9128H20.824L20.9186 12.487C20.9296 12.5442 20.9813 12.5728 21.0671 12.5728H21.1947L21.0605 13.0457H20.6095C20.3764 13.0567 20.2554 12.9786 20.2455 12.8093L20.1355 12.2846L19.7615 12.8433C19.7242 12.9171 19.6652 12.9777 19.5925 13.017C19.5197 13.0563 19.4367 13.0725 19.3546 13.0633H18.665L18.7991 12.5893H19.0191C19.0637 12.5887 19.1076 12.5776 19.1471 12.557C19.1866 12.5364 19.2208 12.5067 19.2468 12.4705L19.8319 11.6258H19.0741L19.2138 11.1363H20.0321L20.1619 10.6799H19.3436L19.4833 10.186Z" fill="white"/>
<path d="M6.2705 6.85329C6.20019 7.25967 5.97805 7.62415 5.64907 7.87288C5.32791 8.10825 4.91435 8.2263 4.4084 8.22704C3.93326 8.22704 3.58423 8.10568 3.36132 7.86298C3.20218 7.68091 3.1191 7.44465 3.12925 7.20305C3.13027 7.08395 3.14354 6.96527 3.16884 6.84889L3.70778 4.24878H4.5217L3.99045 6.81919C3.9751 6.88367 3.96771 6.94979 3.96845 7.01607C3.96272 7.13227 3.9973 7.24689 4.06634 7.34054C4.12459 7.40651 4.19757 7.45782 4.27936 7.49031C4.36115 7.5228 4.44945 7.53554 4.53709 7.52751C4.75769 7.53703 4.97506 7.47193 5.15412 7.34274C5.31931 7.21277 5.43057 7.02628 5.46649 6.81919L5.99993 4.25648H6.80944L6.2705 6.85659" fill="white"/>
<path d="M7.02054 5.82939H7.59578L7.52978 6.16485L7.61228 6.06916C7.69763 5.97371 7.80248 5.8977 7.91975 5.84627C8.03702 5.79485 8.16397 5.76921 8.292 5.77109C8.53398 5.77109 8.70885 5.84149 8.81884 5.98227C8.92883 6.12306 8.95523 6.31993 8.90463 6.57071L8.58787 8.15123H7.99723L8.2832 6.72139C8.31615 6.61219 8.30753 6.49465 8.259 6.39143C8.22984 6.35234 8.19091 6.32161 8.14613 6.3023C8.10134 6.283 8.05227 6.2758 8.00383 6.28144C7.86239 6.27759 7.72491 6.32841 7.61998 6.42332C7.5099 6.52863 7.43696 6.66679 7.4121 6.81708L7.14813 8.15013H6.5564L7.02054 5.82829" fill="white"/>
<path d="M13.6153 5.82937H14.1905L14.1256 6.16484L14.207 6.06915C14.2924 5.97381 14.3973 5.89787 14.5146 5.84646C14.6318 5.79505 14.7587 5.76934 14.8867 5.77108C15.1287 5.77108 15.3039 5.84147 15.4125 5.98226C15.5225 6.12414 15.551 6.31992 15.4983 6.57069L15.1826 8.15122H14.5909L14.8768 6.72138C14.9107 6.61237 14.9024 6.49464 14.8537 6.39141C14.8246 6.35258 14.7858 6.32202 14.7413 6.30273C14.6967 6.28344 14.6479 6.2761 14.5997 6.28142C14.4578 6.27729 14.3199 6.32813 14.2147 6.42331C14.1042 6.52812 14.0315 6.66658 14.0079 6.81706L13.7429 8.15012H13.1511L13.6153 5.82827" fill="white"/>
<path d="M9.68989 5.83054H10.3278L9.82738 8.15019H9.19165L9.68989 5.83054ZM9.89007 4.98584H10.5335L10.4136 5.54898H9.77018L9.89007 4.98584Z" fill="white"/>
<path d="M10.892 7.97422C10.8071 7.88983 10.7408 7.78858 10.6974 7.677C10.654 7.56541 10.6345 7.44598 10.6401 7.32639C10.6401 7.27384 10.643 7.22133 10.6489 7.16911C10.6555 7.10972 10.6632 7.05252 10.6742 6.99973C10.7311 6.65535 10.9014 6.33986 11.1581 6.10333C11.4041 5.88339 11.7247 5.7654 12.0545 5.77337C12.1783 5.76661 12.3022 5.78442 12.419 5.82576C12.5359 5.8671 12.6434 5.93116 12.7354 6.01424C12.8202 6.09999 12.8862 6.20247 12.9292 6.31514C12.9722 6.42782 12.9912 6.54822 12.985 6.66867C12.985 6.71596 12.985 6.77096 12.9751 6.82925C12.9652 6.88754 12.9586 6.94694 12.9487 7.00303C12.8912 7.34222 12.7211 7.65216 12.4659 7.88293C12.2203 8.10142 11.9014 8.21925 11.5728 8.21289C11.3236 8.22664 11.079 8.14169 10.892 7.97642V7.97422ZM12.1073 7.51667C12.2357 7.35828 12.3193 7.16838 12.3493 6.96674C12.3559 6.92824 12.3625 6.88754 12.3669 6.84795C12.369 6.81131 12.369 6.77459 12.3669 6.73796C12.3737 6.61796 12.3344 6.49991 12.2569 6.408C12.2166 6.36727 12.1681 6.33561 12.1147 6.31512C12.0612 6.29464 12.0039 6.28581 11.9468 6.28921C11.8652 6.2868 11.7842 6.30229 11.7093 6.33459C11.6344 6.3669 11.5676 6.41523 11.5134 6.47619C11.383 6.63832 11.2983 6.83237 11.2681 7.03823C11.2615 7.07672 11.256 7.11522 11.2505 7.14821C11.2478 7.18482 11.2478 7.22159 11.2505 7.2582C11.2426 7.37835 11.2821 7.49682 11.3605 7.58816C11.4011 7.62824 11.4498 7.65925 11.5032 7.67916C11.5567 7.69906 11.6138 7.70741 11.6707 7.70365C11.7521 7.70641 11.8331 7.69142 11.9082 7.6597C11.9832 7.62798 12.0504 7.5803 12.1051 7.51997" fill="white"/>
<path d="M16.4599 4.39062H18.1317C18.4528 4.39062 18.7014 4.46322 18.8719 4.6106C18.9589 4.6884 19.0271 4.78498 19.0713 4.89302C19.1155 5.00106 19.1346 5.11774 19.1271 5.23423V5.24193C19.1271 5.29362 19.1271 5.35192 19.1183 5.41461C19.1095 5.4773 19.0996 5.54 19.0864 5.60489C19.023 5.94378 18.8428 6.24971 18.5771 6.46939C18.3137 6.68835 17.9803 6.80544 17.6378 6.79936H16.7425L16.4654 8.15881H15.6899L16.4599 4.39832V4.39062ZM16.8778 6.14603H17.6224C17.7862 6.15514 17.9481 6.10777 18.0811 6.01184C18.2019 5.90414 18.2819 5.75809 18.3077 5.59829C18.3143 5.5631 18.3175 5.5323 18.323 5.5037C18.3285 5.4751 18.3285 5.44981 18.3285 5.42341C18.3329 5.36676 18.322 5.30998 18.2971 5.25893C18.2722 5.20788 18.234 5.16442 18.1867 5.13304C18.0476 5.06285 17.8922 5.03168 17.7368 5.04285H17.1055L16.8778 6.14603Z" fill="white"/>
<path d="M22.5992 8.59994C22.4462 8.95268 22.2383 9.27898 21.9833 9.56673C21.8541 9.72034 21.6897 9.84054 21.5042 9.91712C21.3187 9.99371 21.1174 10.0244 20.9175 10.0067L20.9747 9.60853C21.5246 9.43805 21.8249 8.67253 21.9943 8.33377L21.7919 5.83485L22.2186 5.82935H22.5717L22.6102 7.39667L23.2811 5.82935H23.9608L22.5948 8.59884" fill="white"/>
<path d="M20.702 6.01635L20.4325 6.20113C20.1499 5.98115 19.8925 5.84477 19.3953 6.07464C18.7189 6.38921 18.1525 8.79684 20.0168 8.00383L20.1268 8.12921L20.8593 8.14791L21.341 5.96025L20.702 6.01635ZM20.2851 7.21191C20.1675 7.55948 19.9035 7.78935 19.6978 7.72336C19.4921 7.65737 19.4184 7.3252 19.5372 6.97654C19.656 6.62788 19.92 6.3991 20.1246 6.4651C20.3291 6.53109 20.405 6.86325 20.2851 7.21191Z" fill="white"/>
</g>
<defs>
<clipPath id="clip0_389_167255">
<rect width="26" height="16.6092" fill="white"/>
</clipPath>
</defs>
</svg>
