<svg width="32" height="32" viewBox="0 0 32 32" fill="none" xmlns="http://www.w3.org/2000/svg">
<path d="M15.8164 23C12.0517 23 9 19.8661 9 16C9 12.1339 12.0517 9 15.8164 9C19.5811 9 22.6328 12.1339 22.6328 16C22.6328 19.8661 19.5811 23 15.8164 23ZM15.8164 21.6C17.2626 21.6 18.6497 21.01 19.6723 19.9598C20.695 18.9096 21.2695 17.4852 21.2695 16C21.2695 14.5148 20.695 13.0904 19.6723 12.0402C18.6497 10.99 17.2626 10.4 15.8164 10.4C14.3701 10.4 12.9831 10.99 11.9605 12.0402C10.9378 13.0904 10.3633 14.5148 10.3633 16C10.3633 17.4852 10.9378 18.9096 11.9605 19.9598C12.9831 21.01 14.3701 21.6 15.8164 21.6ZM15.1348 18.1H16.498V19.5H15.1348V18.1ZM16.498 16.9485V17.4H15.1348V16.35C15.1348 16.1643 15.2066 15.9863 15.3344 15.855C15.4622 15.7237 15.6356 15.65 15.8164 15.65C16.01 15.65 16.1997 15.5935 16.3633 15.4871C16.5269 15.3808 16.6577 15.2289 16.7405 15.0491C16.8234 14.8694 16.8548 14.6692 16.8311 14.4718C16.8075 14.2744 16.7298 14.088 16.607 13.9342C16.4842 13.7805 16.3214 13.6657 16.1376 13.6032C15.9538 13.5407 15.7564 13.5331 15.5686 13.5813C15.3807 13.6295 15.21 13.7315 15.0764 13.8754C14.9427 14.0193 14.8517 14.1992 14.8137 14.3942L13.4763 14.1191C13.5592 13.6936 13.7507 13.2983 14.0311 12.9736C14.3116 12.649 14.6709 12.4066 15.0724 12.2713C15.474 12.136 15.9033 12.1127 16.3165 12.2036C16.7297 12.2946 17.112 12.4966 17.4243 12.789C17.7365 13.0814 17.9676 13.4537 18.0938 13.8678C18.2201 14.282 18.2369 14.7232 18.1427 15.1462C18.0485 15.5693 17.8466 15.959 17.5577 16.2757C17.2687 16.5924 16.903 16.8245 16.498 16.9485Z" fill="#937206"/>
</svg>
