<svg width="79" height="58" viewBox="0 0 79 58" fill="none" xmlns="http://www.w3.org/2000/svg">
<path fill-rule="evenodd" clip-rule="evenodd" d="M71.6471 1.70588H6.82353C3.99713 1.70588 1.70588 3.99713 1.70588 6.82353V51.1765C1.70588 54.0029 3.99713 56.2941 6.82353 56.2941H71.6471C74.4734 56.2941 76.7647 54.0029 76.7647 51.1765V6.82353C76.7647 3.99713 74.4735 1.70588 71.6471 1.70588ZM6.82353 0C3.055 0 0 3.055 0 6.82353V51.1765C0 54.945 3.055 58 6.82353 58H71.6471C75.4156 58 78.4706 54.945 78.4706 51.1765V6.82353C78.4706 3.055 75.4156 0 71.6471 0H6.82353Z" fill="#23211E"/>
<path fill-rule="evenodd" clip-rule="evenodd" d="M53.2734 34.5075L10.0786 34.5075V32.8016L53.2734 32.8016V34.5075Z" fill="#A3A3A3"/>
<path fill-rule="evenodd" clip-rule="evenodd" d="M53.2734 42.2789L10.0786 42.2789V40.573L53.2734 40.573V42.2789Z" fill="#A3A3A3"/>
<path fill-rule="evenodd" clip-rule="evenodd" d="M71.0057 20.324H54.9798V25.5049H71.0057V20.324ZM53.2739 18.6182V27.2108H72.7116V18.6182H53.2739Z" fill="#E35046"/>
</svg>
