<svg width="15" height="14" viewBox="0 0 15 14" fill="none" xmlns="http://www.w3.org/2000/svg">
<path d="M5.94444 0V1.55556H2.05556V12.4444H12.9444V8.55556H14.5V13.2222C14.5 13.4285 14.4181 13.6263 14.2722 13.7722C14.1263 13.9181 13.9285 14 13.7222 14H1.27778C1.0715 14 0.873667 13.9181 0.727806 13.7722C0.581944 13.6263 0.5 13.4285 0.5 13.2222V0.777778C0.5 0.571498 0.581944 0.373667 0.727806 0.227806C0.873667 0.0819442 1.0715 0 1.27778 0H5.94444ZM11.8447 1.55556H8.27778V0H14.5V6.22222H12.9444V2.65533L7.5 8.09978L6.40022 7L11.8447 1.55556Z" fill="white"/>
</svg>
