<svg width="48" height="48" viewBox="0 0 48 48" fill="none" xmlns="http://www.w3.org/2000/svg">
<path fill-rule="evenodd" clip-rule="evenodd" d="M31.839 19.7059C32.509 20.2249 32.92 20.9959 32.99 21.8349L33 22.0359V30.1449C33 32.2349 31.349 33.9349 29.28 34.0449H27.29C26.339 34.0259 25.57 33.2859 25.5 32.3559L25.49 32.2149V29.3559C25.49 29.0449 25.259 28.7859 24.95 28.7349L24.86 28.7249H22.189C21.87 28.7349 21.61 28.9649 21.57 29.2649L21.56 29.3559V32.2059C21.56 32.2649 21.549 32.3349 21.54 32.3849L21.53 32.4059L21.519 32.4749C21.4 33.3259 20.7 33.9749 19.83 34.0359L19.7 34.0449H17.91C15.82 34.0449 14.11 32.4059 14 30.3449V22.0359C14.009 21.1849 14.38 20.3949 15 19.8449L21.23 14.8349C22.5 13.8259 24.28 13.7859 25.589 14.7149L25.75 14.8349L31.839 19.7059ZM31.599 30.3049L31.61 30.1449V22.0449C31.599 21.6159 31.42 21.2149 31.11 20.9159L30.98 20.8049L24.88 15.9249C24.12 15.3149 23.04 15.2859 22.24 15.8149L22.089 15.9249L16.009 20.8259C15.66 21.0849 15.45 21.4749 15.4 21.8849L15.389 22.0449V30.1449C15.389 31.4749 16.429 32.5649 17.75 32.6449H19.7C19.92 32.6449 20.11 32.4959 20.139 32.2859L20.16 32.1059L20.17 32.0549V29.3559C20.17 28.2859 20.99 27.4159 22.04 27.3349H24.86C25.929 27.3349 26.799 28.1559 26.88 29.2059V32.2149C26.88 32.4249 27.03 32.6059 27.23 32.6449H29.089C30.429 32.6449 31.519 31.6159 31.599 30.3049Z" fill="#E3AF4C"/>
</svg>
