<svg width="22" height="22" viewBox="0 0 22 22" fill="none" xmlns="http://www.w3.org/2000/svg">
<g clip-path="url(#clip0_389_167256)">
<path fill-rule="evenodd" clip-rule="evenodd" d="M0 0H22V22H0V0Z" fill="#2F6EB7"/>
<path fill-rule="evenodd" clip-rule="evenodd" d="M7.9707 18.5192V10.636L22.0007 10.6494V12.8262L20.3788 14.5593L22.0007 16.3083V18.5315H19.412L18.0358 17.0135L16.6693 18.5376L7.9707 18.5192Z" fill="white"/>
<path fill-rule="evenodd" clip-rule="evenodd" d="M8.90527 17.6549V11.5037H14.1216V12.9202H10.5944V13.882H14.0373V15.2753H10.5944V16.2201H14.1216V17.6549H8.90527Z" fill="#2F6EB7"/>
<path fill-rule="evenodd" clip-rule="evenodd" d="M14.0964 17.6549L16.9832 14.575L14.0964 11.5037H16.3306L18.0942 13.4531L19.8627 11.5037H22.0003V11.5525L19.1758 14.575L22.0003 17.5669V17.6549H19.8407L18.0465 15.686L16.2695 17.6549H14.0964Z" fill="#2F6EB7"/>
<path fill-rule="evenodd" clip-rule="evenodd" d="M8.62443 3.63892H12.0063L13.1943 6.33636V3.63892H17.3694L18.0893 5.66047L18.8117 3.63892H22.0004V11.5222H5.15088L8.62443 3.63892Z" fill="white"/>
<path fill-rule="evenodd" clip-rule="evenodd" d="M9.26584 4.49561L6.53662 10.6409H8.40784L8.92362 9.41016H11.714L12.2236 10.6409H14.1413L11.4231 4.49561H9.26584ZM9.50051 8.03272L10.3194 6.07716L11.1371 8.03272H9.50051Z" fill="#2F6EB7"/>
<path fill-rule="evenodd" clip-rule="evenodd" d="M14.1179 10.6407V4.49414L16.7494 4.50392L18.1036 8.28178L19.4664 4.49414H21.9989V10.6407L20.3697 10.6553V6.43257L18.8309 10.6407H17.3434L15.7728 6.41913V10.6407H14.1179Z" fill="#2F6EB7"/>
</g>
<defs>
<clipPath id="clip0_389_167256">
<rect width="22" height="22" fill="white"/>
</clipPath>
</defs>
</svg>
