<svg width="61" height="63" viewBox="0 0 61 63" fill="none" xmlns="http://www.w3.org/2000/svg">
<rect width="60.3672" height="63" rx="15" fill="#F7F5F1"/>
<path d="M14.2376 40.0763L13.4995 40.5322V16.5239C13.4995 16.2478 13.7234 16.0239 13.9995 16.0239H37.9043C38.1804 16.0239 38.4043 16.2478 38.4043 16.5239V35.9049C38.4043 37.8379 36.8373 39.4049 34.9043 39.4049H16.6024C15.7671 39.4049 14.9483 39.6374 14.2376 40.0763Z" stroke="black"/>
<path d="M15.4017 21.8556L13.5 20.9047V42.0005C13.5 43.9335 15.067 45.5005 17 45.5005H41C42.933 45.5005 44.5 43.9335 44.5 42.0005V25.6195C44.5 23.6865 42.933 22.1195 41 22.1195H16.5198C16.1316 22.1195 15.7489 22.0291 15.4017 21.8556Z" fill="#F7F5F1" stroke="black"/>
<path d="M43.8486 36.5H38.8486C37.976 36.5 37.1454 36.1761 36.5381 35.6093C35.932 35.0437 35.5986 34.2841 35.5986 33.5C35.5986 32.7159 35.932 31.9563 36.5381 31.3907C37.1454 30.8239 37.976 30.5 38.8486 30.5H43.8486C44.0583 30.5 44.2529 30.578 44.3914 30.7072C44.5286 30.8353 44.5986 31.0014 44.5986 31.1667V35.8333C44.5986 35.9986 44.5286 36.1647 44.3914 36.2928C44.2529 36.422 44.0583 36.5 43.8486 36.5Z" stroke="black"/>
</svg>
