<svg width="79" height="58" viewBox="0 0 79 58" fill="none" xmlns="http://www.w3.org/2000/svg">
<path fill-rule="evenodd" clip-rule="evenodd" d="M71.6471 1.70588H6.82353C3.99713 1.70588 1.70588 3.99713 1.70588 6.82353V51.1765C1.70588 54.0029 3.99713 56.2941 6.82353 56.2941H71.6471C74.4735 56.2941 76.7647 54.0029 76.7647 51.1765V6.82353C76.7647 3.99713 74.4735 1.70588 71.6471 1.70588ZM6.82353 0C3.055 0 0 3.055 0 6.82353V51.1765C0 54.945 3.055 58 6.82353 58H71.6471C75.4156 58 78.4706 54.945 78.4706 51.1765V6.82353C78.4706 3.055 75.4156 0 71.6471 0H6.82353Z" fill="#23211E"/>
<path fill-rule="evenodd" clip-rule="evenodd" d="M77 19L1 19L1 8L77 8V19Z" fill="#23211E"/>
<path fill-rule="evenodd" clip-rule="evenodd" d="M54.7318 27.7059H38.7059V32.8867H54.7318V27.7059ZM37 26V34.5926H56.4377V26H37Z" fill="#E35046"/>
</svg>
