<svg fill="none" height="30" viewBox="0 0 29 30" width="29" xmlns="http://www.w3.org/2000/svg">
    <rect fill="#53A6E1" height="29" rx="14.5" width="29" y="0.5" />
    <path d="M15.4861 9.48C15.0728 9.41333 14.6061 9.38 14.0861 9.38C13.6061 9.38 13.0861 9.41333 12.5261 9.48C12.5661 9.13333 12.5861 8.69333 12.5861 8.16C12.5861 7.62667 12.5661 7.18 12.5261 6.82C13.0728 6.84667 13.5928 6.86 14.0861 6.86C14.5928 6.86 15.0594 6.84667 15.4861 6.82C15.4328 7.3 15.4061 7.74667 15.4061 8.16C15.4061 8.54667 15.4328 8.98667 15.4861 9.48ZM15.4461 21.02C14.9128 20.94 14.4528 20.9 14.0661 20.9C13.6128 20.9 13.0994 20.94 12.5261 21.02C12.5661 19.74 12.5861 18.0467 12.5861 15.94C12.5861 13.6333 12.5661 11.98 12.5261 10.98C13.0994 11.06 13.5994 11.1 14.0261 11.1C14.4661 11.1 14.9394 11.06 15.4461 10.98C15.3928 12.8733 15.3661 14.5533 15.3661 16.02C15.3661 17.66 15.3928 19.3267 15.4461 21.02Z"
            fill="white" />
</svg>
