<svg width="32" height="32" viewBox="0 0 32 32" fill="none" xmlns="http://www.w3.org/2000/svg">
<path d="M16.1836 23C19.9483 23 23 19.8661 23 16C23 12.1339 19.9483 9 16.1836 9C12.4189 9 9.36721 12.1339 9.36721 16C9.36721 19.8661 12.4189 23 16.1836 23ZM16.1836 21.6C14.7374 21.6 13.3503 21.01 12.3277 19.9598C11.305 18.9096 10.7305 17.4852 10.7305 16C10.7305 14.5148 11.305 13.0904 12.3277 12.0402C13.3503 10.99 14.7374 10.4 16.1836 10.4C17.6299 10.4 19.0169 10.99 20.0395 12.0402C21.0622 13.0904 21.6367 14.5148 21.6367 16C21.6367 17.4852 21.0622 18.9096 20.0395 19.9598C19.0169 21.01 17.6299 21.6 16.1836 21.6V21.6ZM16.8652 18.1H15.502V19.5H16.8652V18.1ZM15.502 16.9485V17.4H16.8652V16.35C16.8652 16.1643 16.7934 15.9863 16.6656 15.855C16.5378 15.7237 16.3644 15.65 16.1836 15.65C15.99 15.65 15.8003 15.5935 15.6367 15.4871C15.4731 15.3808 15.3423 15.2289 15.2595 15.0491C15.1766 14.8694 15.1452 14.6692 15.1689 14.4718C15.1925 14.2744 15.2702 14.088 15.393 13.9342C15.5158 13.7805 15.6786 13.6657 15.8624 13.6032C16.0462 13.5407 16.2436 13.5331 16.4314 13.5813C16.6193 13.6295 16.79 13.7315 16.9236 13.8754C17.0573 14.0193 17.1483 14.1992 17.1863 14.3942L18.5237 14.1191C18.4408 13.6936 18.2493 13.2983 17.9689 12.9736C17.6884 12.649 17.3291 12.4066 16.9276 12.2713C16.526 12.136 16.0967 12.1127 15.6835 12.2036C15.2703 12.2946 14.888 12.4966 14.5757 12.789C14.2635 13.0814 14.0324 13.4537 13.9062 13.8678C13.7799 14.282 13.7631 14.7232 13.8573 15.1462C13.9515 15.5693 14.1534 15.959 14.4423 16.2757C14.7313 16.5924 15.097 16.8245 15.502 16.9485V16.9485Z" fill="#937206"/>
</svg>
