<svg width="26" height="21" viewBox="0 0 26 21" fill="none" xmlns="http://www.w3.org/2000/svg">
<g clip-path="url(#clip0_389_167254)">
<path d="M15.2327 20.5962C20.8629 20.6239 26 16.005 26 10.3874C26 4.24403 20.8629 -0.00251461 15.2327 1.11717e-06H10.3874C4.68931 1.11717e-06 0 4.24654 0 10.3874C0 16.0075 4.68931 20.6239 10.3874 20.5962H15.2327Z" fill="#0069AA"/>
<path d="M12.5484 15.8566V4.70189C13.6782 5.13311 14.6504 5.89729 15.3363 6.89324C16.0222 7.88919 16.3895 9.06997 16.3895 10.2793C16.3895 11.4885 16.0222 12.6693 15.3363 13.6653C14.6504 14.6612 13.6782 15.4254 12.5484 15.8566ZM4.43522 10.2793C4.43746 9.07144 4.80479 7.89252 5.48899 6.89719C6.1732 5.90186 7.14232 5.13662 8.26918 4.70189V15.8541C7.14212 15.4204 6.17269 14.6558 5.48838 13.6607C4.80407 12.6657 4.43693 11.4869 4.43522 10.2793ZM10.4101 0.842774C8.54569 0.842774 6.72319 1.39562 5.17303 2.43141C3.62286 3.4672 2.41465 4.93941 1.70119 6.66186C0.987727 8.38431 0.801052 10.2796 1.16477 12.1082C1.52849 13.9367 2.42627 15.6164 3.74458 16.9347C5.06289 18.253 6.74251 19.1508 8.57106 19.5145C10.3996 19.8782 12.2949 19.6915 14.0174 18.9781C15.7398 18.2646 17.2121 17.0564 18.2478 15.5062C19.2836 13.9561 19.8365 12.1336 19.8365 10.2692C19.8368 9.0312 19.5932 7.80528 19.1196 6.66147C18.646 5.51765 17.9517 4.47836 17.0763 3.60297C16.2009 2.72758 15.1616 2.03325 14.0178 1.55964C12.874 1.08604 11.648 0.842443 10.4101 0.842774Z" fill="white"/>
</g>
<defs>
<clipPath id="clip0_389_167254">
<rect width="26" height="20.5962" fill="white"/>
</clipPath>
</defs>
</svg>
