<svg fill="none" height="9" viewBox="0 0 26 9" width="26" xmlns="http://www.w3.org/2000/svg">
    <defs>
        <linearGradient gradientUnits="userSpaceOnUse" id="paint0_linear_389_167253" x1="1.45518"
                x2="25.8633" y1="4.35569" y2="4.19545">
            <stop stop-color="#262860" />
            <stop offset="1" stop-color="#3D429B" />
        </linearGradient>
        <linearGradient gradientUnits="userSpaceOnUse" id="paint1_linear_389_167253" x1="-301.079"
                x2="2950.14" y1="-15.4598" y2="-31.7429">
            <stop stop-color="#262860" />
            <stop offset="1" stop-color="#3D429B" />
        </linearGradient>
        <linearGradient gradientUnits="userSpaceOnUse" id="paint2_linear_389_167253" x1="-484.226"
                x2="4533.98" y1="-27.3442" y2="-67.3059">
            <stop stop-color="#262860" />
            <stop offset="1" stop-color="#3D429B" />
        </linearGradient>
        <linearGradient gradientUnits="userSpaceOnUse" id="paint3_linear_389_167253" x1="-179.828"
                x2="1777.78" y1="-17.8786" y2="-23.9849">
            <stop stop-color="#262860" />
            <stop offset="1" stop-color="#3D429B" />
        </linearGradient>
        <clipPath id="clip0_389_167253">
            <rect fill="white" height="8.40168" width="26" />
        </clipPath>
    </defs>
    <g clip-path="url(#clip0_389_167253)">
        <path d="M25.9996 8.26915H24.0426C23.9706 7.92467 23.8939 7.58836 23.8334 7.24868C23.808 7.10763 23.7629 7.05294 23.606 7.05677C22.8211 7.06685 22.0357 7.06397 21.2508 7.05677C21.1323 7.05677 21.0848 7.09516 21.0489 7.20358C20.9409 7.52695 20.8224 7.84743 20.7015 8.16648C20.6852 8.20965 20.6305 8.26915 20.5936 8.26963C19.8859 8.27538 19.1782 8.27394 18.4504 8.27394C18.5833 7.95442 18.7086 7.65025 18.8343 7.34511L21.5737 0.81357C21.7714 0.341959 22.0674 0.144775 22.5769 0.144775H24.2954C24.3521 0.410086 24.4096 0.672519 24.4643 0.933512C24.9121 3.08447 25.361 5.23526 25.811 7.38589C25.8686 7.66128 25.9362 7.93475 25.9996 8.20869V8.26915ZM23.4381 5.38047L22.8178 2.40592L22.7928 2.40112L21.7129 5.38047H23.4381Z"
                fill="url(#paint0_linear_389_167253)" />
        <path d="M17.4732 0C17.7313 0.0479768 17.9914 0.0873177 18.2471 0.14393C18.4807 0.198144 18.7091 0.272988 18.9571 0.343514C18.8324 0.92851 18.7102 1.49975 18.5906 2.05724C18.2634 1.96129 17.9506 1.85094 17.6311 1.77994C17.1916 1.68398 16.7411 1.6456 16.3012 1.76842C16.1171 1.82052 15.9464 1.9113 15.8003 2.03469C15.5604 2.24147 15.5556 2.53941 15.7864 2.75435C15.9506 2.90192 16.1303 3.0314 16.3223 3.14056C16.7502 3.39819 17.2002 3.62033 17.6176 3.89715C18.1065 4.22531 18.462 4.67102 18.5383 5.27313C18.6712 6.33821 18.2773 7.17732 17.3825 7.7708C16.8198 8.14406 16.1831 8.31054 15.5201 8.37243C14.6019 8.45934 13.6758 8.35445 12.8003 8.06441C12.7413 8.04474 12.6832 8.02028 12.6257 7.99677C12.6052 7.98611 12.5855 7.97409 12.5667 7.96078C12.6919 7.37499 12.8171 6.78871 12.9457 6.18564C13.0968 6.25137 13.2383 6.3171 13.3827 6.37755C14.0746 6.6563 14.7885 6.78343 15.5287 6.64478C15.7262 6.60523 15.9139 6.52696 16.0809 6.41449C16.435 6.17461 16.4691 5.73082 16.1467 5.45208C15.9346 5.26881 15.6799 5.13351 15.4381 4.98623C15.061 4.75642 14.6604 4.56067 14.3034 4.30352C13.8457 3.97392 13.5142 3.53589 13.4513 2.95009C13.3554 2.07547 13.6821 1.36686 14.3533 0.813206C14.9377 0.333438 15.6314 0.119942 16.3683 0.0302252C16.4094 0.0232453 16.4499 0.0136301 16.4897 0.00143924L17.4732 0Z"
                fill="url(#paint1_linear_389_167253)" />
        <path d="M9.86156 0.151691C9.7517 0.416042 9.64759 0.6684 9.54204 0.919318C8.53485 3.32263 7.52846 5.72626 6.52287 8.13021C6.47489 8.24488 6.41636 8.27414 6.30025 8.27414C5.66456 8.26886 5.02887 8.26647 4.39318 8.27414C4.25837 8.27414 4.21423 8.22856 4.18304 8.10766C3.64427 6.00868 3.09637 3.91066 2.56191 1.80833C2.46596 1.42451 2.26829 1.15968 1.90127 0.997999C1.3128 0.746458 0.702551 0.549253 0.0781594 0.408846L-0.00244141 0.388695C0.000437194 0.144974 0.000437168 0.144974 0.232164 0.144974H3.57278C4.10052 0.144974 4.48146 0.451545 4.58029 0.974011C4.86303 2.45265 5.14226 3.93209 5.41796 5.41233C5.43044 5.4771 5.44435 5.54139 5.46258 5.63255C5.48542 5.59432 5.50624 5.55493 5.52495 5.51452C6.21645 3.76689 6.90668 2.01846 7.59562 0.269233C7.63353 0.17328 7.67958 0.141615 7.78273 0.142095C8.42802 0.147373 9.07379 0.144974 9.71907 0.144974C9.76081 0.144974 9.80255 0.148812 9.86156 0.151691Z"
                fill="url(#paint2_linear_389_167253)" />
        <path d="M9.01904 8.2717C9.60004 5.55478 10.1772 2.85753 10.7558 0.153564H12.8668C12.779 0.565204 12.6931 0.969168 12.6068 1.37313C12.1273 3.60629 11.6499 5.84008 11.1746 8.07451C11.142 8.22948 11.0868 8.27889 10.9256 8.27602C10.3499 8.2645 9.76988 8.2717 9.19176 8.2717H9.01904Z"
                fill="url(#paint3_linear_389_167253)" />
    </g>

</svg>
