<?xml version="1.0" standalone="no"?>
<!DOCTYPE svg PUBLIC "-//W3C//DTD SVG 20010904//EN"
 "http://www.w3.org/TR/2001/REC-SVG-20010904/DTD/svg10.dtd">
<svg version="1.0" xmlns="http://www.w3.org/2000/svg"
 width="173.000000pt" height="169.000000pt" viewBox="0 0 173.000000 169.000000"
 preserveAspectRatio="xMidYMid meet">

<g transform="translate(0.000000,169.000000) scale(0.100000,-0.100000)"
fill="#000000" stroke="none">
<path d="M633 1428 c-13 -17 -9 -39 16 -94 12 -25 19 -49 16 -53 -2 -5 2 -15
11 -22 11 -9 14 -22 10 -41 -3 -18 -2 -27 4 -23 6 3 10 2 10 -4 0 -5 -4 -13
-10 -16 -5 -3 -10 -2 -10 4 0 5 -13 3 -30 -5 -37 -19 -39 -27 -4 -13 40 15 42
2 3 -15 -19 -9 -27 -15 -19 -16 8 0 30 9 48 20 35 21 38 20 21 -12 -8 -15 -8
-23 2 -32 9 -8 11 -7 6 6 -3 10 -2 20 4 24 7 4 9 -9 6 -35 -2 -24 0 -41 6 -41
6 0 8 -3 4 -6 -13 -13 -50 10 -62 39 -8 18 -14 25 -15 17 -1 -59 96 -96 229
-86 105 7 138 11 171 20 16 4 12 -1 -12 -14 -42 -23 -52 -46 -15 -35 12 4 37
19 56 33 l33 25 -6 -44 c-3 -28 -2 -35 2 -19 l8 25 7 -26 c3 -14 2 -43 -4 -64
-14 -51 -5 -104 32 -176 26 -53 27 -59 10 -50 -26 14 -34 28 -38 64 -2 16 -8
36 -14 45 -8 14 -9 11 -4 -11 5 -25 3 -28 -14 -22 -11 3 -23 0 -27 -6 -4 -8
-3 -9 4 -5 7 4 12 2 12 -4 0 -8 -9 -10 -23 -7 -12 4 -28 2 -36 -2 -9 -6 -6
-10 13 -15 43 -11 139 -106 106 -106 -5 0 -10 8 -10 18 -1 15 -2 15 -10 1 -9
-15 0 -58 21 -101 5 -9 3 -27 -4 -42 -16 -34 -29 -34 -17 0 12 32 13 31 -2 31
-7 0 -14 -10 -15 -21 0 -12 -4 -41 -7 -66 -5 -32 -4 -39 3 -25 5 11 10 16 11
10 2 -19 30 29 30 52 0 13 5 23 10 23 6 0 10 -7 10 -15 0 -24 20 -17 21 8 1
20 1 21 7 2 6 -17 17 -20 85 -23 88 -3 117 8 117 43 0 19 -14 32 -70 65 -75
44 -78 52 -31 94 17 16 34 19 90 17 45 -2 72 2 77 10 5 9 -10 11 -65 7 -51 -4
-69 -2 -62 5 6 6 23 11 38 12 87 4 103 6 103 16 0 11 -42 8 -99 -8 -17 -4 -22
-3 -17 6 4 6 12 8 18 5 6 -4 8 -2 5 3 -10 16 20 36 56 39 l32 3 -32 -12 c-43
-16 -55 -30 -18 -22 60 14 66 17 61 31 -3 8 -1 14 5 14 6 0 7 4 4 10 -4 6 -17
4 -36 -6 -38 -19 -48 -12 -14 10 14 9 25 22 25 29 0 6 -51 -39 -113 -101
l-113 -113 -22 24 c-12 13 -22 29 -22 36 0 7 9 3 20 -10 32 -40 22 -7 -16 50
-40 60 -74 129 -73 151 0 8 8 -4 17 -27 9 -23 33 -63 52 -89 19 -26 39 -56 45
-66 5 -10 13 -18 17 -18 10 0 -6 49 -37 110 l-27 55 30 -28 c18 -17 36 -50 45
-80 15 -49 15 -50 16 -17 0 19 -6 53 -14 75 -14 40 -12 56 5 39 6 -6 14 -37
18 -70 8 -56 9 -57 16 -26 5 20 3 53 -5 85 -7 29 -12 56 -11 61 2 4 -14 28
-35 53 -83 99 -88 106 -67 95 10 -6 40 -31 66 -54 l48 -43 12 -94 c10 -80 13
-90 21 -66 9 27 1 88 -19 139 -6 15 -4 17 7 11 20 -13 -3 17 -60 78 -51 53
-49 58 9 22 48 -30 53 -31 45 -6 -3 11 -2 28 4 38 23 43 52 133 49 150 -2 10
-62 62 -133 116 -150 113 -153 113 -254 49 -34 -23 -75 -43 -90 -47 -38 -8
-84 12 -146 64 -51 42 -93 53 -112 29z m507 -423 c0 -5 -5 -3 -10 5 -5 8 -10
20 -10 25 0 6 5 3 10 -5 5 -8 10 -19 10 -25z m130 -125 c0 -11 -2 -20 -4 -20
-6 0 -116 156 -116 164 0 3 27 -24 60 -59 33 -35 60 -74 60 -85z m-49 -7 c5
-14 8 -28 6 -30 -5 -4 -87 129 -87 141 0 13 71 -84 81 -111z m-51 -5 c5 -15 7
-28 4 -28 -7 0 -44 89 -44 103 1 16 30 -39 40 -75z m9 -323 c0 -5 -6 1 -14 15
-8 14 -14 30 -14 35 0 6 6 -1 14 -15 8 -14 14 -29 14 -35z"/>
<path d="M590 1391 c0 -6 4 -13 10 -16 6 -3 7 1 4 9 -7 18 -14 21 -14 7z"/>
<path d="M510 1334 c-17 -9 -20 -14 -9 -14 9 0 22 7 29 15 15 18 13 18 -20 -1z"/>
<path d="M565 1338 c-29 -15 -55 -50 -55 -73 0 -14 5 -10 18 15 10 20 32 42
52 52 19 10 28 18 20 18 -8 0 -24 -6 -35 -12z"/>
<path d="M620 1345 c0 -12 32 -67 36 -63 4 5 -25 68 -32 68 -2 0 -4 -2 -4 -5z"/>
<path d="M559 1301 c-16 -16 -29 -38 -29 -48 1 -11 6 -6 15 15 8 17 26 37 40
42 26 10 33 20 14 20 -6 0 -24 -13 -40 -29z"/>
<path d="M475 1300 c3 -5 11 -10 16 -10 6 0 7 5 4 10 -3 6 -11 10 -16 10 -6 0
-7 -4 -4 -10z"/>
<path d="M566 1278 c-9 -12 -16 -29 -16 -38 1 -8 8 -3 16 13 8 15 25 32 37 37
l22 9 -22 0 c-12 1 -29 -9 -37 -21z"/>
<path d="M460 1280 c8 -5 22 -9 30 -9 10 0 8 3 -5 9 -27 12 -43 12 -25 0z"/>
<path d="M436 1265 c10 -8 28 -14 39 -14 14 0 10 4 -14 14 -42 19 -50 19 -25
0z"/>
<path d="M584 1266 c-12 -32 0 -61 28 -64 34 -4 54 27 38 58 -12 23 -58 27
-66 6z m56 -11 c10 -12 10 -18 0 -30 -25 -30 -61 -7 -46 30 3 8 12 15 19 15 8
0 20 -7 27 -15z"/>
<path d="M411 1243 c0 -12 -9 -27 -18 -32 -10 -6 -13 -11 -7 -11 18 0 36 27
31 47 -4 14 -5 14 -6 -4z"/>
<path d="M431 1233 c0 -12 -11 -29 -23 -37 -17 -12 -18 -16 -6 -16 23 0 40 25
35 52 -4 22 -4 22 -6 1z"/>
<path d="M667 1228 c-4 -16 -17 -30 -34 -36 -23 -9 -25 -11 -7 -11 26 -1 57
32 52 56 -3 14 -5 12 -11 -9z"/>
<path d="M451 1212 c-8 -18 -17 -32 -20 -32 -4 0 -16 -7 -27 -15 -18 -14 -18
-15 6 -6 29 10 64 53 58 72 -2 7 -10 -2 -17 -19z"/>
<path d="M476 1207 c-4 -17 -20 -36 -42 -49 -19 -11 -33 -23 -30 -26 17 -16
92 65 84 90 -3 7 -8 0 -12 -15z"/>
<path d="M537 1215 c19 -8 40 -29 52 -52 13 -24 20 -31 21 -19 0 23 -62 86
-86 86 -12 -1 -8 -6 13 -15z"/>
<path d="M523 1194 c16 -9 27 -18 24 -21 -3 -2 -15 0 -26 7 -12 6 -21 7 -21 2
0 -6 9 -12 20 -15 11 -3 25 -16 30 -29 10 -21 10 -20 5 7 l-6 30 20 -25 c20
-24 20 -25 14 -2 -6 26 -48 62 -72 62 -10 -1 -5 -7 12 -16z"/>
<path d="M464 1134 c-10 -38 17 -61 51 -46 42 20 27 72 -22 72 -16 0 -25 -8
-29 -26z m63 0 c3 -8 -2 -23 -11 -32 -15 -15 -17 -15 -32 0 -21 21 -11 48 16
48 11 0 23 -7 27 -16z"/>
<path d="M441 1114 c-1 -27 32 -57 56 -51 15 4 15 5 -3 6 -24 1 -39 16 -47 46
-4 19 -5 19 -6 -1z"/>
<path d="M671 1122 c-1 -20 18 -52 31 -52 7 0 5 7 -4 18 -9 9 -18 24 -21 32
-4 10 -6 11 -6 2z"/>
<path d="M410 1117 c0 -4 7 -21 15 -36 14 -28 34 -42 58 -40 7 0 2 4 -10 9
-13 5 -32 24 -43 42 -11 18 -20 29 -20 25z"/>
<path d="M574 1106 c-36 -16 -64 -52 -63 -81 0 -17 2 -17 10 5 13 31 49 70 65
70 7 0 16 5 19 10 8 12 7 12 -31 -4z"/>
<path d="M627 1091 c7 -26 52 -67 83 -75 16 -4 12 1 -14 15 -22 12 -43 33 -49
50 -13 32 -28 40 -20 10z"/>
<path d="M572 1083 c-7 -3 -19 -18 -27 -33 -22 -42 -18 -50 5 -12 11 18 30 37
43 42 12 5 15 9 7 9 -8 -1 -21 -3 -28 -6z"/>
<path d="M571 1044 c-22 -28 -28 -50 -11 -39 6 3 10 13 10 20 0 8 12 21 28 29
18 10 21 15 10 16 -9 0 -26 -12 -37 -26z"/>
<path d="M425 1042 c11 -11 31 -23 45 -27 31 -9 26 -5 -25 24 -35 20 -38 20
-20 3z"/>
<path d="M597 1039 c-24 -14 -22 -56 4 -70 18 -9 25 -7 42 9 11 11 17 27 14
36 -9 23 -40 36 -60 25z m48 -34 c0 -14 -8 -21 -27 -23 -22 -3 -28 1 -28 16 0
25 10 33 35 30 12 -2 20 -10 20 -23z"/>
<path d="M411 1005 c-2 -29 -19 -48 -81 -87 -85 -55 -94 -68 -79 -117 8 -29
18 -41 31 -41 10 0 18 7 18 18 1 16 1 16 11 0 7 -12 22 -18 49 -18 35 0 40 3
41 23 l0 22 9 -22 c13 -32 77 -33 89 -1 l8 22 5 -22 c9 -31 69 -31 91 1 13 19
17 20 29 8 11 -12 10 -13 -4 -8 -12 4 -18 1 -18 -8 0 -10 11 -15 33 -15 17 0
27 4 21 8 -6 4 -13 15 -17 25 -3 9 -17 18 -29 18 -17 1 -19 2 -5 6 9 2 15 9
12 13 -3 5 -16 5 -30 0 -14 -5 -25 -7 -25 -5 0 3 12 10 28 16 15 6 22 13 15
16 -7 2 -21 -1 -32 -7 -12 -6 -21 -8 -21 -6 0 3 12 12 28 20 15 8 20 15 12 16
-8 0 -31 -10 -50 -21 -19 -12 -29 -15 -22 -8 30 32 2 87 -39 76 -16 -4 -19 -2
-14 11 4 9 9 28 12 42 3 21 2 20 -11 -6 -8 -18 -20 -35 -27 -39 -7 -5 -5 2 4
16 22 30 24 62 2 33 -14 -18 -14 -18 -8 4 3 13 1 22 -6 22 -6 0 -11 -8 -12
-17 -1 -12 -4 -10 -9 7 -7 21 -8 22 -9 5z m114 -105 c4 -6 1 -17 -5 -26 -14
-16 -40 -2 -40 22 0 16 36 19 45 4z"/>
<path d="M1048 992 c-35 -23 -49 -42 -30 -42 12 0 78 57 72 63 -3 2 -22 -7
-42 -21z"/>
<path d="M665 988 c-6 -13 -21 -29 -35 -36 l-25 -14 28 6 c33 8 36 -1 5 -14
-16 -6 -18 -9 -7 -9 26 -1 69 38 68 62 0 19 -2 19 -11 -5 -5 -16 -14 -28 -19
-28 -6 0 -5 9 1 21 6 11 10 24 8 30 -2 5 -8 -1 -13 -13z"/>
<path d="M515 990 c3 -5 12 -10 20 -10 17 0 65 -56 66 -78 0 -9 3 -12 5 -6 9
21 -16 64 -48 84 -36 22 -53 26 -43 10z"/>
<path d="M707 964 c-11 -21 -30 -41 -50 -49 -17 -8 -25 -14 -16 -15 23 0 69
38 80 68 15 38 5 36 -14 -4z"/>
<path d="M527 955 c17 -7 38 -26 47 -42 19 -36 21 -21 1 16 -15 29 -34 41 -63
41 -9 -1 -3 -7 15 -15z"/>
<path d="M1048 949 c-28 -21 -36 -39 -19 -39 5 0 19 14 31 30 25 35 24 36 -12
9z"/>
<path d="M518 935 c21 -9 32 -21 32 -35 0 -11 5 -20 10 -20 16 0 12 15 -11 44
-11 14 -30 26 -42 26 -18 -1 -16 -3 11 -15z"/>
<path d="M1351 870 c0 -67 2 -80 10 -60 14 35 15 118 1 132 -9 9 -12 -8 -11
-72z"/>
<path d="M1053 911 c-24 -20 -29 -31 -14 -31 5 0 16 11 25 25 20 30 18 30 -11
6z"/>
<path d="M1092 910 c0 -14 2 -19 5 -12 2 6 2 18 0 25 -3 6 -5 1 -5 -13z"/>
<path d="M701 904 c0 -11 3 -14 6 -6 3 7 2 16 -1 19 -3 4 -6 -2 -5 -13z"/>
<path d="M1399 905 c-4 -5 -9 -30 -13 -55 l-6 -45 16 34 c14 31 17 88 3 66z"/>
<path d="M671 890 c0 -8 4 -22 9 -30 12 -18 12 -2 0 25 -6 13 -9 15 -9 5z"/>
<path d="M651 874 c-1 -12 6 -28 16 -35 15 -13 15 -12 6 6 -6 11 -13 27 -16
35 -4 10 -6 8 -6 -6z"/>
<path d="M631 851 c6 -17 18 -36 26 -43 9 -7 14 -8 11 -3 -2 6 -11 25 -18 43
-18 40 -33 43 -19 3z"/>
<path d="M1057 873 c-4 -3 -7 -13 -7 -22 1 -13 3 -13 11 2 11 19 8 33 -4 20z"/>
<path d="M1077 843 c-4 -21 -2 -42 3 -47 7 -7 10 7 10 37 0 57 -5 60 -13 10z"/>
<path d="M1427 873 c-4 -3 -7 -11 -7 -17 0 -6 5 -5 12 2 6 6 9 14 7 17 -3 3
-9 2 -12 -2z"/>
<path d="M270 748 c0 -2 7 -21 15 -43 l14 -40 1 43 c0 31 -4 42 -15 42 -8 0
-15 -1 -15 -2z"/>
<path d="M314 736 c-3 -8 -4 -27 -2 -43 3 -26 7 -28 43 -28 l40 0 0 40 c0 39
-1 40 -38 43 -26 2 -39 -1 -43 -12z"/>
<path d="M414 736 c-3 -8 -4 -27 -2 -43 3 -26 7 -28 43 -28 l40 0 0 40 c0 39
-1 40 -38 43 -26 2 -39 -1 -43 -12z"/>
<path d="M514 736 c-3 -8 -4 -27 -2 -43 3 -26 7 -28 43 -28 l40 0 0 40 c0 39
-1 40 -38 43 -26 2 -39 -1 -43 -12z"/>
<path d="M614 736 c-3 -8 -4 -27 -2 -43 3 -26 7 -28 43 -28 l40 0 0 40 c0 39
-1 40 -38 43 -26 2 -39 -1 -43 -12z"/>
<path d="M710 700 l0 -41 59 3 c33 1 57 6 54 11 -9 16 -86 67 -100 67 -9 0
-13 -13 -13 -40z"/>
<path d="M980 716 c0 -3 14 -12 30 -21 17 -9 30 -13 30 -11 0 3 -13 12 -30 21
-16 9 -30 13 -30 11z"/>
<path d="M1085 683 c1 -10 8 -17 15 -15 6 1 8 -2 5 -8 -5 -8 -15 -6 -33 6
l-27 17 19 -21 c11 -12 25 -22 31 -22 22 0 25 27 5 45 -17 16 -18 16 -15 -2z"/>
<path d="M977 679 c7 -7 15 -10 18 -7 3 3 -2 9 -12 12 -14 6 -15 5 -6 -5z"/>
<path d="M1325 681 c35 -15 116 -20 112 -7 -2 6 -31 12 -68 13 -41 2 -57 -1
-44 -6z"/>
<path d="M925 666 l-30 -14 35 -8 c34 -8 34 -8 10 -16 -20 -6 -17 -7 10 -3 40
5 73 -8 45 -18 -9 -4 -13 -3 -10 3 4 6 -11 7 -40 3 -37 -5 -52 -2 -73 14 -20
14 -45 20 -94 21 l-68 2 -1 -32 -1 -33 -7 30 c-5 27 -10 30 -49 33 l-43 3 3
-42 c2 -36 7 -44 28 -50 l25 -7 -27 -1 c-19 -1 -28 -6 -28 -18 0 -15 -1 -15
-13 1 -9 12 -23 17 -47 14 -29 -2 -36 -7 -38 -29 -3 -24 2 -27 50 -41 32 -9
53 -20 53 -29 1 -20 33 -128 50 -167 26 -57 78 -36 90 37 3 21 13 47 20 58 17
21 19 37 5 28 -15 -9 12 59 29 73 9 8 10 11 4 7 -7 -3 -13 -2 -13 3 0 22 35
35 103 40 79 5 92 -2 99 -48 3 -23 4 -22 9 7 3 18 3 31 1 28 -3 -3 -14 3 -24
12 -11 10 -34 17 -55 16 -19 -1 -49 5 -67 13 -30 13 -30 13 -6 14 23 1 23 2 5
10 -15 6 -9 9 27 9 25 1 55 3 65 6 10 3 0 -4 -22 -15 -35 -17 -37 -19 -15 -20
14 0 31 4 39 9 19 12 43 2 37 -15 -3 -7 0 -16 6 -20 7 -5 8 -2 4 7 -4 8 0 5 9
-6 9 -11 14 -28 11 -38 -2 -9 -1 -15 4 -12 4 3 10 -14 13 -38 5 -51 -13 -143
-25 -125 -4 7 -5 -2 -1 -21 4 -24 3 -32 -5 -27 -8 5 -10 1 -5 -9 5 -13 7 -14
14 -3 5 7 9 22 10 33 1 17 2 16 10 -5 6 -18 7 -13 3 20 -3 29 -2 40 4 32 7
-10 12 -1 21 32 6 24 11 57 11 71 0 15 5 35 10 46 14 26 -5 65 -24 50 -13 -11
-19 -6 -54 41 -10 12 -10 18 -1 24 8 5 9 3 4 -6 -6 -9 -4 -11 5 -5 9 6 11 4 5
-5 -6 -9 -4 -11 5 -5 9 6 11 4 5 -5 -5 -9 -4 -11 3 -6 7 4 10 2 6 -7 -3 -8 2
-14 11 -14 22 0 19 10 -15 42 -16 15 -27 32 -24 36 2 4 -1 11 -7 15 -8 4 -9 3
-5 -4 9 -15 11 -15 -44 2 -25 8 -37 15 -28 15 9 1 20 6 23 11 8 12 7 12 -30
-4z m-38 -62 c-3 -3 -12 -4 -19 -1 -8 3 -5 6 6 6 11 1 17 -2 13 -5z m-176 -57
c-4 -4 -15 -5 -25 -1 -15 6 -15 7 1 19 13 10 20 10 25 2 4 -7 4 -15 -1 -20z
m99 13 c0 -5 -4 -10 -10 -10 -5 0 -10 5 -10 10 0 6 5 10 10 10 6 0 10 -4 10
-10z m50 -20 c0 -5 -9 -10 -21 -10 -11 0 -17 5 -14 10 3 6 13 10 21 10 8 0 14
-4 14 -10z m223 -32 c-4 -7 -10 -35 -14 -63 l-6 -50 -2 43 c-1 39 12 82 25 82
3 0 2 -6 -3 -12z m-26 -140 c-3 -8 -6 -5 -6 6 -1 11 2 17 5 13 3 -3 4 -12 1
-19z"/>
<path d="M1345 640 c81 -22 85 -23 85 -11 0 11 -79 31 -122 30 -26 0 -17 -5
37 -19z"/>
<path d="M314 636 c-3 -8 -2 -28 3 -43 8 -23 15 -28 44 -28 33 0 34 1 34 40 0
39 -1 40 -38 43 -26 2 -39 -1 -43 -12z"/>
<path d="M414 636 c-3 -8 -4 -27 -2 -43 3 -26 7 -28 43 -28 l40 0 0 40 c0 39
-1 40 -38 43 -26 2 -39 -1 -43 -12z"/>
<path d="M514 636 c-3 -8 -4 -27 -2 -43 3 -26 7 -28 43 -28 l40 0 0 40 c0 39
-1 40 -38 43 -26 2 -39 -1 -43 -12z"/>
<path d="M888 633 c7 -3 16 -2 19 1 4 3 -2 6 -13 5 -11 0 -14 -3 -6 -6z"/>
<path d="M1305 619 c64 -36 105 -50 105 -39 0 12 -75 47 -118 56 -21 4 -19 0
13 -17z"/>
<path d="M1050 605 c13 -14 26 -25 28 -25 3 0 -5 11 -18 25 -13 14 -26 25 -28
25 -3 0 5 -11 18 -25z"/>
<path d="M340 535 c0 -9 12 -20 26 -25 34 -13 34 -13 34 15 0 21 -5 25 -30 25
-20 0 -30 -5 -30 -15z"/>
<path d="M417 544 c-4 -4 -7 -15 -7 -25 0 -17 27 -29 68 -29 20 0 23 4 20 28
-3 23 -8 27 -38 30 -20 2 -39 0 -43 -4z"/>
<path d="M888 503 c12 -2 30 -2 40 0 9 3 -1 5 -23 4 -22 0 -30 -2 -17 -4z"/>
<path d="M870 483 c-26 -11 -80 -55 -80 -66 0 -6 12 1 28 15 51 48 103 62 131
36 11 -11 13 -10 9 2 -5 16 -61 24 -88 13z"/>
<path d="M967 456 c-4 -10 -7 -25 -6 -34 0 -11 4 -9 10 7 5 13 8 29 6 35 -2 5
-6 2 -10 -8z"/>
<path d="M851 424 c-18 -14 -37 -36 -43 -48 -10 -19 -10 -20 5 -7 14 11 17 11
17 0 0 -7 8 -2 17 11 10 14 18 28 18 32 0 3 3 9 6 12 13 14 5 -31 -11 -54 -29
-43 -34 -54 -22 -46 14 9 15 -4 2 -24 -8 -12 -10 -12 -10 -1 0 8 -2 12 -5 10
-2 -3 0 -18 4 -35 7 -20 10 -23 10 -9 1 11 11 36 22 55 15 24 17 30 5 21 -23
-19 -20 -1 5 29 17 21 20 22 15 5 -6 -20 -6 -20 9 -1 8 11 15 25 15 30 0 6 -4
5 -9 -2 -6 -10 -10 -7 -13 12 -4 17 0 26 11 29 14 4 14 5 -1 6 -9 0 -30 -11
-47 -25z m9 -18 c0 -2 -7 -9 -15 -16 -13 -11 -14 -10 -9 4 5 14 24 23 24 12z"/>
<path d="M1007 401 c-4 -24 -5 -46 -2 -49 3 -3 5 6 6 19 0 22 1 23 9 4 l9 -20
-1 20 c0 11 -3 31 -7 45 -6 22 -8 20 -14 -19z"/>
<path d="M941 329 c-7 -38 -10 -73 -7 -76 3 -4 6 5 6 20 0 14 4 28 9 31 5 3 7
16 3 28 -3 15 -2 19 7 14 9 -6 10 0 5 21 -4 15 -8 29 -9 31 -1 1 -7 -30 -14
-69z"/>
<path d="M1081 374 c0 -11 3 -14 6 -6 3 7 2 16 -1 19 -3 4 -6 -2 -5 -13z"/>
<path d="M795 297 c-1 -29 1 -43 3 -32 l5 20 8 -20 c6 -13 7 -7 3 20 -9 63
-19 69 -19 12z"/>
<path d="M986 294 c-4 -20 -5 -38 -3 -40 3 -3 8 11 11 32 4 20 5 38 3 40 -3 3
-8 -11 -11 -32z"/>
<path d="M781 313 c-1 -6 -4 -20 -7 -30 -5 -17 -5 -17 6 0 6 10 9 23 6 30 -3
9 -5 9 -5 0z"/>
</g>
</svg>
