<svg width="52" height="52" viewBox="0 0 52 52" fill="none" xmlns="http://www.w3.org/2000/svg">
<path d="M34.5294 13H31V14.7647H34.5294C34.623 14.7647 34.7128 14.7957 34.779 14.8509C34.8452 14.906 34.8824 14.9808 34.8824 15.0588V18H37V15.0588C37 14.5128 36.7397 13.9891 36.2764 13.603C35.8131 13.2169 35.1847 13 34.5294 13Z" fill="black"/>
<path d="M21 13H17.4706C16.8153 13 16.1869 13.2169 15.7236 13.603C15.2603 13.9891 15 14.5128 15 15.0588V18H17.1176V15.0588C17.1176 14.9808 17.1548 14.906 17.221 14.8509C17.2872 14.7957 17.377 14.7647 17.4706 14.7647H21V13Z" fill="black"/>
<path d="M17.4706 37H21V34.8824H17.4706C17.377 34.8824 17.2872 34.8452 17.221 34.779C17.1548 34.7128 17.1176 34.623 17.1176 34.5294V31H15V34.5294C15 35.1847 15.2603 35.8131 15.7236 36.2764C16.1869 36.7397 16.8153 37 17.4706 37Z" fill="black"/>
<path d="M34.8824 34.5294C34.8824 34.623 34.8452 34.7128 34.779 34.779C34.7128 34.8452 34.623 34.8824 34.5294 34.8824H31V37H34.5294C35.1847 37 35.8131 36.7397 36.2764 36.2764C36.7397 35.8131 37 35.1847 37 34.5294V31H34.8824V34.5294Z" fill="black"/>
<path d="M27.4708 23.6528H24.4708V26.6528H27.4708V23.6528Z" fill="black"/>
<path d="M31 20H28V23H31V20Z" fill="black"/>
<path d="M31 27H28V30H31V27Z" fill="black"/>
<path d="M24 20H21V23H24V20Z" fill="black"/>
<path d="M24 27H21V30H24V27Z" fill="black"/>
<circle cx="26" cy="26" r="25.5" stroke="black" stroke-opacity="0.15"/>
</svg>
