<svg width="61" height="63" viewBox="0 0 61 63" fill="none" xmlns="http://www.w3.org/2000/svg">
<rect width="60.3672" height="63" rx="15" fill="#F7F5F1"/>
<path d="M20.75 12.5H38.25C39.112 12.5 39.9386 12.8424 40.5481 13.4519C41.1576 14.0614 41.5 14.888 41.5 15.75V45.75C41.5 46.612 41.1576 47.4386 40.5481 48.0481C39.9386 48.6576 39.112 49 38.25 49H20.75C19.888 49 19.0614 48.6576 18.4519 48.0481C17.8424 47.4386 17.5 46.612 17.5 45.75V15.75C17.5 14.888 17.8424 14.0614 18.4519 13.4519C19.0614 12.8424 19.888 12.5 20.75 12.5Z" stroke="black"/>
<rect x="25" y="44" width="9" height="1" fill="black"/>
<g clip-path="url(#clip0_702_655717)">
<path d="M24.0307 19C23.7574 19 23.4952 19.1086 23.3019 19.3019C23.1086 19.4952 23 19.7574 23 20.0307V22.4636H23.6964V20.0307C23.6964 19.9421 23.7316 19.857 23.7943 19.7943C23.857 19.7316 23.9421 19.6964 24.0307 19.6964H26.4636V19H24.0307Z" fill="black"/>
<path d="M34.9691 19H32.5269V19.6964H34.9598C35.0484 19.6964 35.1335 19.7316 35.1961 19.7943C35.2588 19.857 35.2941 19.9421 35.2941 20.0307V20.0307V22.4636H35.9905V20.0307C35.9905 19.759 35.8832 19.4982 35.6919 19.3052C35.5006 19.1121 35.2408 19.0024 34.9691 19Z" fill="black"/>
<path d="M35.3126 28.5271V30.96C35.3126 31.0486 35.2774 31.1336 35.2147 31.1963C35.152 31.259 35.067 31.2942 34.9783 31.2942H32.5269V31.9907H34.9598C35.2331 31.9907 35.4953 31.8821 35.6886 31.6888C35.8819 31.4955 35.9905 31.2333 35.9905 30.96V28.5271H35.3126Z" fill="black"/>
<path d="M23.6964 30.9692V28.5271H23V30.96C23 31.2333 23.1086 31.4955 23.3019 31.6888C23.4952 31.8821 23.7574 31.9907 24.0307 31.9907H26.4636V31.3128H24.0307C23.9421 31.3128 23.857 31.2776 23.7943 31.2149C23.7316 31.1522 23.6964 31.0672 23.6964 30.9785V30.9692Z" fill="black"/>
<path d="M36 25.11H23V25.89H36V25.11Z" fill="black"/>
</g>
<defs>
<clipPath id="clip0_702_655717">
<rect width="13" height="13" fill="white" transform="translate(23 19)"/>
</clipPath>
</defs>
</svg>
