<svg width="14" height="14" viewBox="0 0 14 14" fill="none" xmlns="http://www.w3.org/2000/svg">
<path d="M5.44444 0V1.55556H1.55556V12.4444H12.4444V8.55556H14V13.2222C14 13.4285 13.9181 13.6263 13.7722 13.7722C13.6263 13.9181 13.4285 14 13.2222 14H0.777778C0.571498 14 0.373667 13.9181 0.227806 13.7722C0.0819442 13.6263 0 13.4285 0 13.2222V0.777778C0 0.571498 0.0819442 0.373667 0.227806 0.227806C0.373667 0.0819442 0.571498 0 0.777778 0H5.44444ZM11.3447 1.55556H7.77778V0H14V6.22222H12.4444V2.65533L7 8.09978L5.90022 7L11.3447 1.55556Z" fill="#937206"/>
</svg>
