<svg width="24" height="24" viewBox="0 0 24 24" fill="none" xmlns="http://www.w3.org/2000/svg">
<circle cx="12" cy="6" r="5" stroke="#EA7142" stroke-width="2"/>
<mask id="path-2-inside-1_359_176627" fill="white">
<path fill-rule="evenodd" clip-rule="evenodd" d="M20.0001 23H22.0001C22.0001 17.4772 17.523 13 12.0001 13C6.47727 13 2.00012 17.4772 2.00012 23H4.00012C4.00012 18.5817 7.58184 15 12.0001 15C16.4184 15 20.0001 18.5817 20.0001 23Z"/>
</mask>
<path d="M20.0001 23H18.0001V25H20.0001V23ZM22.0001 23V25H24.0001V23H22.0001ZM2.00012 23H0.00012207V25H2.00012V23ZM4.00012 23V25H6.00012V23H4.00012ZM20.0001 25H22.0001V21H20.0001V25ZM24.0001 23C24.0001 16.3726 18.6275 11 12.0001 11V15C16.4184 15 20.0001 18.5817 20.0001 23H24.0001ZM12.0001 11C5.3727 11 0.00012207 16.3726 0.00012207 23H4.00012C4.00012 18.5817 7.58184 15 12.0001 15V11ZM2.00012 25H4.00012V21H2.00012V25ZM12.0001 13C6.47727 13 2.00012 17.4772 2.00012 23H6.00012C6.00012 19.6863 8.68641 17 12.0001 17V13ZM22.0001 23C22.0001 17.4772 17.523 13 12.0001 13V17C15.3138 17 18.0001 19.6863 18.0001 23H22.0001Z" fill="#EA7142" mask="url(#path-2-inside-1_359_176627)"/>
</svg>
