<svg width="335" height="204" viewBox="0 0 335 204" fill="none" xmlns="http://www.w3.org/2000/svg">
<defs>
<linearGradient id="paint0_linear_512_167234" x1="167.798" y1="-42.7179" x2="76.5628" y2="243.045" gradientUnits="userSpaceOnUse">
<stop stop-color="#2463A3"/>
<stop offset="1" stop-color="#66C1DA"/>
</linearGradient>
<clipPath id="clip0_512_167234">
<rect width="72" height="26" fill="white" transform="translate(247 20)"/>
</clipPath>
</defs>
<rect width="335" height="204" rx="24" fill="url(#paint0_linear_512_167234)"/>
<mask id="mask0_512_167234" style="mask-type:alpha" maskUnits="userSpaceOnUse" x="0" y="0" width="335" height="204">
<rect width="335" height="204" rx="23" fill="#C4C4C4"/>
</mask>
<g mask="url(#mask0_512_167234)">
<path opacity="0.5" d="M304 126.181C304.68 127.487 305.632 130.708 304 133.145M308.487 123.679C309.507 125.746 310.935 131.034 308.487 135.648M312.464 121.067C313.79 123.86 315.646 131.143 312.464 137.933M316.748 119C318.447 122.301 320.827 131.121 316.748 140" stroke="white" stroke-width="2" stroke-linecap="round" stroke-linejoin="round"/>
</g>
<g clip-path="url(#clip0_512_167234)">
<path d="M250.643 21.3943L247.014 29.8215H249.376L250.045 28.1332H253.94L254.61 29.8215H257.029L253.4 21.3943H250.643ZM251.989 23.3484L253.177 26.294H250.801L251.989 23.3484Z" fill="white"/>
<path d="M257.273 29.8137V21.3865L260.636 21.4008L262.587 26.8322L264.494 21.3865H267.828V29.8137H265.718V23.6064L263.479 29.8137H261.629L259.383 23.6064V29.8137H257.273Z" fill="white"/>
<path d="M269.275 29.8137V21.3865H276.164V23.2688H271.413V24.7128H276.049V26.4873H271.406V27.9817H276.157V29.8137H269.275Z" fill="white"/>
<path d="M277.381 21.3936V29.8207H279.49V26.8285H280.376L282.91 29.8243H285.487L282.708 26.7171C283.349 26.6539 283.943 26.3531 284.372 25.8742C284.801 25.3953 285.035 24.7732 285.026 24.1308C285.026 22.3563 283.63 21.4007 282.075 21.4007L277.381 21.3936ZM279.49 23.2758H281.902C282.478 23.2758 282.903 23.7285 282.903 24.1595C282.903 24.7199 282.356 25.0432 281.931 25.0432H279.49V23.2758Z" fill="white"/>
<path d="M288.043 29.8137H285.891V21.3865H288.043V29.8137Z" fill="white"/>
<path d="M293.154 29.8136H292.687C290.433 29.8136 289.073 28.0462 289.073 25.6395C289.073 23.1753 290.426 21.3936 293.262 21.3936H295.595V23.3908H293.183C292.031 23.3908 291.211 24.2888 291.211 25.661C291.211 27.2919 292.147 27.9744 293.486 27.9744H294.04L293.154 29.8136Z" fill="white"/>
<path d="M297.748 21.3937L294.119 29.8137H296.481L297.15 28.1254H301.045L301.715 29.8137H304.126L300.498 21.3865L297.748 21.3937ZM299.087 23.3478L300.275 26.2934H297.899L299.087 23.3478Z" fill="white"/>
<path d="M304.371 29.8137V21.3865H307.056L310.483 26.6849V21.3865H312.592V29.8137H309.993L306.48 24.3859V29.8173L304.371 29.8137Z" fill="white"/>
<path d="M262.385 44.5559V36.1287H269.274V38.011H264.523V39.455H269.166V41.2295H264.523V42.7239H269.274V44.5559H262.385Z" fill="white"/>
<path d="M296.128 44.5559V36.1287H303.018V38.011H298.266V39.455H302.888V41.2295H298.266V42.7239H303.018V44.5559H296.128Z" fill="white"/>
<path d="M269.541 44.5559L272.896 40.3961L269.462 36.1287H272.118L274.163 38.7653L276.215 36.1287H278.77L275.379 40.3387L278.742 44.5487H276.085L274.098 41.9551L272.161 44.5487L269.541 44.5559Z" fill="white"/>
<path d="M278.994 36.136V44.5632H281.161V41.905H283.385C285.264 41.905 286.69 40.9064 286.69 38.9738C286.69 37.3717 285.574 36.1432 283.659 36.1432H278.994V36.136ZM281.161 38.0398H283.5C284.105 38.0398 284.544 38.4134 284.544 39.0097C284.544 39.5701 284.112 39.9796 283.493 39.9796H281.161V38.0398Z" fill="white"/>
<path d="M287.597 36.1287V44.5559H289.706V41.56H290.592L293.126 44.5559H295.703L292.924 41.4522C293.565 41.389 294.158 41.0882 294.588 40.6093C295.017 40.1304 295.25 39.5083 295.242 38.8659C295.242 37.0914 293.846 36.1358 292.291 36.1358L287.597 36.1287ZM289.713 38.0181H292.125C292.701 38.0181 293.126 38.4707 293.126 38.9018C293.126 39.4622 292.579 39.7855 292.154 39.7855H289.713V38.0181Z" fill="white"/>
<path d="M303.997 44.556V42.724H308.223C308.849 42.724 309.116 42.3863 309.116 42.0199C309.116 41.6679 308.849 41.3087 308.223 41.3087H306.315C304.659 41.3087 303.73 40.3029 303.73 38.787C303.73 37.4363 304.58 36.136 307.042 36.136H311.153L310.267 38.0362H306.711C306.034 38.0362 305.825 38.3955 305.825 38.7331C305.825 39.0851 306.085 39.4659 306.603 39.4659H308.604C310.455 39.4659 311.254 40.5148 311.254 41.887C311.254 43.3598 310.361 44.5668 308.504 44.5668H303.997V44.556Z" fill="white"/>
<path d="M311.743 44.556V42.724H315.969C316.595 42.724 316.862 42.3863 316.862 42.0199C316.862 41.6679 316.595 41.3087 315.969 41.3087H314.061C312.406 41.3087 311.477 40.3029 311.477 38.787C311.477 37.4363 312.326 36.136 314.788 36.136H318.899L318.014 38.0362H314.457C313.781 38.0362 313.572 38.3955 313.572 38.7331C313.572 39.0851 313.831 39.4659 314.349 39.4659H316.351C318.201 39.4659 319 40.5148 319 41.887C319 43.3598 318.107 44.5668 316.25 44.5668H311.743V44.556Z" fill="white"/>
</g>
</svg>
