<svg width="335" height="204" viewBox="0 0 335 204" fill="none" xmlns="http://www.w3.org/2000/svg">
<defs>
<linearGradient id="paint0_linear_433_167490" x1="167.798" y1="-42.7179" x2="76.5628" y2="243.045" gradientUnits="userSpaceOnUse">
<stop stop-color="#0CA68A"/>
<stop offset="1" stop-color="#69CE9D"/>
</linearGradient>
</defs>
<rect width="335" height="204" rx="24" fill="url(#paint0_linear_433_167490)"/>
<mask id="mask0_433_167490" style="mask-type:alpha" maskUnits="userSpaceOnUse" x="0" y="0" width="335" height="204">
<rect width="335" height="204" rx="23" fill="#C4C4C4"/>
</mask>
<g mask="url(#mask0_433_167490)">
<path opacity="0.5" d="M304 126.181C304.68 127.487 305.632 130.708 304 133.145M308.487 123.679C309.507 125.746 310.935 131.034 308.487 135.648M312.464 121.067C313.79 123.86 315.646 131.143 312.464 137.933M316.748 119C318.447 122.301 320.827 131.121 316.748 140" stroke="white" stroke-width="2" stroke-linecap="round" stroke-linejoin="round"/>
<path d="M278.224 28.276L271.94 43.268H267.84L264.748 31.302C264.56 30.566 264.398 30.296 263.826 29.986C262.894 29.48 261.354 29.006 260 28.71L260.092 28.276H266.692C267.123 28.2756 267.541 28.4293 267.868 28.7095C268.196 28.9897 268.413 29.3779 268.48 29.804L270.114 38.48L274.15 28.276H278.224ZM294.29 38.374C294.306 34.416 288.818 34.198 288.856 32.43C288.868 31.892 289.38 31.32 290.5 31.174C291.813 31.0493 293.134 31.2815 294.326 31.846L295.006 28.666C293.846 28.2299 292.617 28.0044 291.378 28C287.544 28 284.846 30.04 284.822 32.958C284.798 35.116 286.748 36.318 288.218 37.038C289.73 37.772 290.238 38.244 290.23 38.9C290.22 39.908 289.026 40.35 287.91 40.368C285.96 40.398 284.83 39.842 283.926 39.422L283.224 42.706C284.13 43.122 285.802 43.486 287.536 43.502C291.61 43.502 294.276 41.49 294.29 38.374ZM304.412 43.268H308L304.87 28.276H301.558C301.204 28.2727 300.857 28.3758 300.563 28.572C300.268 28.7681 300.039 29.0482 299.906 29.376L294.088 43.268H298.16L298.97 41.028H303.946L304.412 43.268ZM300.086 37.956L302.126 32.326L303.302 37.956H300.086ZM283.766 28.276L280.56 43.268H276.68L279.89 28.276H283.766Z" fill="white"/>
</g>
</svg>
