<svg width="335" height="204" viewBox="0 0 335 204" fill="none" xmlns="http://www.w3.org/2000/svg">
<defs>
<linearGradient id="paint0_linear_433_167474" x1="167.798" y1="-42.7179" x2="76.5628" y2="243.045" gradientUnits="userSpaceOnUse">
<stop stop-color="#D74646"/>
<stop offset="0.9999" stop-color="#EB866C"/>
</linearGradient>
</defs>
<rect width="335" height="204" rx="24" fill="url(#paint0_linear_433_167474)"/>
<mask id="mask0_433_167474" style="mask-type:alpha" maskUnits="userSpaceOnUse" x="0" y="0" width="335" height="204">
<rect width="335" height="204" rx="23" fill="#C4C4C4"/>
</mask>
<g mask="url(#mask0_433_167474)">
<path opacity="0.5" d="M304 126.181C304.68 127.487 305.632 130.708 304 133.145M308.487 123.679C309.507 125.746 310.935 131.034 308.487 135.648M312.464 121.067C313.79 123.86 315.646 131.143 312.464 137.933M316.748 119C318.447 122.301 320.827 131.121 316.748 140" stroke="white" stroke-width="2" stroke-linecap="round" stroke-linejoin="round"/>
<path d="M282.189 54.7685V52.4531C282.189 51.5656 281.648 50.9868 280.721 50.9868C280.258 50.9868 279.755 51.1411 279.408 51.6428C279.137 51.2183 278.751 50.9868 278.172 50.9868C277.785 50.9868 277.399 51.1025 277.09 51.527V51.0639H276.318V54.7685H277.129V52.7233C277.129 52.0673 277.476 51.7585 278.017 51.7585C278.558 51.7585 278.828 52.1058 278.828 52.7233V54.7685H279.639V52.7233C279.639 52.0673 280.026 51.7585 280.528 51.7585C281.069 51.7585 281.339 52.1058 281.339 52.7233V54.7685H282.189ZM294.202 51.0639H292.888V49.9449H292.077V51.0639H291.343V51.7971H292.077V53.495C292.077 54.344 292.425 54.8456 293.352 54.8456C293.7 54.8456 294.086 54.7299 294.356 54.5755L294.124 53.8809C293.893 54.0353 293.622 54.0739 293.429 54.0739C293.043 54.0739 292.888 53.8423 292.888 53.4565V51.7971H294.202V51.0639ZM301.039 50.9868C300.575 50.9868 300.266 51.2183 300.073 51.527V51.0639H299.262V54.7685H300.073V52.6847C300.073 52.0673 300.343 51.72 300.845 51.72C301 51.72 301.193 51.7585 301.348 51.7971L301.579 51.0254C301.425 51.0254 301.193 50.9868 301.039 50.9868ZM290.687 51.3727C290.3 51.1025 289.76 50.9868 289.18 50.9868C288.253 50.9868 287.635 51.4498 287.635 52.183C287.635 52.8004 288.099 53.1477 288.91 53.2635L289.296 53.3021C289.721 53.3793 289.953 53.495 289.953 53.688C289.953 53.9581 289.644 54.1511 289.103 54.1511C288.562 54.1511 288.137 53.9581 287.867 53.7652L287.481 54.3826C287.906 54.6913 288.485 54.8456 289.064 54.8456C290.146 54.8456 290.764 54.344 290.764 53.6494C290.764 52.9934 290.262 52.6461 289.489 52.5303L289.103 52.4917C288.755 52.4531 288.485 52.376 288.485 52.1444C288.485 51.8743 288.755 51.72 289.18 51.72C289.644 51.72 290.107 51.9129 290.339 52.0287L290.687 51.3727ZM312.202 50.9868C311.738 50.9868 311.429 51.2183 311.236 51.527V51.0639H310.425V54.7685H311.236V52.6847C311.236 52.0673 311.506 51.72 312.009 51.72C312.163 51.72 312.356 51.7585 312.511 51.7971L312.742 51.0254C312.588 51.0254 312.356 50.9868 312.202 50.9868ZM301.85 52.9162C301.85 54.0353 302.622 54.8456 303.82 54.8456C304.361 54.8456 304.747 54.7299 305.133 54.4212L304.747 53.7652C304.438 53.9967 304.129 54.1125 303.781 54.1125C303.124 54.1125 302.661 53.6494 302.661 52.9162C302.661 52.2216 303.124 51.7585 303.781 51.72C304.129 51.72 304.438 51.8357 304.747 52.0673L305.133 51.4112C304.747 51.1025 304.361 50.9868 303.82 50.9868C302.622 50.9868 301.85 51.7971 301.85 52.9162ZM309.382 52.9162V51.0639H308.571V51.527C308.3 51.1797 307.914 50.9868 307.412 50.9868C306.369 50.9868 305.558 51.7971 305.558 52.9162C305.558 54.0353 306.369 54.8456 307.412 54.8456C307.953 54.8456 308.339 54.6527 308.571 54.3054V54.7685H309.382V52.9162ZM306.369 52.9162C306.369 52.2602 306.794 51.72 307.489 51.72C308.146 51.72 308.609 52.2216 308.609 52.9162C308.609 53.5722 308.146 54.1125 307.489 54.1125C306.794 54.1125 306.369 53.5722 306.369 52.9162ZM296.674 50.9868C295.592 50.9868 294.82 51.7585 294.82 52.9162C294.82 54.0739 295.592 54.8456 296.712 54.8456C297.253 54.8456 297.794 54.6913 298.219 54.344L297.833 53.7652C297.524 53.9967 297.137 54.1511 296.751 54.1511C296.249 54.1511 295.747 53.9195 295.631 53.2635H298.373C298.373 53.1477 298.373 53.0706 298.373 52.9548C298.451 51.7585 297.717 50.9868 296.674 50.9868ZM296.674 51.72C297.176 51.72 297.524 52.0287 297.601 52.6075H295.67C295.785 52.0673 296.094 51.72 296.674 51.72ZM316.837 52.9162V49.5976H316.026V51.527C315.755 51.1797 315.369 50.9868 314.867 50.9868C313.824 50.9868 313.013 51.7971 313.013 52.9162C313.013 54.0353 313.824 54.8456 314.867 54.8456C315.408 54.8456 315.794 54.6527 316.026 54.3054V54.7685H316.837V52.9162ZM313.824 52.9162C313.824 52.2602 314.249 51.72 314.944 51.72C315.601 51.72 316.064 52.2216 316.064 52.9162C316.064 53.5722 315.601 54.1125 314.944 54.1125C314.249 54.1125 313.824 53.5722 313.824 52.9162ZM286.708 52.9162V51.0639H285.897V51.527C285.627 51.1797 285.24 50.9868 284.738 50.9868C283.695 50.9868 282.884 51.7971 282.884 52.9162C282.884 54.0353 283.695 54.8456 284.738 54.8456C285.279 54.8456 285.665 54.6527 285.897 54.3054V54.7685H286.708V52.9162ZM283.734 52.9162C283.734 52.2602 284.159 51.72 284.854 51.72C285.511 51.72 285.974 52.2216 285.974 52.9162C285.974 53.5722 285.511 54.1125 284.854 54.1125C284.159 54.1125 283.734 53.5722 283.734 52.9162ZM318.15 54.2282C318.189 54.2282 318.266 54.2282 318.305 54.2668C318.343 54.2668 318.382 54.3054 318.421 54.344C318.459 54.3826 318.498 54.4212 318.498 54.4598C318.498 54.4983 318.536 54.5369 318.536 54.6141C318.536 54.6527 318.536 54.7299 318.498 54.7685C318.459 54.8071 318.459 54.8456 318.421 54.8842C318.382 54.9228 318.343 54.9614 318.305 54.9614C318.266 55 318.227 55 318.15 55C318.112 55 318.034 55 317.996 54.9614C317.957 54.9228 317.918 54.9228 317.88 54.8842C317.841 54.8456 317.803 54.8071 317.803 54.7685C317.764 54.7299 317.764 54.6913 317.764 54.6141C317.764 54.5755 317.764 54.4983 317.803 54.4598C317.841 54.4212 317.841 54.3826 317.88 54.344C317.918 54.3054 317.957 54.2668 317.996 54.2668C318.073 54.2282 318.112 54.2282 318.15 54.2282ZM318.15 54.8842C318.189 54.8842 318.227 54.8842 318.266 54.8456C318.305 54.8456 318.343 54.8071 318.343 54.7685C318.382 54.7299 318.382 54.7299 318.421 54.6913C318.421 54.6527 318.459 54.6141 318.459 54.5755C318.459 54.5369 318.459 54.4983 318.421 54.4598C318.421 54.4212 318.382 54.3826 318.343 54.3826C318.305 54.344 318.305 54.344 318.266 54.3054C318.227 54.3054 318.189 54.2668 318.15 54.2668C318.112 54.2668 318.073 54.2668 318.034 54.3054C317.996 54.3054 317.957 54.344 317.957 54.3826C317.918 54.4212 317.918 54.4212 317.88 54.4598C317.88 54.4983 317.841 54.5369 317.841 54.5755C317.841 54.6141 317.841 54.6527 317.88 54.6913C317.88 54.7299 317.918 54.7685 317.957 54.7685C317.996 54.8071 317.996 54.8071 318.034 54.8456C318.073 54.8842 318.112 54.8842 318.15 54.8842ZM318.189 54.4212C318.227 54.4212 318.266 54.4212 318.305 54.4598C318.343 54.4983 318.343 54.4983 318.343 54.5369C318.343 54.5755 318.343 54.5755 318.305 54.6141C318.305 54.6141 318.266 54.6527 318.227 54.6527L318.343 54.7685H318.266L318.15 54.6527H318.112V54.7685H318.034V54.4212H318.189ZM318.112 54.4983V54.5755H318.189H318.227C318.227 54.5755 318.227 54.5755 318.227 54.5369V54.4983H318.189H318.112ZM317.687 42.4972V42.0342H317.88V41.957H317.416V42.0342H317.609V42.4972H317.687ZM318.575 42.4972V41.957H318.421L318.266 42.3429L318.112 41.957H317.957V42.4972H318.073V42.0728L318.227 42.4201H318.343L318.498 42.0728V42.4972H318.575ZM295.283 45.1985C295.399 45.2756 295.515 45.3914 295.631 45.4686C293.429 46.935 290.764 47.7839 287.944 47.7839C280.219 47.7839 274 41.5711 274 33.892C274 26.2128 280.219 20 287.906 20C290.764 20 293.391 20.849 295.592 22.3153C295.476 22.3925 295.361 22.5083 295.245 22.5854C291.961 25.441 290.107 29.5314 290.107 33.892C290.107 38.2139 292 42.3429 295.283 45.1985ZM305.094 20C302.236 20 299.609 20.849 297.408 22.3153C297.524 22.3925 297.639 22.5083 297.755 22.5854C301.039 25.441 302.893 29.5314 302.893 33.892C302.893 38.2139 301 42.3429 297.755 45.1985C297.639 45.2756 297.524 45.3914 297.408 45.4686C299.609 46.935 302.275 47.7839 305.094 47.7839C312.781 47.7839 319 41.5711 319 33.892C319 26.2128 312.781 20 305.094 20ZM296.481 22.9713C296.288 23.1257 296.133 23.2415 295.94 23.3958C293.043 25.9427 291.189 29.7244 291.189 33.892C291.189 38.0595 293.043 41.8412 295.979 44.3881C296.133 44.5424 296.326 44.6968 296.519 44.8126C296.712 44.6582 296.867 44.5424 297.06 44.3881C299.957 41.8412 301.811 38.0595 301.811 33.892C301.811 29.7244 299.957 25.9427 297.021 23.3958C296.867 23.28 296.674 23.1257 296.481 22.9713Z" fill="white"/>
</g>
</svg>
