<svg width="335" height="204" viewBox="0 0 335 204" fill="none" xmlns="http://www.w3.org/2000/svg">
<defs>
<linearGradient id="paint0_linear_512_167235" x1="167.798" y1="-42.7179" x2="76.5628" y2="243.045" gradientUnits="userSpaceOnUse">
<stop stop-color="#D96A42"/>
<stop offset="1" stop-color="#E59B3F"/>
</linearGradient>
</defs>
<rect width="335" height="204" rx="24" fill="url(#paint0_linear_512_167235)"/>
<mask id="mask0_512_167235" style="mask-type:alpha" maskUnits="userSpaceOnUse" x="0" y="0" width="335" height="204">
<rect width="335" height="204" rx="23" fill="#C4C4C4"/>
</mask>
<g mask="url(#mask0_512_167235)">
<path opacity="0.5" d="M304 126.181C304.68 127.487 305.632 130.708 304 133.145M308.487 123.679C309.507 125.746 310.935 131.034 308.487 135.648M312.464 121.067C313.79 123.86 315.646 131.143 312.464 137.933M316.748 119C318.447 122.301 320.827 131.121 316.748 140" stroke="white" stroke-width="2" stroke-linecap="round" stroke-linejoin="round"/>
</g>
<path fill-rule="evenodd" clip-rule="evenodd" d="M282.087 20C280.079 21.357 279.699 23.4468 279.237 25.5094C278.857 27.2599 278.437 28.9969 278.03 30.761C278.708 31.0459 278.912 30.761 279.047 30.1367C279.509 28.0741 279.997 26.0658 280.472 23.976C280.653 22.8183 281.259 21.7699 282.173 21.0367C283.087 20.3036 284.242 19.9386 285.412 20.0136H297.625L296.919 20.5835C296 21.2865 295.349 22.2823 295.073 23.4061C294.49 25.8622 293.934 28.3048 293.336 30.8288L294.151 31.0052C294.693 28.6848 295.236 26.405 295.765 24.1253C295.932 22.9063 296.565 21.7999 297.533 21.04C298.5 20.2802 299.726 19.9267 300.949 20.0543H313.61C314.09 19.9677 314.585 20.0122 315.042 20.1832C315.5 20.3542 315.902 20.6454 316.208 21.026C316.513 21.4066 316.711 21.8626 316.779 22.346C316.847 22.8293 316.784 23.3221 316.595 23.7724C314.469 32.9367 312.33 42.11 310.177 51.2923C309.933 52.3425 309.34 53.2787 308.494 53.947C307.648 54.6153 306.6 54.976 305.522 54.9697H292.414C291.942 55.0296 291.463 54.9677 291.023 54.7901C290.582 54.6124 290.194 54.3248 289.896 53.9547C289.598 53.5846 289.4 53.1443 289.321 52.6759C289.241 52.2074 289.283 51.7264 289.442 51.2787C289.591 50.5866 289.754 49.9217 289.971 48.9175C289.523 49.1482 289.089 49.2297 289.048 49.4061C288.743 50.4102 288.574 51.4508 288.546 52.5C288.73 53.3662 289.046 54.1991 289.483 54.9697H277.161C276.676 55.0417 276.181 54.9848 275.725 54.805C275.269 54.6252 274.869 54.3286 274.563 53.9451C274.258 53.5616 274.059 53.1046 273.986 52.6199C273.914 52.1353 273.97 51.64 274.149 51.1837C275.031 47.2892 275.94 43.4217 276.863 39.5407L276.944 39.0386C276.374 38.8079 276.13 39.0386 275.994 39.5407C275.089 43.4489 274.185 47.357 273.28 51.2651C273.11 51.9386 273.139 52.6467 273.363 53.3042C273.587 53.9616 273.996 54.5401 274.542 54.9697H264.297C261.718 54.9697 260.565 53.6127 261.149 51.0752C263.247 41.9381 265.351 32.81 267.459 23.691C267.688 22.6336 268.278 21.6887 269.127 21.0179C269.976 20.3471 271.031 19.9921 272.113 20.0136H282.087V20ZM302.686 40.3549L302.958 40.4363C303.175 41.5626 304.016 41.332 304.708 41.2641C304.979 41.2641 305.21 40.8027 305.359 40.6534C305.007 40.1514 304.789 39.8257 304.477 39.405C303.12 39.405 301.763 39.5407 300.311 39.6357C300.026 39.6357 299.836 39.9342 299.497 39.5136C299.158 39.0929 298.059 39.5136 297.869 40.1106C297.34 41.9154 296.824 43.7067 296.24 45.5386C295.994 46.1209 295.704 46.6834 295.372 47.2213L295.494 47.4656C297.163 46.8142 298.792 48.1848 300.528 47.4656C302.143 48.3612 303.053 47.2756 303.894 45.9593C304.315 47.547 304.464 47.6555 305.346 47.6963C306.228 47.737 306.011 47.1399 306.079 46.9499L305.468 45.7286C305.292 45.4165 305.102 45.1044 304.83 44.6566C305.282 44.6321 305.735 44.6321 306.187 44.6566C306.906 44.6566 307.123 44.3852 307.069 43.7067L305.549 43.6388C305.454 42.7297 306.038 42.7297 306.608 42.7975C307.408 42.8925 307.734 42.5532 307.666 41.7119C306.228 41.7119 304.789 41.7119 303.351 41.7119C302.564 41.7119 302.32 42.024 302.36 42.7975H304.016C304.097 43.8017 303.46 43.7203 302.863 43.6795C302.265 43.6388 301.668 43.6795 301.777 44.6159L303.256 44.738C302.912 45.2921 302.531 45.8225 302.116 46.3257C301.899 46.5699 301.478 46.6242 301.153 46.7735C301.044 46.38 300.786 45.9457 300.868 45.6065C301.248 44.1681 301.696 42.7432 302.225 41.3184C302.331 40.9765 302.486 40.6519 302.686 40.3549ZM273.497 28.9833C273.117 30.7338 272.764 32.4301 272.357 34.1127C272.274 34.6293 272.027 35.1052 271.652 35.4697C271.179 35.7667 270.615 35.8825 270.064 35.7954C269.426 35.6733 269.467 35.0219 269.548 34.4384C269.622 33.9226 269.722 33.4108 269.847 32.905L270.837 28.9697H268.544C268.164 30.6795 267.757 32.3622 267.418 34.0449C266.902 36.5418 267.757 37.4781 270.335 37.2881C270.659 37.2675 270.981 37.2267 271.299 37.166C271.798 37.1159 272.275 36.9336 272.681 36.6379C273.086 36.3421 273.406 35.9436 273.606 35.4833C274.311 33.3664 274.868 31.1816 275.506 28.9562L273.497 28.9833ZM296.349 28.9833C295.711 31.6973 295.06 34.4113 294.408 37.2338H296.43C296.553 36.6639 296.675 36.1618 296.783 35.6461C297.082 34.2891 297.082 34.2891 298.452 34.2891C299.343 34.3237 300.216 34.0309 300.906 33.4659C301.596 32.9008 302.056 32.1028 302.198 31.2223C302.292 30.9699 302.323 30.6979 302.286 30.4308C302.25 30.1637 302.148 29.9098 301.989 29.6919C301.83 29.474 301.62 29.2989 301.377 29.1823C301.134 29.0657 300.866 29.0113 300.596 29.024C299.199 28.9019 297.801 28.9697 296.349 28.9697V28.9833ZM289.985 46.475C290.202 45.7286 290.405 45.118 290.568 44.3988C290.579 44.2981 290.611 44.201 290.662 44.1133C290.713 44.0257 290.781 43.9495 290.863 43.8896C290.944 43.8296 291.037 43.7873 291.136 43.7651C291.235 43.743 291.337 43.7416 291.437 43.761C292.222 43.8425 293.013 43.8425 293.798 43.761C294.036 43.7401 294.266 43.6687 294.475 43.5518C294.683 43.4348 294.864 43.2748 295.006 43.0825C295.508 41.9562 295.847 40.7484 296.363 39.3236L292.034 39.785C291.793 39.6519 291.538 39.5472 291.274 39.4729C290.853 39.4729 290.514 39.4729 290.351 40.0157C289.822 41.9019 289.225 43.7745 288.655 45.6472C288.031 47.7234 288.031 47.737 290.188 47.7098C291.165 47.7098 291.22 47.642 291.179 46.5428L289.985 46.475ZM305.332 41.1827C307.11 41.4269 307.368 41.3184 308.046 40.0699L311.289 34.3299L312.321 32.5386C310.502 32.0365 310.15 33.4885 309.43 34.7777C309.349 33.8278 309.295 33.1357 309.227 32.3758L307.408 32.7015C307.571 34.0585 307.802 35.4154 307.87 36.7724C307.938 38.1294 306.92 39.2015 306.133 40.2599C305.943 40.5177 305.672 40.7891 305.332 41.1827ZM306.621 32.4572C305.648 32.7484 304.61 32.7484 303.636 32.4572C303.46 32.3622 303.134 32.5251 302.89 32.62C302.236 32.9341 301.697 33.4439 301.347 34.0787C300.996 34.7134 300.853 35.4416 300.936 36.1618C300.966 36.5001 301.123 36.8147 301.374 37.0433C301.625 37.272 301.953 37.398 302.293 37.3967C303.351 37.3967 304.423 37.3967 305.482 37.3967C305.902 35.7004 306.255 34.1534 306.621 32.4572ZM279.332 37.2338C279.441 36.6503 279.536 36.1347 279.644 35.619L280.011 33.9906C280.269 32.6336 279.672 32.0908 278.342 32.4708C278.113 32.5656 277.877 32.6427 277.636 32.7015C277.134 31.928 276.564 32.7015 276.035 32.5929C275.899 32.5929 275.601 32.8643 275.56 33.0543C275.261 34.4113 275.003 35.7683 274.732 37.1253H276.51C276.713 36.1482 276.876 35.2119 277.134 34.3163C277.202 34.0585 277.568 33.882 277.799 33.6785C277.88 33.9363 278.084 34.2213 278.057 34.4656C277.921 35.3476 277.717 36.2297 277.527 37.1795L279.332 37.2338ZM290.446 37.2338C290.65 36.2568 290.812 35.3069 291.07 34.3841C291.138 34.1399 291.504 33.9635 291.735 33.7599C291.83 34.0177 292.034 34.3027 291.993 34.547C291.871 35.429 291.654 36.3111 291.464 37.261H293.241C293.472 36.2161 293.73 35.2119 293.866 34.2077C293.934 33.7056 293.947 32.8507 293.649 32.715C293.35 32.5793 292.577 32.5929 292.02 32.6065C291.789 32.6065 291.504 33 291.423 32.4572C290.772 32.6472 289.686 32.6743 289.564 33.0543C289.183 34.4208 288.902 35.8131 288.723 37.2203L290.446 37.2338ZM285.371 37.3967C285.835 37.4049 286.295 37.3095 286.717 37.1176C287.14 36.9256 287.514 36.6419 287.813 36.287C288.112 35.9321 288.328 35.5151 288.445 35.0662C288.563 34.6173 288.579 34.1479 288.492 33.6921C288.448 33.3837 288.305 33.098 288.085 32.8777C287.865 32.6575 287.579 32.5147 287.271 32.4708C286.84 32.3556 286.388 32.3373 285.949 32.417C285.51 32.4968 285.094 32.6726 284.731 32.932C284.368 33.1914 284.067 33.5278 283.849 33.9173C283.631 34.3068 283.502 34.7396 283.471 35.1848C283.213 36.6232 283.851 37.3695 285.371 37.3831V37.3967ZM286.226 46.5699C286.429 45.0365 286.429 44.9958 287.827 44.9958C288.641 44.9958 288.533 44.453 288.682 43.8967H287.026C286.959 43.0146 287.474 42.9332 288.085 43.0146C288.696 43.096 289.238 42.8382 289.184 42.024C289.094 42.0125 289.003 42.0125 288.913 42.024C287.827 42.024 286.741 42.024 285.656 42.024C284.937 42.024 284.638 42.2547 284.706 42.9875L285.724 43.2046C285.398 43.5303 285.167 43.9509 284.964 43.9374C284.122 43.9374 284.136 44.453 284.027 45.023L284.882 45.118C284.869 45.273 284.847 45.4271 284.815 45.5793C284.245 47.8184 284.245 47.7777 286.538 47.7912C287.434 47.7912 287.501 47.3299 287.556 46.6378L286.226 46.5699ZM291.437 44.0324C291.437 44.8058 291.437 45.3894 291.437 45.9729C291.437 47.6827 291.437 47.642 293.079 47.6827C293.893 47.6827 294.096 47.357 294.042 46.6378L292.984 46.5428V45.5929C294.775 45.3622 294.883 45.2672 294.883 44.0866C294.395 44.0866 293.893 43.8695 293.635 44.548C293.635 44.6294 293.065 44.6294 293.065 44.548C292.794 43.6388 292.061 44.2902 291.437 44.0324ZM282.928 33.4071C282.472 33.4537 282.019 33.5262 281.571 33.6242C281.368 33.6242 281.083 33.8685 281.042 34.0449C280.784 35.0898 280.581 36.1347 280.364 37.2067H282.196L282.983 33.7328C282.972 33.6208 282.944 33.511 282.901 33.4071H282.928ZM289.605 40.0428H288.017C288.017 39.8257 288.017 39.6357 288.017 39.4729C287.121 39.3507 286.266 39.2286 285.9 40.3278C285.9 40.4635 285.629 40.5177 285.507 40.6399C285.384 40.762 284.977 41.1827 284.72 41.4676C284.787 41.4676 284.855 41.6305 284.923 41.7119C285.344 41.7119 285.859 41.7119 286.185 41.5219C286.903 41.1207 287.737 40.9816 288.546 41.1284C289.265 41.1827 289.578 40.8841 289.578 40.0428H289.605ZM282.345 31.6159L281.137 32.715C281.408 32.8914 281.761 33.285 281.951 33.2171C282.435 33.0135 282.891 32.749 283.308 32.4301L282.345 31.6159Z" fill="white"/>
<path fill-rule="evenodd" clip-rule="evenodd" d="M298.398 44.1139C299.131 43.8289 300.081 43.9239 299.932 42.7569C298.615 42.6076 298.588 42.6348 298.398 44.1139ZM300.597 40.6264C299.24 40.45 299.104 40.6264 299.117 41.902C299.782 41.6713 300.719 41.7799 300.597 40.6264ZM299.24 45.0231C297.883 44.8331 297.883 44.8331 297.693 46.1087C299.022 46.3394 299.036 46.3258 299.294 45.0231H299.24Z" fill="white"/>
<path fill-rule="evenodd" clip-rule="evenodd" d="M291.437 41.9155C292.21 40.8842 293.513 41.6713 294.151 40.7214C293.625 40.6399 293.095 40.59 292.563 40.5721C291.776 40.4635 291.437 40.8571 291.437 41.9155ZM293.784 42.499C292.291 42.0919 291.219 42.2412 291.247 42.8925C292.061 42.6483 292.943 43.1232 293.825 42.499H293.784Z" fill="white"/>
<path fill-rule="evenodd" clip-rule="evenodd" d="M298.398 44.114C298.588 42.6349 298.615 42.6077 299.932 42.757C300.081 43.924 299.131 43.829 298.398 44.114Z" fill="white"/>
<path fill-rule="evenodd" clip-rule="evenodd" d="M300.596 40.6263C300.719 41.7797 299.782 41.6711 299.117 41.9018C299.104 40.5584 299.226 40.4498 300.596 40.6263Z" fill="white"/>
<path fill-rule="evenodd" clip-rule="evenodd" d="M299.294 45.0232C299.036 46.3802 299.022 46.3802 297.747 46.1088C297.991 44.8332 297.991 44.8332 299.294 45.0232Z" fill="white"/>
<path fill-rule="evenodd" clip-rule="evenodd" d="M297.408 33.0135C297.652 31.9822 297.842 31.1138 298.045 30.2046C298.199 30.1926 298.353 30.1926 298.507 30.2046C299.158 30.2046 299.864 30.096 300.067 31.0595C300.105 31.4827 299.988 31.9051 299.739 32.2492C299.489 32.5932 299.124 32.8357 298.71 32.9321C298.278 32.9884 297.843 33.0156 297.408 33.0135Z" fill="white"/>
<path fill-rule="evenodd" clip-rule="evenodd" d="M291.437 41.9154C291.437 40.8569 291.736 40.4634 292.59 40.5584C293.118 40.577 293.643 40.6268 294.165 40.7076C293.554 41.6711 292.251 40.8841 291.437 41.9154Z" fill="white"/>
<path fill-rule="evenodd" clip-rule="evenodd" d="M293.825 42.499C292.943 43.1232 292.061 42.6483 291.288 42.8925C291.26 42.2547 292.332 42.0919 293.825 42.499Z" fill="white"/>
<path fill-rule="evenodd" clip-rule="evenodd" d="M304.437 34.2622C304.294 34.8408 304.108 35.4078 303.88 35.9584C303.758 36.1619 303.351 36.2298 303.08 36.3519C302.985 36.1077 302.781 35.8498 302.808 35.6191C302.856 35.0988 302.989 34.5899 303.202 34.1129C303.272 33.9822 303.373 33.8706 303.496 33.7878C303.619 33.705 303.76 33.6536 303.907 33.6379C304.124 33.6515 304.287 34.045 304.437 34.2622Z" fill="white"/>
<path fill-rule="evenodd" clip-rule="evenodd" d="M286.782 34.262C286.606 34.834 286.397 35.3958 286.158 35.9446C286.076 36.0342 285.975 36.1039 285.862 36.1486C285.749 36.1932 285.628 36.2117 285.507 36.2025C285.412 36.2025 285.222 35.8225 285.249 35.6461C285.331 35.0709 285.477 34.5065 285.683 33.9634C285.778 33.7599 286.172 33.6649 286.43 33.5156C286.538 33.7599 286.66 34.0041 286.782 34.262Z" fill="white"/>
</svg>
