<svg width="335" height="204" viewBox="0 0 335 204" fill="none" xmlns="http://www.w3.org/2000/svg">
<defs>
<linearGradient id="paint0_linear_433_167481" x1="167.798" y1="-42.7179" x2="76.5628" y2="243.045" gradientUnits="userSpaceOnUse">
<stop stop-color="#9042BC"/>
<stop offset="1" stop-color="#D24D5A"/>
</linearGradient>
<clipPath id="clip0_433_167481">
<rect width="72" height="50" fill="white" transform="translate(247 20)"/>
</clipPath>
</defs>
<rect width="335" height="204" rx="24" fill="url(#paint0_linear_433_167481)"/>
<mask id="mask0_433_167481" style="mask-type:alpha" maskUnits="userSpaceOnUse" x="0" y="0" width="335" height="204">
<rect width="335" height="204" rx="23" fill="#C4C4C4"/>
</mask>
<g mask="url(#mask0_433_167481)">
<path opacity="0.5" d="M304 126.181C304.68 127.487 305.632 130.708 304 133.145M308.487 123.679C309.507 125.746 310.935 131.034 308.487 135.648M312.464 121.067C313.79 123.86 315.646 131.143 312.464 137.933M316.748 119C318.447 122.301 320.827 131.121 316.748 140" stroke="white" stroke-width="2" stroke-linecap="round" stroke-linejoin="round"/>
</g>
<g clip-path="url(#clip0_433_167481)">
<path fill-rule="evenodd" clip-rule="evenodd" d="M301.027 34.7201C301.027 42.6026 293.842 49.0811 285.969 49.0428H279.195C271.228 49.0811 264.672 42.6026 264.672 34.7201C264.672 26.1018 271.228 20.1472 279.195 20.1472H285.969C293.842 20.1443 301.027 26.1018 301.027 34.7201ZM282.22 26.7435V42.3937C283.799 41.7881 285.158 40.7158 286.117 39.3185C287.075 37.9213 287.588 36.2649 287.588 34.5686C287.588 32.8722 287.075 31.2159 286.117 29.8186C285.158 28.4213 283.799 27.349 282.22 26.7435ZM272.348 29.824C271.391 31.2208 270.878 32.8753 270.876 34.57H270.873C270.876 36.2644 271.389 37.9184 272.346 39.3143C273.303 40.7102 274.659 41.7827 276.235 42.3907V26.7435C274.66 27.3533 273.304 28.4272 272.348 29.824ZM271.903 23.5701C274.071 22.117 276.62 21.3417 279.228 21.3423C280.959 21.3423 282.673 21.6844 284.272 22.3492C285.872 23.014 287.325 23.9884 288.549 25.2168C289.773 26.4451 290.743 27.9034 291.405 29.5082C292.068 31.1131 292.408 32.8331 292.408 34.57C292.408 37.1864 291.635 39.7439 290.186 41.9193C288.737 44.0947 286.678 45.7901 284.269 46.7912C281.86 47.7923 279.209 48.0541 276.652 47.5434C274.094 47.0328 271.745 45.7727 269.902 43.9224C268.058 42.0722 266.803 39.715 266.295 37.1488C265.786 34.5827 266.048 31.923 267.046 29.506C268.044 27.089 269.734 25.0233 271.903 23.5701Z" fill="white"/>
<path d="M249.951 58.9032C249.951 60.0806 250.79 60.216 251.535 60.216C254.824 60.216 255.903 57.7258 255.903 55.4506C255.903 52.5925 254.076 50.5321 251.139 50.5321C250.514 50.5321 250.227 50.5762 249.966 50.5939L249.951 58.9032ZM248.452 51.733C248.452 50.3584 247.739 50.4467 247.053 50.435V50.0376C247.639 50.067 248.255 50.067 248.851 50.067C249.49 50.067 250.356 50.0376 251.491 50.0376C255.434 50.0376 257.581 52.6867 257.581 55.3829C257.581 56.8958 256.701 60.6987 251.306 60.6987C250.532 60.6987 249.816 60.6692 249.1 60.6692C248.385 60.6692 247.745 60.684 247.047 60.6987V60.3013C247.959 60.2101 248.402 60.1806 248.446 59.1416L248.452 51.733Z" fill="white"/>
<path d="M259.737 51.371C259.635 51.3774 259.533 51.3628 259.437 51.3281C259.341 51.2933 259.253 51.2392 259.178 51.169C259.104 51.0988 259.044 51.0141 259.004 50.92C258.963 50.8259 258.942 50.7244 258.942 50.6219C258.942 50.5194 258.963 50.418 259.004 50.3239C259.044 50.2298 259.104 50.145 259.178 50.0748C259.253 50.0046 259.341 49.9505 259.437 49.9158C259.533 49.881 259.635 49.8664 259.737 49.8728C259.933 49.8735 260.12 49.9509 260.259 50.0884C260.398 50.226 260.479 50.4127 260.482 50.6087C260.482 50.8083 260.404 51 260.265 51.1426C260.126 51.2851 259.936 51.3672 259.737 51.371ZM258.106 60.3073H258.4C258.825 60.3073 259.13 60.3073 259.13 59.8039V55.6655C259.13 54.9914 258.901 54.9002 258.338 54.5941V54.3498C259.054 54.1349 259.907 53.8464 259.966 53.8023C260.049 53.7516 260.144 53.7242 260.242 53.7228C260.315 53.7228 260.347 53.817 260.347 53.9377V59.8039C260.347 60.3073 260.682 60.3073 261.11 60.3073H261.368V60.7046C260.849 60.7046 260.315 60.6752 259.77 60.6752C259.224 60.6752 258.672 60.6899 258.109 60.7046L258.106 60.3073Z" fill="white"/>
<path d="M262.812 55.7568C262.812 55.1917 262.645 55.0386 261.932 54.7472V54.4529C262.614 54.2436 263.285 53.9979 263.941 53.717C263.988 53.717 264.032 53.7494 264.032 53.8701V54.865C264.912 54.238 265.646 53.717 266.672 53.717C267.963 53.717 268.432 54.6648 268.432 55.8569V59.7982C268.432 60.3015 268.767 60.3015 269.195 60.3015H269.468V60.6989C268.934 60.6989 268.4 60.6694 267.855 60.6694C267.309 60.6694 266.757 60.6841 266.209 60.6989V60.3015H266.485C266.91 60.3015 267.212 60.3015 267.212 59.7982V55.854C267.212 54.9709 266.684 54.5559 265.813 54.5559C265.326 54.5559 264.551 54.9533 264.053 55.2888V59.8099C264.053 60.3133 264.387 60.3133 264.815 60.3133H265.088V60.7106C264.557 60.7106 264.023 60.6812 263.475 60.6812C262.926 60.6812 262.378 60.6959 261.829 60.7106V60.3133H262.105C262.53 60.3133 262.835 60.3133 262.835 59.8099L262.812 55.7568Z" fill="white"/>
<path d="M273.302 56.0011C273.683 56.0011 273.727 55.801 273.727 55.6185C273.727 54.8385 273.255 54.2144 272.404 54.2144C271.474 54.2144 270.835 54.9003 270.644 56.0011H273.302ZM270.609 56.4897C270.573 56.783 270.573 57.0795 270.609 57.3727C270.697 58.8238 271.627 60.0218 272.844 60.0218C273.683 60.0218 274.337 59.5626 274.898 58.9975L275.112 59.2124C274.411 60.1425 273.542 60.9372 272.296 60.9372C269.872 60.9372 269.385 58.5825 269.385 57.6082C269.385 54.6118 271.395 53.7258 272.46 53.7258C273.695 53.7258 275.021 54.5058 275.035 56.1247C275.043 56.2168 275.043 56.3093 275.035 56.4014L274.898 56.4927L270.609 56.4897Z" fill="white"/>
<path d="M275.387 60.3072H275.798C276.223 60.3072 276.529 60.3072 276.529 59.8039V55.5124C276.529 55.0385 275.965 54.9472 275.737 54.8236V54.594C276.848 54.1231 277.458 53.711 277.596 53.711C277.687 53.711 277.731 53.7581 277.731 53.9111V55.2857H277.764C278.145 54.697 278.784 53.711 279.711 53.711C279.823 53.7042 279.934 53.72 280.039 53.7574C280.144 53.7947 280.24 53.8529 280.323 53.9284C280.405 54.0039 280.471 54.0953 280.517 54.197C280.563 54.2987 280.589 54.4087 280.591 54.5204C280.597 54.6193 280.583 54.7183 280.55 54.8115C280.516 54.9048 280.465 54.9904 280.398 55.0634C280.331 55.1364 280.251 55.1952 280.161 55.2364C280.071 55.2776 279.974 55.3004 279.876 55.3034C279.403 55.3034 279.403 54.9355 278.87 54.9355C278.563 54.9773 278.283 55.1287 278.079 55.3618C277.875 55.5949 277.762 55.894 277.761 56.2041V59.7921C277.761 60.2954 278.054 60.2954 278.491 60.2954H279.342V60.6928C278.503 60.6781 277.875 60.6634 277.212 60.6634C276.549 60.6634 275.948 60.6781 275.399 60.6928L275.387 60.3072Z" fill="white"/>
<path d="M281.249 58.5825C281.448 59.5891 282.055 60.4457 283.167 60.4457C284.065 60.4457 284.399 59.8953 284.399 59.3625C284.399 57.5582 281.081 58.138 281.081 55.6803C281.081 54.8237 281.768 53.7229 283.428 53.7229C284.032 53.7374 284.625 53.8894 285.162 54.1674L285.271 55.7244H284.918C284.766 54.7619 284.235 54.2144 283.258 54.2144C282.651 54.2144 282.085 54.5647 282.085 55.2211C282.085 57.0107 285.605 56.4573 285.605 58.8562C285.605 59.8658 284.798 60.9343 282.985 60.9343C282.333 60.9166 281.696 60.7387 281.128 60.4162L280.961 58.6502L281.249 58.5825Z" fill="white"/>
<path d="M299.366 52.8075H298.987C298.694 51.0208 297.433 50.3026 295.728 50.3026C293.968 50.3026 291.434 51.48 291.434 55.1446C291.434 58.2322 293.628 60.4427 295.972 60.4427C296.714 60.443 297.431 60.1755 297.993 59.6892C298.554 59.2028 298.923 58.5301 299.031 57.7937L299.383 57.8849L299.031 60.116C298.392 60.5134 296.685 60.9255 295.667 60.9255C292.105 60.9255 289.853 58.6208 289.853 55.1828C289.853 52.051 292.639 49.8022 295.623 49.8022C296.855 49.8022 298.043 50.2026 299.213 50.6146L299.366 52.8075Z" fill="white"/>
<path d="M299.915 60.3073H300.208C300.633 60.3073 300.938 60.3073 300.938 59.8039V51.2945C300.938 50.3026 300.71 50.2731 300.132 50.1024V49.8581C300.673 49.6872 301.199 49.4675 301.701 49.2017C301.805 49.1319 301.917 49.0755 302.035 49.0339C302.126 49.0339 302.159 49.1252 302.159 49.2488V59.8039C302.159 60.3073 302.493 60.3073 302.918 60.3073H303.177V60.7046C302.66 60.7046 302.126 60.6752 301.578 60.6752C301.029 60.6752 300.484 60.6899 299.917 60.7046L299.915 60.3073Z" fill="white"/>
<path d="M309.692 59.8658C309.692 60.1396 309.859 60.1602 310.117 60.1602C310.299 60.1602 310.528 60.1455 310.727 60.1455V60.4692C309.985 60.5722 309.252 60.7296 308.533 60.9402L308.457 60.896V59.651C307.545 60.4015 306.843 60.9343 305.761 60.9343C304.94 60.9343 304.086 60.4015 304.086 59.1182V55.2064C304.086 54.809 304.027 54.4264 303.174 54.3499V54.0555C303.722 54.0408 304.934 53.9466 305.136 53.9466C305.339 53.9466 305.306 54.0555 305.306 54.3911V58.3323C305.306 58.7915 305.306 60.0984 306.629 60.0984C307.149 60.0984 307.832 59.701 308.472 59.1682V55.0474C308.472 54.7531 307.741 54.5765 307.195 54.4234V54.1468C308.562 54.0555 309.416 53.9319 309.569 53.9319C309.721 53.9319 309.692 54.0408 309.692 54.2086V59.8658Z" fill="white"/>
<path d="M312.728 58.9798C312.749 59.389 312.921 59.7755 313.212 60.0636C313.502 60.3517 313.889 60.5205 314.297 60.5369C315.926 60.5369 316.612 58.9327 316.612 57.5728C316.612 55.9245 315.365 54.5499 314.177 54.5499C313.611 54.5499 313.142 54.9179 312.728 55.2681V58.9798ZM312.728 54.8237C313.338 54.3056 314.16 53.7228 314.999 53.7228C316.759 53.7228 317.829 55.2681 317.829 56.9312C317.829 58.9327 316.363 60.9342 314.189 60.9342C313.451 60.9334 312.725 60.7505 312.074 60.4015L311.619 60.7517L311.299 60.584C311.438 59.684 311.509 58.7748 311.511 57.8642V51.2945C311.511 50.3026 311.282 50.2731 310.704 50.1024V49.8581C311.246 49.6872 311.771 49.4675 312.273 49.2017C312.378 49.1324 312.49 49.0761 312.608 49.0339C312.699 49.0339 312.728 49.1252 312.728 49.2488V54.8237Z" fill="white"/>
<path d="M247.035 69.5879H247.152C247.446 69.5879 247.766 69.5467 247.766 69.114V64.7607C247.766 64.328 247.452 64.2839 247.152 64.2839H247.035V64.0366C247.361 64.0366 247.857 64.069 248.264 64.069C248.672 64.069 249.174 64.0366 249.564 64.0366V64.2839H249.446C249.153 64.2839 248.833 64.328 248.833 64.7607V69.114C248.833 69.5467 249.15 69.5879 249.446 69.5879H249.564V69.8381C249.165 69.8381 248.666 69.8057 248.255 69.8057C247.845 69.8057 247.361 69.8381 247.035 69.8381V69.5879Z" fill="white"/>
<path d="M249.529 69.8027V69.6261H249.447C249.153 69.6261 248.798 69.5731 248.798 69.114V64.7606C248.798 64.3015 249.153 64.2485 249.447 64.2485H249.529V64.0719C249.144 64.0719 248.666 64.1043 248.264 64.1043C247.862 64.1043 247.384 64.0748 247.073 64.0719V64.2485H247.153C247.446 64.2485 247.801 64.3015 247.801 64.7606V69.114C247.801 69.5731 247.449 69.6261 247.153 69.6261H247.073V69.8027C247.393 69.8027 247.862 69.7704 248.247 69.7704C248.631 69.7704 249.127 69.7998 249.52 69.8027H249.529ZM249.555 69.8734C249.153 69.8734 248.657 69.841 248.247 69.841C247.836 69.841 247.352 69.8734 247.026 69.8734H246.991V69.5525H247.144C247.437 69.5525 247.73 69.5202 247.73 69.114V64.7606C247.73 64.3544 247.452 64.3279 247.144 64.3221H246.991V63.9983H247.026C247.352 63.9983 247.851 64.0336 248.256 64.0336C248.66 64.0336 249.162 63.9983 249.555 63.9983H249.59V64.3221H249.438C249.144 64.3221 248.851 64.3544 248.851 64.7606V69.114C248.851 69.5202 249.127 69.5467 249.438 69.5525H249.59V69.8734H249.555Z" fill="white"/>
<path d="M255.255 68.2163L255.272 68.1986V65.0668C255.287 64.9657 255.279 64.8625 255.249 64.7649C255.219 64.6672 255.167 64.5776 255.098 64.5025C255.029 64.4275 254.944 64.3689 254.849 64.3311C254.754 64.2932 254.652 64.2771 254.551 64.2839H254.369V64.0366C254.756 64.0366 255.14 64.069 255.528 64.069C255.868 64.069 256.208 64.0366 256.546 64.0366V64.2839H256.422C256.073 64.2839 255.686 64.3516 255.686 65.3406V69.1229C255.682 69.4033 255.697 69.6836 255.733 69.9617H255.419L251.154 65.1904V68.6166C251.154 69.3377 251.295 69.5879 251.931 69.5879H252.072V69.8381C251.717 69.8381 251.362 69.8057 251.004 69.8057C250.646 69.8057 250.25 69.8381 249.878 69.8381V69.5879H249.992C250.564 69.5879 250.74 69.1994 250.74 68.5342V65.0315C250.74 64.9327 250.72 64.8349 250.682 64.7438C250.644 64.6527 250.588 64.57 250.518 64.5006C250.448 64.4311 250.365 64.3762 250.274 64.339C250.182 64.3018 250.085 64.2831 249.986 64.2839H249.878V64.0366C250.192 64.0366 250.514 64.069 250.831 64.069C251.077 64.069 251.318 64.0366 251.567 64.0366L255.255 68.2163Z" fill="white"/>
<path d="M255.252 68.2015L255.278 68.175L255.252 68.2015ZM255.416 69.9263H255.692C255.658 69.6599 255.643 69.3914 255.648 69.1228V65.3405C255.648 64.3427 256.065 64.2485 256.419 64.2485H256.507V64.0719C256.182 64.0719 255.853 64.1042 255.525 64.1042C255.146 64.1042 254.777 64.0748 254.401 64.0719V64.2485H254.548C254.654 64.2429 254.76 64.2607 254.858 64.3007C254.957 64.3407 255.045 64.4019 255.117 64.4799C255.189 64.558 255.244 64.651 255.276 64.7524C255.308 64.8538 255.318 64.9611 255.305 65.0667V68.2074L255.287 68.225L255.261 68.2515L251.576 64.0719C251.33 64.0719 251.089 64.1042 250.837 64.1042C250.544 64.1042 250.224 64.0748 249.922 64.0719V64.2485H249.995C250.099 64.2473 250.201 64.2668 250.297 64.3058C250.393 64.3448 250.48 64.4026 250.554 64.4757C250.627 64.5488 250.685 64.6359 250.725 64.7318C250.764 64.8277 250.785 64.9306 250.784 65.0344V68.5341C250.784 69.1993 250.599 69.6232 250.004 69.6261H249.922V69.8057C250.283 69.8057 250.652 69.7733 251.013 69.7733C251.374 69.7733 251.705 69.8027 252.046 69.8057V69.6291H251.94C251.289 69.6291 251.127 69.3347 251.127 68.6195V65.0873L255.416 69.9263ZM255.73 69.997H255.39L251.186 65.2875V68.6195C251.186 69.3406 251.306 69.5466 251.928 69.5555H252.107V69.8763H252.069C251.711 69.8763 251.353 69.8439 251.001 69.8439C250.649 69.8439 250.25 69.8763 249.875 69.8763H249.837V69.5555H249.992C250.538 69.5555 250.693 69.1993 250.702 68.537V65.0344C250.702 64.9401 250.683 64.8467 250.647 64.7597C250.611 64.6727 250.558 64.5938 250.491 64.5275C250.424 64.4613 250.345 64.409 250.258 64.3737C250.171 64.3384 250.077 64.3209 249.983 64.3221H249.837V64.0012H249.875C250.192 64.0012 250.514 64.0336 250.825 64.0336C251.072 64.0336 251.312 64.0012 251.591 64.013L255.231 68.1338V65.0667C255.231 64.4074 254.788 64.3279 254.548 64.3221H254.328V64.0012H254.366C254.756 64.0012 255.138 64.0336 255.525 64.0336C255.862 64.0336 256.202 64.0012 256.543 64.0012H256.581V64.3221H256.419C256.079 64.3221 255.727 64.3603 255.718 65.3405V69.1228C255.714 69.4012 255.73 69.6796 255.765 69.9558V69.997H255.73Z" fill="white"/>
<path d="M257.786 64.4516C257.165 64.4516 257.141 64.6017 257.018 65.2081H256.769C256.801 64.9756 256.842 64.743 256.868 64.5017C256.903 64.2678 256.919 64.0316 256.918 63.7952H257.118C257.185 64.0454 257.39 64.0366 257.616 64.0366H261.888C262.113 64.0366 262.319 64.0366 262.336 63.7776L262.536 63.8129C262.504 64.0366 262.468 64.2603 262.445 64.484C262.421 64.7077 262.427 64.9343 262.427 65.158L262.181 65.2493C262.163 64.955 262.122 64.4516 261.565 64.4516H260.218V68.8668C260.218 69.5084 260.512 69.582 260.905 69.582H261.063V69.8322C260.741 69.8322 260.16 69.7998 259.714 69.7998C259.218 69.7998 258.637 69.8322 258.312 69.8322V69.582H258.458C258.916 69.582 259.148 69.5408 259.148 68.8844V64.4516H257.786Z" fill="white"/>
<path d="M261.054 69.8734C260.729 69.8734 260.148 69.841 259.702 69.841C259.206 69.841 258.626 69.8734 258.303 69.8734H258.268V69.5525H258.458C258.916 69.5525 259.101 69.5349 259.11 68.8903V64.4751H257.787V64.4015H259.183V68.8785C259.183 69.5466 258.913 69.6143 258.458 69.6143H258.338V69.788C258.664 69.788 259.218 69.7586 259.702 69.7586C260.133 69.7586 260.688 69.788 261.016 69.788V69.6143H260.893C260.494 69.6143 260.171 69.5143 260.171 68.8608V64.4133H261.568C262.122 64.4133 262.196 64.8902 262.213 65.1992L262.392 65.1345C262.392 64.9166 262.392 64.6988 262.392 64.481C262.392 64.2632 262.448 64.0542 262.48 63.8423L262.354 63.8217C262.316 64.0631 262.081 64.0748 261.873 64.0719H257.578C257.385 64.0719 257.17 64.0719 257.097 63.8305H256.959C256.959 64.0561 256.942 64.2814 256.909 64.5046C256.886 64.7342 256.848 64.952 256.818 65.1727H256.994C257.106 64.584 257.176 64.4045 257.792 64.4133V64.4869C257.179 64.4869 257.206 64.6017 257.059 65.2169V65.2434H256.728V65.2022C256.76 64.9696 256.804 64.7371 256.827 64.4957C256.86 64.2637 256.877 64.0296 256.877 63.7952V63.7599H257.141V63.7864C257.197 63.9954 257.349 63.9954 257.561 63.9983H261.876C262.108 63.9983 262.275 63.9983 262.289 63.7746V63.7363H262.328L262.562 63.7746V63.8099C262.527 64.0336 262.495 64.2573 262.471 64.481C262.448 64.7047 262.454 64.9284 262.454 65.1521V65.1786H262.43L262.137 65.2846V65.2375C262.113 64.9255 262.081 64.4722 261.55 64.4722H260.227V68.8579C260.227 69.4848 260.482 69.529 260.876 69.5378H261.098V69.8586L261.054 69.8734Z" fill="white"/>
<path d="M262.8 69.5879H262.917C263.211 69.5879 263.528 69.5467 263.528 69.114V64.7607C263.528 64.328 263.214 64.2839 262.917 64.2839H262.8V64.0366C263.305 64.0366 264.167 64.069 264.854 64.069C265.54 64.069 266.411 64.0366 266.974 64.0366C266.974 64.3928 266.974 64.9432 266.992 65.3082L266.743 65.3759C266.702 64.8343 266.602 64.4016 265.731 64.4016H264.59V66.5797H265.575C266.071 66.5797 266.179 66.2854 266.229 65.8498H266.479C266.461 66.1736 266.452 66.4973 266.452 66.8211C266.452 67.1361 266.452 67.4539 266.479 67.7689L266.229 67.8189C266.179 67.3215 266.156 66.9948 265.584 66.9948H264.59V68.9315C264.59 69.4731 265.071 69.4731 265.599 69.4731C266.593 69.4731 267.033 69.4054 267.282 68.4577L267.514 68.5165C267.406 68.958 267.306 69.3996 267.221 69.8381C266.69 69.8381 265.737 69.8057 264.991 69.8057C264.246 69.8057 263.261 69.8381 262.788 69.8381L262.8 69.5879Z" fill="white"/>
<path d="M267.2 69.7998C267.273 69.3818 267.367 68.9609 267.47 68.5429L267.306 68.5017C267.056 69.4319 266.578 69.5143 265.598 69.5084C265.076 69.5084 264.554 69.5084 264.554 68.9197V66.9476H265.584C266.17 66.9476 266.22 67.292 266.261 67.7659L266.44 67.7276C266.423 67.4333 266.417 67.1154 266.417 66.8093C266.417 66.5031 266.417 66.1852 266.44 65.8703H266.261C266.214 66.3059 266.08 66.6091 265.575 66.6032H264.554V64.3544H265.728C266.59 64.3544 266.734 64.793 266.772 65.3169L266.948 65.2698C266.948 65.0344 266.924 64.7341 266.924 64.4545C266.924 64.3132 266.924 64.1778 266.924 64.0601C266.361 64.0601 265.522 64.0925 264.842 64.0925C264.161 64.0925 263.322 64.063 262.815 64.0601V64.2367H262.897C263.19 64.2367 263.542 64.2897 263.545 64.7489V69.1022C263.545 69.5614 263.19 69.6114 262.897 69.6143H262.815V69.788C263.299 69.788 264.255 69.7586 264.982 69.7586C265.71 69.7586 266.646 69.788 267.18 69.788L267.2 69.7998ZM267.212 69.8616C266.678 69.8616 265.728 69.8292 264.982 69.8292C264.237 69.8292 263.252 69.8616 262.779 69.8616H262.744V69.5408H262.897C263.19 69.5408 263.469 69.5084 263.483 69.1022V64.7606C263.483 64.3544 263.208 64.3279 262.897 64.3221H262.744V64.0012H262.779C263.284 64.0012 264.146 64.0336 264.833 64.0336C265.519 64.0336 266.388 64.0012 266.954 64.0012H266.989V64.0365C266.989 64.1631 266.989 64.3103 266.989 64.4663C266.989 64.7606 266.989 65.055 267.012 65.3052V65.3346H266.983L266.69 65.4111V65.367C266.643 64.8283 266.569 64.4369 265.716 64.428H264.619V66.5326H265.569C266.044 66.5326 266.132 66.2824 266.188 65.835V65.8026H266.505V65.8615C266.487 66.1852 266.479 66.509 266.479 66.8328C266.479 67.1566 266.487 67.4715 266.505 67.7776V67.8071H266.476L266.182 67.863V67.8247C266.124 67.3185 266.121 67.0388 265.572 67.033H264.619V68.9344C264.619 69.4377 265.053 69.4377 265.593 69.4377C266.59 69.4377 266.992 69.3848 267.241 68.4517V68.4193H267.273L267.54 68.487V68.5223C267.435 68.9609 267.335 69.4054 267.247 69.841V69.8704L267.212 69.8616Z" fill="white"/>
<path d="M269.691 66.8447H270.095C270.926 66.8447 271.371 66.5297 271.371 65.5495C271.383 65.3873 271.36 65.2243 271.304 65.0718C271.247 64.9193 271.158 64.7808 271.044 64.6658C270.929 64.5507 270.791 64.4618 270.639 64.405C270.487 64.3483 270.325 64.325 270.163 64.3369C270.005 64.3383 269.847 64.3491 269.691 64.3692V66.8447ZM268.632 64.9167C268.632 64.3104 268.3 64.2868 268.045 64.2868H267.895V64.0366C268.162 64.0366 268.676 64.069 269.18 64.069C269.685 64.069 270.075 64.0366 270.515 64.0366C271.556 64.0366 272.486 64.331 272.486 65.5083C272.486 66.256 271.988 66.7122 271.333 66.98L272.75 69.1052C272.826 69.2539 272.941 69.3791 273.083 69.4672C273.225 69.5554 273.387 69.6032 273.554 69.6056V69.8558C273.281 69.8558 273.014 69.8234 272.741 69.8234C272.469 69.8234 272.219 69.8558 271.964 69.8558C271.329 68.9984 270.752 68.0985 270.239 67.1625H269.694V68.9286C269.694 69.5703 269.987 69.5938 270.371 69.5938H270.524V69.844C270.048 69.844 269.57 69.8116 269.098 69.8116C268.699 69.8116 268.309 69.844 267.895 69.844V69.5938H268.045C268.353 69.5938 268.632 69.4555 268.632 69.1464V64.9167Z" fill="white"/>
<path d="M270.095 66.8092C270.917 66.8092 271.33 66.5149 271.336 65.5494C271.348 65.3918 271.326 65.2334 271.271 65.0852C271.216 64.937 271.13 64.8023 271.019 64.6905C270.908 64.5787 270.773 64.4924 270.626 64.4374C270.478 64.3825 270.32 64.3602 270.163 64.3721C270.017 64.3717 269.871 64.3815 269.726 64.4015V66.8092H270.095ZM269.691 66.8799H269.655V64.3368H269.688C269.845 64.3177 270.004 64.3079 270.163 64.3073C270.329 64.2966 270.496 64.3214 270.652 64.3803C270.808 64.4392 270.949 64.5307 271.067 64.6487C271.185 64.7668 271.277 64.9087 271.336 65.065C271.395 65.2214 271.42 65.3885 271.41 65.5553C271.41 66.5473 270.932 66.8858 270.095 66.8858L269.691 66.8799ZM269.691 67.1095H270.257V67.1271C270.766 68.0527 271.331 68.9463 271.949 69.8027C272.202 69.8027 272.469 69.7703 272.727 69.7703C272.985 69.7703 273.246 69.7968 273.504 69.7998V69.6202C273.338 69.6126 273.178 69.5616 273.038 69.4722C272.898 69.3829 272.783 69.2584 272.706 69.111L271.266 66.9446L271.307 66.9299C271.952 66.6738 272.433 66.2294 272.436 65.4994C272.436 64.3456 271.539 64.0777 270.5 64.0719C270.063 64.0719 269.664 64.1042 269.166 64.1042C268.667 64.1042 268.189 64.0748 267.916 64.0719V64.2485H268.03C268.288 64.2485 268.655 64.2926 268.655 64.9166V69.1404C268.655 69.473 268.341 69.6261 268.03 69.6261H267.916V69.7998C268.315 69.7998 268.693 69.7703 269.089 69.7703C269.553 69.7703 270.022 69.7998 270.48 69.7998V69.6261H270.368C269.99 69.6261 269.652 69.579 269.652 68.9226V67.1095H269.691ZM273.551 69.8733C273.258 69.8733 273.011 69.841 272.739 69.841C272.466 69.841 272.222 69.8733 271.932 69.8586C271.299 69.0064 270.726 68.1114 270.216 67.1801H269.726V68.9226C269.726 69.5496 269.987 69.5437 270.371 69.5525H270.556V69.8733H270.518C270.046 69.8733 269.564 69.841 269.092 69.841C268.699 69.841 268.309 69.8733 267.892 69.8733H267.845V69.5525H268.03C268.324 69.5525 268.579 69.4201 268.582 69.1404V64.9166C268.582 64.3279 268.288 64.3279 268.03 64.3279H267.845V64.0042H267.881C268.151 64.0042 268.661 64.0395 269.166 64.0395C269.67 64.0395 270.046 64.0042 270.5 64.0042C271.545 64.0042 272.504 64.2985 272.507 65.5053C272.507 66.2529 272.014 66.7239 271.374 66.977L272.765 69.0698C272.838 69.2144 272.95 69.336 273.088 69.4211C273.225 69.5063 273.384 69.5518 273.545 69.5525H273.575V69.8704L273.551 69.8733Z" fill="white"/>
<path d="M279.175 68.2163L279.192 68.1986V65.0668C279.207 64.9657 279.199 64.8625 279.169 64.7649C279.138 64.6672 279.087 64.5776 279.018 64.5025C278.949 64.4275 278.864 64.3689 278.769 64.3311C278.674 64.2932 278.572 64.2771 278.471 64.2839H278.289V64.0366C278.679 64.0366 279.057 64.069 279.462 64.069C279.8 64.069 280.14 64.0366 280.48 64.0366V64.2839H280.357C280.008 64.2839 279.618 64.3516 279.618 65.3406V69.1229C279.613 69.4034 279.629 69.6838 279.668 69.9617H279.354L275.088 65.1904V68.6166C275.088 69.3377 275.226 69.5879 275.866 69.5879H276.007V69.8381C275.652 69.8381 275.294 69.8057 274.939 69.8057C274.584 69.8057 274.185 69.8381 273.812 69.8381V69.5879H273.927C274.499 69.5879 274.672 69.1994 274.672 68.5342V65.0315C274.672 64.9326 274.652 64.8346 274.614 64.7433C274.576 64.6521 274.521 64.5692 274.45 64.4997C274.38 64.4302 274.297 64.3753 274.206 64.3382C274.114 64.3012 274.016 64.2827 273.918 64.2839H273.812V64.0366C274.126 64.0366 274.449 64.069 274.763 64.069C275.012 64.069 275.253 64.0366 275.502 64.0366L279.175 68.2163Z" fill="white"/>
<path d="M279.175 68.2015L279.201 68.175L279.175 68.2015ZM279.342 69.9264H279.615C279.58 69.66 279.566 69.3914 279.571 69.1228V65.3405C279.571 64.3427 279.99 64.2514 280.345 64.2485H280.43V64.0719C280.105 64.0719 279.779 64.1043 279.448 64.1043C279.069 64.1043 278.7 64.0748 278.324 64.0719V64.2485H278.471C278.577 64.2434 278.682 64.2616 278.78 64.3018C278.878 64.3419 278.967 64.4031 279.039 64.4811C279.111 64.559 279.165 64.6518 279.198 64.753C279.23 64.8541 279.241 64.9612 279.228 65.0667V68.2074V68.2251L279.201 68.2515L275.514 64.0719C275.27 64.0719 275.03 64.1043 274.777 64.1043C274.484 64.1043 274.161 64.0748 273.859 64.0719V64.2485H273.933C274.036 64.2473 274.138 64.2667 274.234 64.3055C274.33 64.3443 274.417 64.4018 274.49 64.4747C274.563 64.5475 274.622 64.6342 274.661 64.7298C274.701 64.8253 274.722 64.9279 274.722 65.0314V68.5312C274.722 69.1993 274.534 69.6232 273.941 69.6261H273.859V69.7998C274.22 69.7998 274.587 69.7704 274.951 69.7704C275.314 69.7704 275.643 69.7998 275.986 69.7998V69.6261H275.88C275.229 69.6261 275.065 69.3318 275.065 68.6165V65.0991L279.342 69.9264ZM279.656 69.997H279.316L275.112 65.2875V68.6195C275.112 69.3406 275.229 69.5466 275.854 69.5555H276.03V69.8763H275.995C275.634 69.8763 275.279 69.8439 274.924 69.8439C274.569 69.8439 274.173 69.8763 273.801 69.8763H273.762V69.5555H273.915C274.461 69.5555 274.619 69.1993 274.625 68.5341V65.0314C274.625 64.9374 274.606 64.8444 274.569 64.7577C274.533 64.671 274.48 64.5925 274.413 64.5265C274.346 64.4606 274.267 64.4085 274.18 64.3735C274.093 64.3384 274 64.3209 273.906 64.3221H273.762V63.9983H273.801C274.114 63.9983 274.44 64.0336 274.751 64.0336C274.995 64.0336 275.235 63.9983 275.514 64.0101L279.154 68.1309V65.0667C279.154 64.4074 278.711 64.325 278.471 64.3221H278.254V63.9983H278.289C278.679 63.9983 279.06 64.0336 279.448 64.0336C279.788 64.0336 280.125 63.9983 280.468 63.9983H280.504V64.3221H280.345C280.002 64.3221 279.65 64.3603 279.641 65.3405V69.1228C279.636 69.4023 279.653 69.6818 279.691 69.9587V69.997H279.656Z" fill="white"/>
<path d="M283.012 64.9784H282.994L282.22 67.3332H283.769L283.012 64.9784ZM281.8 68.6607C281.719 68.8701 281.658 69.0869 281.618 69.3082C281.618 69.5584 281.968 69.6026 282.24 69.6026H282.331V69.8528C282 69.8351 281.66 69.8204 281.328 69.8204C280.997 69.8204 280.741 69.8351 280.433 69.8528V69.6026H280.483C280.645 69.6031 280.803 69.5505 280.933 69.4527C281.063 69.355 281.157 69.2174 281.202 69.061L282.531 65.2492C282.654 64.9126 282.752 64.5673 282.824 64.2161C283.086 64.1219 283.339 64.0026 283.578 63.8599C283.599 63.8499 283.622 63.844 283.646 63.8423C283.657 63.8405 283.668 63.842 283.679 63.8467C283.689 63.8514 283.698 63.8591 283.704 63.8688C283.728 63.9335 283.751 64.0101 283.778 64.0748L285.303 68.4223C285.403 68.7166 285.5 69.0109 285.596 69.2729C285.639 69.3808 285.716 69.4716 285.815 69.5312C285.914 69.5908 286.03 69.6159 286.145 69.6026H286.192V69.8528C285.819 69.8351 285.447 69.8204 285.051 69.8204C284.655 69.8204 284.229 69.8351 283.807 69.8528V69.6026H283.898C284.088 69.6026 284.411 69.5702 284.411 69.3612C284.379 69.159 284.323 68.9614 284.244 68.7725L283.921 67.81H282.041L281.8 68.6607Z" fill="white"/>
<path d="M282.974 64.9785H282.994H282.974ZM282.272 67.2832H283.722L283 65.055L282.272 67.2832ZM282.173 67.3538L282.965 64.9314H283.012V64.9785V64.9432H283.035L283.821 67.3656L282.173 67.3538ZM283.865 69.7998C284.276 69.7851 284.678 69.7704 285.074 69.7704C285.47 69.7704 285.819 69.7851 286.18 69.7998V69.6262C286.057 69.636 285.935 69.6069 285.829 69.543C285.724 69.4791 285.641 69.3836 285.593 69.27C285.488 69.0198 285.385 68.7108 285.3 68.4194L283.774 64.0719L283.704 63.8718H283.689C283.673 63.8693 283.656 63.8693 283.639 63.8718C283.409 64.0141 283.162 64.126 282.903 64.2044C282.828 64.5584 282.725 64.9059 282.595 65.2434L281.269 69.0698C281.22 69.2325 281.121 69.3752 280.985 69.4769C280.849 69.5787 280.685 69.6341 280.515 69.635V69.8086C280.809 69.7939 281.084 69.7792 281.372 69.7792C281.659 69.7792 282.02 69.7939 282.337 69.8086V69.635H282.284C282.011 69.635 281.636 69.5997 281.627 69.3083C281.663 69.0824 281.724 68.8613 281.809 68.6489H281.844H281.809L282.082 67.7659H283.98L284.311 68.7549C284.391 68.9505 284.447 69.1551 284.478 69.3642C284.478 69.6203 284.118 69.6379 283.93 69.6585H283.874L283.865 69.7998ZM286.212 69.8734C285.84 69.8587 285.464 69.841 285.071 69.841C284.678 69.841 284.253 69.8587 283.827 69.8734H283.792V69.5467H283.918C284.112 69.5467 284.396 69.5055 284.396 69.3436C284.363 69.142 284.308 68.9446 284.232 68.7549L283.915 67.813H282.088L281.832 68.6548C281.751 68.8613 281.689 69.0752 281.648 69.2936C281.648 69.4966 281.961 69.5437 282.234 69.5437H282.36V69.8705H282.322C281.991 69.8557 281.653 69.8381 281.322 69.8381C280.991 69.8381 280.735 69.8557 280.442 69.8705H280.404V69.5437H280.489C280.643 69.5444 280.793 69.4948 280.917 69.4025C281.041 69.3101 281.132 69.18 281.175 69.0316L282.501 65.2051C282.632 64.8608 282.742 64.5089 282.83 64.1514C283.092 64.0591 283.343 63.9397 283.581 63.7952C283.607 63.7854 283.635 63.7795 283.663 63.7776C283.681 63.7758 283.699 63.7792 283.715 63.7876C283.731 63.7959 283.745 63.8088 283.754 63.8247L283.827 64.0336L285.353 68.3811C285.452 68.6754 285.549 68.9698 285.646 69.2258C285.687 69.3255 285.76 69.4085 285.854 69.4618C285.947 69.5151 286.056 69.5356 286.162 69.5202H286.244V69.8469L286.212 69.8734Z" fill="white"/>
<path d="M286.582 64.4516C285.96 64.4516 285.933 64.6017 285.81 65.2081H285.561C285.593 64.9756 285.634 64.743 285.661 64.5017C285.693 64.2676 285.71 64.0316 285.71 63.7952H285.91C285.974 64.0454 286.183 64.0366 286.406 64.0366H290.683C290.903 64.0366 291.111 64.0366 291.129 63.7776L291.325 63.8129C291.296 64.0366 291.261 64.2603 291.237 64.484C291.214 64.7077 291.22 64.9343 291.22 65.158L290.97 65.2493C290.956 64.955 290.914 64.4516 290.357 64.4516H288.999V68.8668C288.999 69.5084 289.292 69.582 289.688 69.582H289.847V69.8322C289.524 69.8322 288.946 69.7998 288.497 69.7998C288.001 69.7998 287.421 69.8322 287.098 69.8322V69.582H287.253C287.711 69.582 287.943 69.5408 287.943 68.8844V64.4516H286.582Z" fill="white"/>
<path d="M289.847 69.8734C289.521 69.8734 288.943 69.841 288.497 69.841C288.002 69.841 287.421 69.8734 287.098 69.8734H287.06V69.5526H287.253C287.711 69.5526 287.893 69.5349 287.905 68.8903V64.4751H286.585V64.4016H287.978V68.8785C287.978 69.5467 287.708 69.6114 287.253 69.6144H287.133V69.791C287.459 69.791 288.013 69.7586 288.497 69.7586C288.931 69.7586 289.483 69.788 289.812 69.791V69.6144H289.688C289.289 69.6144 288.967 69.5172 288.967 68.8609V64.4133H290.36C290.917 64.4133 290.991 64.8902 291.005 65.1992L291.187 65.1345C291.187 64.9167 291.187 64.6988 291.205 64.481C291.223 64.2632 291.258 64.0542 291.287 63.8423L291.161 63.8217C291.126 64.0631 290.891 64.0748 290.686 64.0719H286.365C286.168 64.0719 285.957 64.0719 285.881 63.8305H285.74C285.74 64.0561 285.723 64.2814 285.69 64.5046C285.669 64.7342 285.628 64.9549 285.596 65.1727H285.775C285.884 64.5841 285.954 64.4045 286.576 64.4133V64.4869C285.96 64.4869 285.989 64.6017 285.84 65.2169V65.2434H285.52V65.2022C285.555 64.9696 285.596 64.7371 285.622 64.4957C285.655 64.2637 285.672 64.0296 285.672 63.7952V63.7599H285.933V63.7864C285.992 63.9954 286.145 63.9954 286.356 63.9983H290.674C290.9 63.9983 291.07 63.9983 291.082 63.7717V63.7334H291.12L291.357 63.7717V63.807C291.325 64.0307 291.293 64.2544 291.269 64.4781C291.246 64.7018 291.252 64.9255 291.252 65.1492V65.1757H291.228L290.935 65.2816V65.2345C290.915 64.9225 290.882 64.4693 290.348 64.4693H289.025V68.855C289.025 69.4819 289.283 69.5261 289.677 69.5349H289.87V69.8557L289.847 69.8734Z" fill="white"/>
<path d="M291.633 69.5879H291.748C292.041 69.5879 292.361 69.5467 292.361 69.114V64.7607C292.361 64.328 292.047 64.2839 291.748 64.2839H291.633V64.0366C291.956 64.0366 292.452 64.069 292.857 64.069C293.261 64.069 293.772 64.0366 294.159 64.0366V64.2839H294.045C293.751 64.2839 293.429 64.328 293.429 64.7607V69.114C293.429 69.5467 293.745 69.5879 294.045 69.5879H294.159V69.8381C293.763 69.8381 293.264 69.8057 292.851 69.8057C292.437 69.8057 291.971 69.8381 291.633 69.8381V69.5879Z" fill="white"/>
<path d="M294.121 69.7998V69.6261H294.045C293.751 69.6261 293.393 69.5731 293.393 69.114V64.7606C293.393 64.3015 293.745 64.2485 294.045 64.2485H294.121V64.0719C293.74 64.0719 293.261 64.1042 292.857 64.1042C292.452 64.1042 291.977 64.0748 291.683 64.0719V64.2485H291.762C292.056 64.2485 292.411 64.3015 292.411 64.7606V69.114C292.411 69.5731 292.059 69.6261 291.762 69.6261H291.683V69.7998C292.003 69.7998 292.472 69.7703 292.857 69.7703C293.241 69.7703 293.737 69.7998 294.127 69.7998H294.121ZM294.165 69.8734C293.766 69.8734 293.27 69.841 292.857 69.841C292.443 69.841 291.977 69.8734 291.639 69.8734H291.607V69.5525H291.759C292.053 69.5525 292.346 69.5202 292.346 69.114V64.7606C292.346 64.3544 292.07 64.3279 291.759 64.3221H291.607V64.0012H291.645C291.968 64.0012 292.466 64.0336 292.868 64.0336C293.27 64.0336 293.781 64.0012 294.171 64.0012H294.206V64.3221H294.056C293.763 64.3221 293.47 64.3544 293.47 64.7606V69.114C293.47 69.5202 293.743 69.5466 294.056 69.5525H294.206V69.8734H294.165Z" fill="white"/>
<path d="M297.588 69.5967C299.196 69.5967 299.478 68.175 299.478 66.9623C299.478 65.7496 298.823 64.2779 297.448 64.2779C295.998 64.2779 295.567 65.573 295.567 66.6856C295.567 68.175 296.245 69.5967 297.588 69.5967ZM297.474 63.9129C299.234 63.9129 300.648 65.0108 300.648 66.7798C300.667 67.1992 300.599 67.6179 300.449 68.0098C300.299 68.4016 300.07 68.7581 299.776 69.0569C299.482 69.3556 299.13 69.5902 298.741 69.7459C298.353 69.9016 297.936 69.9751 297.518 69.9617C295.758 69.9617 294.42 68.7666 294.42 66.977C294.414 66.573 294.489 66.1719 294.641 65.7974C294.792 65.423 295.017 65.0828 295.301 64.7971C295.586 64.5114 295.925 64.2859 296.298 64.134C296.672 63.9822 297.071 63.907 297.474 63.9129Z" fill="white"/>
<path d="M295.532 66.6857C295.532 65.5672 295.969 64.2398 297.447 64.2398C298.856 64.2398 299.501 65.7409 299.501 66.9624C299.501 68.184 299.208 69.6321 297.577 69.6321V69.5615C299.152 69.5615 299.425 68.1751 299.431 66.9624C299.436 65.7497 298.782 64.3133 297.436 64.3133C296.013 64.3133 295.594 65.579 295.591 66.6857C295.591 68.1575 296.265 69.5585 297.577 69.5615V69.6321C296.201 69.6321 295.523 68.184 295.523 66.6887L295.532 66.6857ZM294.35 66.983C294.344 66.5709 294.421 66.1619 294.576 65.7803C294.731 65.3987 294.961 65.0524 295.253 64.7622C295.545 64.472 295.892 64.2439 296.273 64.0914C296.655 63.9389 297.063 63.8652 297.474 63.8748V63.9484C297.076 63.9428 296.681 64.0174 296.312 64.1676C295.943 64.3178 295.608 64.5406 295.326 64.823C295.044 65.1053 294.822 65.4413 294.672 65.8113C294.522 66.1813 294.447 66.5777 294.452 66.9772C294.452 68.7432 295.778 69.9206 297.518 69.9206C297.931 69.9336 298.343 69.8607 298.727 69.7066C299.111 69.5526 299.459 69.3205 299.75 69.0252C300.04 68.7298 300.267 68.3773 300.415 67.99C300.564 67.6026 300.631 67.1887 300.613 66.7741C300.613 65.0257 299.228 63.9425 297.474 63.9425V63.8689C299.255 63.8689 300.68 64.9815 300.683 66.7741C300.702 67.1979 300.633 67.6211 300.48 68.017C300.328 68.4129 300.097 68.7731 299.8 69.0751C299.502 69.377 299.147 69.6142 298.754 69.7719C298.361 69.9295 297.941 70.0042 297.518 69.9912C295.758 69.9912 294.385 68.7815 294.382 66.9713" fill="white"/>
<path d="M306.219 68.2163L306.237 68.1986V65.0668C306.251 64.9657 306.243 64.8625 306.213 64.7649C306.183 64.6672 306.131 64.5776 306.062 64.5025C305.993 64.4275 305.908 64.3689 305.813 64.3311C305.718 64.2932 305.617 64.2771 305.515 64.2839H305.336V64.0366C305.723 64.0366 306.104 64.069 306.492 64.069C306.835 64.069 307.172 64.0366 307.513 64.0366V64.2839H307.386C307.04 64.2839 306.65 64.3516 306.65 65.3406V69.1229C306.645 69.4034 306.662 69.6838 306.7 69.9617H306.386L302.118 65.1904V68.6166C302.118 69.3377 302.259 69.5879 302.898 69.5879H303.048V69.8381C302.69 69.8381 302.335 69.8057 301.98 69.8057C301.625 69.8057 301.223 69.8381 300.851 69.8381V69.5879H300.968C301.555 69.5879 301.713 69.1994 301.713 68.5342V65.0315C301.713 64.9326 301.693 64.8346 301.655 64.7433C301.617 64.6521 301.562 64.5692 301.492 64.4997C301.422 64.4302 301.338 64.3753 301.247 64.3382C301.156 64.3012 301.058 64.2827 300.959 64.2839H300.851V64.0366C301.167 64.0366 301.49 64.069 301.804 64.069C302.053 64.069 302.291 64.0366 302.54 64.0366L306.219 68.2163Z" fill="white"/>
<path d="M306.219 68.2015L306.245 68.175L306.219 68.2015ZM306.386 69.9264H306.656C306.624 69.6598 306.61 69.3913 306.615 69.1228V65.3405C306.615 64.3427 307.034 64.2515 307.386 64.2485H307.477V64.0719C307.149 64.0719 306.823 64.1043 306.492 64.1043C306.113 64.1043 305.743 64.0749 305.368 64.0719V64.2485H305.515C305.621 64.243 305.727 64.2608 305.825 64.3008C305.924 64.3408 306.012 64.4019 306.085 64.4799C306.157 64.5579 306.212 64.6509 306.244 64.7523C306.277 64.8536 306.287 64.961 306.274 65.0668V68.2163L306.257 68.2339L306.23 68.2604L302.543 64.0807C302.3 64.0807 302.059 64.1131 301.807 64.1131C301.513 64.1131 301.191 64.0837 300.889 64.0807V64.2573H300.962C301.065 64.2562 301.167 64.2756 301.263 64.3144C301.359 64.3532 301.446 64.4107 301.519 64.4835C301.593 64.5563 301.651 64.6431 301.691 64.7386C301.731 64.8342 301.751 64.9367 301.751 65.0403V68.543C301.751 69.2082 301.566 69.632 300.971 69.635H300.889V69.8087C301.249 69.8087 301.619 69.7792 301.983 69.7792C302.346 69.7792 302.669 69.8087 303.015 69.8087V69.635H302.907C302.258 69.635 302.094 69.3406 302.094 68.6254V65.0933L306.386 69.9264ZM306.7 69.997H306.359L302.168 65.2728V68.6048C302.168 69.3259 302.285 69.532 302.907 69.5379H303.086V69.8616H303.048C302.69 69.8616 302.335 69.8293 301.98 69.8293C301.625 69.8293 301.226 69.8616 300.85 69.8616H300.818V69.5379H300.968C301.513 69.5379 301.672 69.1846 301.678 68.5224V65.0197C301.678 64.9255 301.659 64.8323 301.623 64.7455C301.586 64.6586 301.533 64.5799 301.466 64.5139C301.4 64.4479 301.32 64.3959 301.233 64.3609C301.146 64.326 301.053 64.3088 300.959 64.3103H300.818V63.9895H300.85C301.167 63.9895 301.493 64.0219 301.804 64.0219C302.05 64.0219 302.288 63.9895 302.569 64.0013L306.21 68.1221V65.0668C306.21 64.4075 305.767 64.328 305.523 64.3221H305.306V64.0013H305.342C305.732 64.0013 306.116 64.0337 306.515 64.0337C306.855 64.0337 307.193 64.0013 307.536 64.0013H307.571V64.3221H307.41C307.069 64.3221 306.717 64.3604 306.712 65.3405V69.1228C306.706 69.4023 306.721 69.6818 306.758 69.9588V69.997H306.7Z" fill="white"/>
<path d="M310.056 64.9784H310.038L309.267 67.3332H310.819L310.056 64.9784ZM308.844 68.6607C308.763 68.8701 308.702 69.0869 308.662 69.3082C308.662 69.5584 309.011 69.6026 309.284 69.6026H309.375V69.8528C309.044 69.8351 308.703 69.8204 308.372 69.8204C308.041 69.8204 307.785 69.8351 307.492 69.8528V69.6026H307.539C307.701 69.6031 307.859 69.5505 307.989 69.4528C308.118 69.355 308.213 69.2174 308.258 69.061L309.586 65.2492C309.711 64.9131 309.809 64.5676 309.88 64.2161C310.143 64.1217 310.396 64.0025 310.637 63.8599C310.657 63.8496 310.679 63.8436 310.701 63.8423C310.725 63.8423 310.742 63.8423 310.757 63.8688C310.772 63.8953 310.81 64.0101 310.833 64.0748L312.356 68.4223C312.455 68.7166 312.555 69.0109 312.649 69.2729C312.691 69.3805 312.767 69.4713 312.866 69.5309C312.965 69.5905 313.08 69.6157 313.195 69.6026H313.247V69.8528C312.872 69.8351 312.499 69.8204 312.103 69.8204C311.707 69.8204 311.282 69.8351 310.86 69.8528V69.6026H310.968C311.159 69.6026 311.482 69.5702 311.482 69.3612C311.449 69.159 311.393 68.9614 311.314 68.7725L310.995 67.81H309.114L308.844 68.6607Z" fill="white"/>
<path d="M310.02 64.9785H310.038H310.02ZM309.316 67.2832H310.766L310.044 65.058L309.316 67.2832ZM309.217 67.3539L310.012 64.9314H310.056V64.9785V64.9432H310.088L310.871 67.3656L309.217 67.3539ZM310.909 69.7999C311.32 69.7851 311.722 69.7704 312.118 69.7704C312.514 69.7704 312.863 69.7851 313.224 69.7999V69.6262H313.209C313.086 69.6394 312.962 69.6117 312.856 69.5474C312.75 69.483 312.668 69.3856 312.622 69.27C312.511 69.0198 312.414 68.7108 312.329 68.4194L310.804 64.0719L310.733 63.8747C310.718 63.8724 310.702 63.8724 310.686 63.8747C310.455 64.0171 310.207 64.1289 309.947 64.2073C309.876 64.5607 309.778 64.908 309.654 65.2464L308.328 69.0728C308.279 69.2355 308.179 69.3782 308.044 69.4799C307.908 69.5816 307.743 69.637 307.574 69.638V69.8116C307.867 69.7969 308.146 69.7822 308.433 69.7822C308.721 69.7822 309.082 69.7969 309.401 69.8116V69.638H309.346C309.076 69.638 308.697 69.6056 308.686 69.3083C308.726 69.0841 308.788 68.8643 308.87 68.6519H308.906H308.87L309.143 67.7689H311.077L311.408 68.7579C311.488 68.9535 311.544 69.1581 311.575 69.3672C311.575 69.6233 311.214 69.6409 311.027 69.6615H310.971L310.909 69.7999ZM313.256 69.8734C312.884 69.8587 312.511 69.8411 312.118 69.8411C311.725 69.8411 311.297 69.8587 310.874 69.8734H310.839V69.5497H310.968C311.162 69.5497 311.446 69.5055 311.446 69.3436C311.414 69.1417 311.359 68.9441 311.282 68.7549L310.965 67.813H309.137L308.882 68.6549C308.802 68.8605 308.741 69.0734 308.7 69.2906C308.7 69.4967 309.011 69.5467 309.287 69.5467H309.413V69.8705H309.375C309.044 69.8558 308.706 69.8381 308.375 69.8381C308.043 69.8381 307.788 69.8558 307.495 69.8705H307.448V69.5467H307.533C307.687 69.5462 307.837 69.4959 307.961 69.4031C308.085 69.3103 308.175 69.1801 308.219 69.0316L309.545 65.2052C309.673 64.8608 309.782 64.5101 309.874 64.1544C310.136 64.0593 310.388 63.939 310.628 63.7953C310.653 63.785 310.68 63.779 310.707 63.7776C310.725 63.7757 310.744 63.7794 310.76 63.7883C310.776 63.7973 310.79 63.811 310.798 63.8276C310.821 63.8924 310.845 63.9689 310.874 64.0337L312.397 68.3811C312.496 68.6755 312.596 68.9698 312.69 69.2288C312.729 69.33 312.801 69.4153 312.894 69.4712C312.987 69.5271 313.096 69.5506 313.203 69.5379H313.288V69.8617L313.256 69.8734Z" fill="white"/>
<path d="M315.348 69.0228C315.348 69.3583 315.58 69.4555 315.844 69.4908C316.208 69.517 316.574 69.5111 316.938 69.4731C317.094 69.4552 317.244 69.4061 317.381 69.3287C317.517 69.2514 317.637 69.1473 317.733 69.0228C317.852 68.8429 317.939 68.6437 317.991 68.4341H318.231C318.14 68.908 318.023 69.3731 317.938 69.847C317.211 69.847 316.471 69.8146 315.753 69.8146C315.034 69.8146 314.286 69.847 313.564 69.847V69.5968H313.679C313.972 69.5968 314.301 69.5555 314.301 69.0404V64.7607C314.301 64.328 313.978 64.2839 313.679 64.2839H313.564V64.0366C314.001 64.0366 314.444 64.069 314.873 64.069C315.301 64.069 315.709 64.0366 316.131 64.0366V64.2839H315.926C315.612 64.2839 315.362 64.2839 315.362 64.7342L315.348 69.0228Z" fill="white"/>
<path d="M317.894 69.7998C317.988 69.3494 318.097 68.9167 318.188 68.4605H318.009C317.956 68.6693 317.87 68.8682 317.753 69.0492C317.551 69.306 317.256 69.4722 316.932 69.5113C316.715 69.5319 316.501 69.5466 316.295 69.5466C316.137 69.5466 315.982 69.5466 315.832 69.529C315.562 69.4966 315.301 69.3818 315.301 69.0257V64.7341C315.301 64.272 315.594 64.2485 315.888 64.2485H316.061V64.0719C315.653 64.0719 315.251 64.1042 314.837 64.1042C314.424 64.1042 313.99 64.0748 313.564 64.0719V64.2485H313.644C313.937 64.2485 314.301 64.3015 314.301 64.7577V69.0315C314.301 69.5702 313.943 69.6202 313.644 69.6202H313.564V69.7939C314.28 69.7939 314.996 69.7645 315.718 69.7645C316.439 69.7645 317.155 69.7939 317.874 69.7939L317.894 69.7998ZM317.903 69.8675C317.173 69.8675 316.436 69.8351 315.718 69.8351C314.999 69.8351 314.251 69.8675 313.526 69.8675H313.494V69.5466H313.644C313.937 69.5466 314.23 69.5202 314.23 69.0257V64.7577C314.23 64.3544 313.937 64.3279 313.644 64.3221H313.494V64.0012H313.526C313.969 64.0012 314.406 64.0336 314.837 64.0336C315.269 64.0336 315.673 64.0012 316.096 64.0012H316.131V64.3221H315.888C315.568 64.3221 315.368 64.3221 315.363 64.7341V69.0227C315.363 69.3318 315.565 69.4171 315.826 69.4525C315.97 69.4525 316.119 69.4701 316.284 69.4701C316.448 69.4701 316.697 69.4701 316.911 69.4377C317.215 69.3992 317.492 69.2428 317.683 69.0021C317.799 68.8214 317.883 68.6224 317.932 68.4134V68.3869H318.243V68.4281C318.149 68.905 318.035 69.37 317.95 69.8439V69.8704L317.903 69.8675Z" fill="white"/>
<path d="M317.988 64.6841H318.094C318.205 64.6841 318.258 64.5988 318.258 64.4604C318.261 64.4364 318.26 64.4119 318.253 64.3886C318.246 64.3654 318.233 64.344 318.217 64.326C318.201 64.308 318.181 64.2938 318.159 64.2845C318.136 64.2752 318.112 64.2709 318.088 64.272H317.988V64.6841ZM317.695 65.1462V65.1021C317.803 65.1021 317.821 65.1021 317.821 65.0226V64.3751C317.821 64.2838 317.821 64.2544 317.698 64.2573V64.2132H318.147C318.299 64.2132 318.44 64.2868 318.44 64.4457C318.439 64.5063 318.419 64.5651 318.382 64.613C318.345 64.6608 318.293 64.6951 318.235 64.7106L318.378 64.9108C318.43 64.9898 318.494 65.0595 318.569 65.1168V65.1462H318.399C318.317 65.1462 318.246 64.9726 318.085 64.743H317.988V65.0373C317.988 65.0962 318.009 65.0933 318.117 65.108V65.1521L317.695 65.1462ZM318.129 65.3935C318.27 65.397 318.409 65.3582 318.528 65.2819C318.647 65.2057 318.741 65.0955 318.797 64.9655C318.854 64.8356 318.87 64.6917 318.845 64.5523C318.819 64.4129 318.753 64.2843 318.654 64.183C318.555 64.0817 318.428 64.0124 318.29 63.9837C318.151 63.9551 318.008 63.9686 317.877 64.0224C317.746 64.0762 317.635 64.1679 317.556 64.2858C317.478 64.4037 317.436 64.5424 317.437 64.6841C317.435 64.8702 317.507 65.0493 317.637 65.1823C317.767 65.3152 317.943 65.3912 318.129 65.3935ZM318.129 63.807C318.303 63.807 318.473 63.8588 318.618 63.9558C318.763 64.0528 318.875 64.1907 318.942 64.3521C319.009 64.5134 319.026 64.691 318.992 64.8623C318.958 65.0336 318.874 65.1909 318.751 65.3144C318.628 65.4379 318.471 65.522 318.301 65.5561C318.13 65.5901 317.953 65.5727 317.792 65.5058C317.631 65.439 317.494 65.3258 317.397 65.1806C317.3 65.0354 317.249 64.8646 317.249 64.69C317.246 64.5732 317.266 64.4569 317.309 64.3483C317.352 64.2397 317.417 64.141 317.499 64.0584C317.582 63.9757 317.68 63.9108 317.788 63.8676C317.897 63.8244 318.012 63.8037 318.129 63.807Z" fill="white"/>
</g>
</svg>
