<svg width="335" height="204" viewBox="0 0 335 204" fill="none" xmlns="http://www.w3.org/2000/svg">
<defs>
<linearGradient id="paint0_linear_512_167233" x1="167.798" y1="-42.7179" x2="76.5628" y2="243.045" gradientUnits="userSpaceOnUse">
<stop stop-color="#DC9449"/>
<stop offset="1" stop-color="#EBCD4D"/>
</linearGradient>
<clipPath id="clip0_512_167233">
<rect width="70" height="23.5" fill="white" transform="translate(249 20)"/>
</clipPath>
</defs>
<rect width="335" height="204" rx="24" fill="url(#paint0_linear_512_167233)"/>
<mask id="mask0_512_167233" style="mask-type:alpha" maskUnits="userSpaceOnUse" x="0" y="0" width="335" height="204">
<rect width="335" height="204" rx="23" fill="#C4C4C4"/>
</mask>
<g mask="url(#mask0_512_167233)">
<path opacity="0.5" d="M304 126.181C304.68 127.487 305.632 130.708 304 133.145M308.487 123.679C309.507 125.746 310.935 131.034 308.487 135.648M312.464 121.067C313.79 123.86 315.646 131.143 312.464 137.933M316.748 119C318.447 122.301 320.827 131.121 316.748 140" stroke="white" stroke-width="2" stroke-linecap="round" stroke-linejoin="round"/>
</g>
<g clip-path="url(#clip0_512_167233)">
<path d="M278.61 33.551H249V43.4813H278.61V33.551Z" fill="white"/>
<path d="M278.61 20H249V29.9397H278.61V20Z" fill="white"/>
<path d="M308.221 41.4595L308.089 41.4861C307.775 41.563 307.454 41.6045 307.131 41.6098C306.353 41.6098 305.443 41.212 305.443 39.3343C305.443 38.3697 305.599 37.0871 307.042 37.0871H307.052C307.41 37.1102 307.765 37.1786 308.106 37.2907L308.221 37.3267V41.4595ZM308.458 32.1039L308.221 32.1478V35.6181L308.01 35.5555L307.949 35.5383C307.525 35.4016 307.084 35.3241 306.639 35.308C303.755 35.308 303.149 37.5005 303.149 39.3437C303.149 41.8666 304.549 43.3183 307.008 43.3183C307.881 43.3429 308.752 43.2201 309.584 42.955C310.296 42.7248 310.552 42.3975 310.552 41.7022V31.75C309.866 31.8737 309.152 31.9974 308.458 32.1133" fill="white"/>
<path d="M316.793 41.5251L316.67 41.5611L316.231 41.677C315.884 41.7742 315.527 41.8304 315.167 41.8446C314.49 41.8446 314.086 41.5079 314.086 40.9332C314.086 40.5605 314.252 39.9325 315.36 39.9325H316.793V41.5251ZM315.781 35.2688C314.783 35.2867 313.793 35.4595 312.846 35.7809L312.107 36.0033L312.353 37.6852L313.075 37.4456C313.851 37.1945 314.66 37.0574 315.475 37.0384C315.786 37.0384 316.758 37.0384 316.758 38.0924V38.5512H315.413C312.96 38.5512 311.826 39.3342 311.826 41.0303C311.826 42.4726 312.873 43.3402 314.626 43.3402C315.284 43.3233 315.939 43.234 316.578 43.0739L316.612 43.0661L316.648 43.0739L316.867 43.11C317.553 43.2337 318.267 43.3574 318.959 43.4905V37.9671C318.959 36.1802 317.888 35.2688 315.777 35.2688" fill="white"/>
<path d="M299.711 41.5251L299.588 41.5611L299.148 41.677C298.801 41.775 298.444 41.8312 298.084 41.8446C297.407 41.8446 296.995 41.5079 296.995 40.9332C296.995 40.5605 297.161 39.9325 298.261 39.9325H299.694V41.5251H299.711ZM298.708 35.2688C297.709 35.286 296.719 35.4587 295.772 35.7809L295.033 36.0033L295.279 37.6852L296.001 37.4456C296.777 37.1944 297.586 37.0573 298.401 37.0384C298.712 37.0384 299.685 37.0384 299.685 38.0924V38.5512H298.339C295.886 38.5512 294.744 39.3342 294.744 41.0303C294.744 42.4726 295.789 43.3402 297.557 43.3402C298.215 43.3233 298.87 43.234 299.509 43.0739L299.545 43.0661L299.579 43.0739L299.79 43.11C300.484 43.2337 301.19 43.3574 301.883 43.4999V37.9765C301.892 36.1708 300.819 35.2688 298.708 35.2688Z" fill="white"/>
<path d="M290.453 35.2862C289.63 35.2963 288.819 35.4787 288.071 35.8218L287.982 35.8656L287.903 35.8046C287.436 35.4585 286.735 35.2815 285.767 35.2815C284.912 35.2844 284.062 35.4137 283.244 35.6652C282.497 35.8954 282.207 36.2587 282.207 36.9399V43.2511H284.54V37.4097L284.655 37.3753C284.984 37.2524 285.332 37.1893 285.683 37.1889C286.36 37.1889 286.704 37.5523 286.704 38.2601V43.2511H289.007V38.1708C289.01 37.9969 288.986 37.8236 288.936 37.6572L288.858 37.5006L289.014 37.4301C289.373 37.2693 289.763 37.1876 290.157 37.1905C290.624 37.1905 291.177 37.3769 291.177 38.2617V43.2526H293.472V38.0299C293.472 36.1804 292.487 35.2862 290.446 35.2862" fill="white"/>
<path d="M315.071 26.4788C314.614 26.4774 314.158 26.436 313.708 26.3551L313.576 26.3285V22.9208C313.579 22.7562 313.558 22.592 313.513 22.4337L313.443 22.2928L313.599 22.2301C313.635 22.2129 313.669 22.2035 313.714 22.1863L313.741 22.1691L313.896 22.1158C313.916 22.1065 313.937 22.1002 313.958 22.097C314.353 22.0052 314.757 21.9579 315.162 21.9561H315.172C316.604 21.9561 316.772 23.2402 316.772 24.2049C316.763 26.0842 315.839 26.4788 315.075 26.4788H315.071ZM315.061 20.0048H314.999C313.655 20.0048 312.274 20.3775 311.782 21.101C311.505 21.4837 311.356 21.9458 311.359 22.4196V25.9338C311.368 26.0849 311.344 26.2362 311.289 26.377L311.21 26.5336H306.965V24.0765H306.955C306.902 21.5004 305.39 20.0847 303.202 20.0847H301.064C300.977 20.7111 300.909 21.1558 300.819 21.7838H302.947C304.062 21.7838 304.658 22.7391 304.658 24.2096V26.6699L304.502 26.59C304.34 26.54 304.171 26.5162 304.001 26.5195H300.333C300.263 26.9893 300.178 27.5985 300.078 28.2093H311.376C311.763 28.1294 312.211 28.0527 312.599 27.9979C313.17 28.2798 314.234 28.4301 314.963 28.4301C317.416 28.4301 319.008 26.7748 319.008 24.2268C318.998 21.704 317.46 20.0486 315.069 19.9985" fill="white"/>
<path d="M295.253 29.2443H295.356C297.809 29.2443 298.952 28.4299 298.952 26.4254C298.952 24.9815 297.905 23.832 296.152 23.832H293.89C293.214 23.832 292.809 23.4421 292.809 22.7875C292.809 22.3443 292.977 21.7962 294.085 21.7962H299.025C299.131 21.1494 299.181 20.7422 299.28 20.0955H294.147C291.756 20.0955 290.552 21.1056 290.552 22.7875C290.552 24.4694 291.597 25.3182 293.352 25.3182H295.611C295.755 25.3162 295.898 25.3437 296.031 25.3988C296.164 25.454 296.285 25.5358 296.386 25.6393C296.487 25.7428 296.566 25.8657 296.619 26.0009C296.672 26.136 296.696 26.2804 296.692 26.4254C296.692 26.7965 296.525 27.567 295.426 27.567H295.045L287.81 27.5482H286.491C285.374 27.5482 284.591 26.9109 284.591 25.4341V24.4162C284.591 22.8752 285.198 21.9199 286.491 21.9199H288.636C288.732 21.2637 288.791 20.8487 288.881 20.2286H285.96C283.771 20.2286 282.259 21.7069 282.207 24.2831V25.4325C282.259 28.0087 283.771 29.2396 285.96 29.2396H288.097L292.017 29.2474H295.253V29.2443Z" fill="white"/>
</g>
</svg>
