<svg width="24" height="24" viewBox="0 0 24 24" fill="none" xmlns="http://www.w3.org/2000/svg">
<path d="M21.1406 17.5313C20.3962 16.7813 18.5934 15.6867 17.7187 15.2456C16.5797 14.6719 16.4859 14.625 15.5906 15.2902C14.9934 15.7341 14.5964 16.1306 13.8975 15.9816C13.1986 15.8325 11.6798 14.992 10.35 13.6664C9.02015 12.3408 8.13093 10.778 7.9814 10.0814C7.83187 9.38485 8.23499 8.9925 8.67468 8.39391C9.29437 7.55016 9.24749 7.40953 8.71781 6.27047C8.30484 5.38453 7.17843 3.59859 6.42562 2.85797C5.62031 2.0625 5.62031 2.20313 5.1014 2.41875C4.67895 2.5965 4.27366 2.81255 3.89062 3.06422C3.14062 3.5625 2.72437 3.97641 2.43327 4.59844C2.14218 5.22047 2.0114 6.67875 3.51468 9.40969C5.01796 12.1406 6.07265 13.537 8.25562 15.7139C10.4386 17.8908 12.1172 19.0613 14.5711 20.4375C17.6067 22.1377 18.7711 21.8063 19.395 21.5156C20.0189 21.225 20.4347 20.8125 20.9339 20.0625C21.1862 19.6801 21.4028 19.2753 21.5808 18.8531C21.7969 18.3361 21.9375 18.3361 21.1406 17.5313Z" stroke="black" stroke-width="1.5" stroke-miterlimit="10"/>
</svg>
