<svg width="28" height="28" viewBox="0 0 28 28" fill="none" xmlns="http://www.w3.org/2000/svg">
<path d="M2.33334 23.3333V22.1667C2.33334 17.6563 5.98969 14 10.5 14" stroke="black" stroke-width="1.5" stroke-linecap="round" stroke-linejoin="round"/>
<path d="M24.1108 18.2778C23.3888 16.4465 21.7402 15.1667 19.8219 15.1667C17.7704 15.1667 16.0273 16.6303 15.3962 18.6667" stroke="black" stroke-width="1.5" stroke-linecap="round" stroke-linejoin="round"/>
<path d="M22.1609 18.401H23.8001C24.1868 18.401 24.5001 18.0875 24.5001 17.701V15.8083" stroke="black" stroke-width="1.5" stroke-linecap="round" stroke-linejoin="round"/>
<path d="M15.5559 21.3888C16.2778 23.2202 17.9265 24.5 19.8449 24.5C21.8964 24.5 23.6394 23.0364 24.2704 21" stroke="black" stroke-width="1.5" stroke-linecap="round" stroke-linejoin="round"/>
<path d="M17.5057 21.2657H15.8667C15.48 21.2657 15.1667 21.5792 15.1667 21.9657V23.8584" stroke="black" stroke-width="1.5" stroke-linecap="round" stroke-linejoin="round"/>
<path d="M10.5 14C13.0773 14 15.1667 11.9106 15.1667 9.33334C15.1667 6.75601 13.0773 4.66667 10.5 4.66667C7.92268 4.66667 5.83334 6.75601 5.83334 9.33334C5.83334 11.9106 7.92268 14 10.5 14Z" stroke="black" stroke-width="1.5" stroke-linecap="round" stroke-linejoin="round"/>
</svg>
