<svg width="28" height="28" viewBox="0 0 28 28" fill="none" xmlns="http://www.w3.org/2000/svg">
<path d="M24.0567 18.2091C24.8477 15.4776 24.5214 12.5435 23.1493 10.053C21.7772 7.56195 19.4719 5.71803 16.7405 4.92674C16.7066 3.86999 16.1232 2.90775 15.2021 2.38895C14.281 1.87035 13.1557 1.87035 12.2346 2.38895C11.3135 2.90777 10.7301 3.86993 10.6962 4.92674C7.97292 5.7276 5.67738 7.57414 4.31191 10.0626C2.94616 12.551 2.62107 15.4789 3.40801 18.2064C2.49476 18.7839 1.95898 19.8046 2.00246 20.8842C2.04593 21.9638 2.66221 22.9381 3.61871 23.4405C4.57548 23.9425 5.72748 23.8962 6.64073 23.3187C8.59965 25.0465 11.1218 26 13.7342 26C16.3463 26 18.8687 25.0465 20.8276 23.3187C21.7403 23.8956 22.8914 23.9417 23.8473 23.4398C24.8032 22.938 25.4187 21.964 25.462 20.8853C25.5053 19.8063 24.9697 18.7863 24.0571 18.2094L24.0567 18.2091ZM13.7324 2.87547C14.2864 2.8746 14.8183 3.094 15.2106 3.48517C15.6029 3.87657 15.8236 4.40777 15.824 4.96181C15.8247 5.51586 15.6051 6.04751 15.2134 6.43956C14.822 6.83183 14.2906 7.05211 13.7366 7.05255C13.1825 7.05277 12.6511 6.83293 12.259 6.44112C11.8672 6.0495 11.647 5.51808 11.647 4.96404C11.6478 4.41086 11.8677 3.88051 12.2586 3.48912C12.6493 3.09773 13.1793 2.87703 13.7325 2.87552L13.7324 2.87547ZM2.89043 20.7903C2.89043 20.2362 3.11049 19.705 3.50231 19.3134C3.89393 18.9216 4.42513 18.7016 4.97917 18.7016C5.533 18.7016 6.0642 18.9216 6.45581 19.3134C6.84764 19.7051 7.06768 20.2363 7.06768 20.7903C7.06768 21.3441 6.84763 21.8753 6.45581 22.2669C6.06419 22.6588 5.53299 22.8788 4.97917 22.8788C4.42513 22.8788 3.89392 22.6588 3.50231 22.2669C3.11047 21.8753 2.89043 21.3441 2.89043 20.7903ZM7.3326 22.6949C7.81075 22.0999 8.04578 21.3461 7.99078 20.5848C7.93579 19.8236 7.5946 19.1114 7.03601 18.5915C6.47718 18.0714 5.74246 17.7822 4.97923 17.782C4.74286 17.7828 4.50737 17.8111 4.27773 17.8661C3.59171 15.4055 3.89285 12.7742 5.11728 10.5322C6.34147 8.29015 8.39241 6.6145 10.8336 5.86129C11.091 6.68737 11.6903 7.36337 12.4794 7.71846C13.2683 8.07354 14.1717 8.07354 14.9608 7.71846C15.7497 7.36338 16.349 6.68737 16.6066 5.86129C19.0509 6.60604 21.1075 8.27667 22.3368 10.5165C23.5663 12.7566 23.8715 15.3886 23.187 17.8505C22.3618 17.6496 21.4903 17.8055 20.786 18.2797C20.0815 18.7539 19.6092 19.5028 19.4848 20.3428C19.3604 21.183 19.5953 22.0365 20.1322 22.6946C18.3526 24.2281 16.0814 25.0715 13.7323 25.0715C11.3832 25.0715 9.11205 24.2281 7.33243 22.6946L7.3326 22.6949ZM22.4853 22.8945V22.8943C21.9315 22.8943 21.4003 22.6742 21.0087 22.2826C20.6168 21.891 20.3968 21.3598 20.3968 20.8058C20.3968 20.2519 20.6168 19.7207 21.0087 19.3289C21.4003 18.9373 21.9315 18.7173 22.4853 18.7173C23.0393 18.7173 23.5706 18.9373 23.9622 19.3289C24.354 19.7207 24.574 20.252 24.574 20.8058C24.5699 21.357 24.3479 21.8843 23.9567 22.2727C23.5655 22.661 23.0367 22.8789 22.4852 22.8789L22.4853 22.8945Z" fill="black" stroke="black" stroke-width="0.5"/>
</svg>
