<svg width="18" height="16" viewBox="0 0 18 16" fill="none" xmlns="http://www.w3.org/2000/svg">
<path d="M12.75 2.75C12.75 2.30499 12.882 1.86998 13.1292 1.49997C13.3764 1.12996 13.7278 0.841569 14.139 0.671272C14.5501 0.500975 15.0025 0.456417 15.439 0.543234C15.8754 0.630051 16.2763 0.844343 16.591 1.15901C16.9057 1.47368 17.12 1.87459 17.2068 2.31105C17.2936 2.7475 17.249 3.1999 17.0787 3.61104C16.9084 4.02217 16.62 4.37357 16.25 4.62081C15.88 4.86804 15.445 5 15 5C14.4033 5 13.831 4.76295 13.409 4.34099C12.9871 3.91903 12.75 3.34674 12.75 2.75ZM1.5 3.5H10.5C10.6989 3.5 10.8897 3.42098 11.0303 3.28033C11.171 3.13968 11.25 2.94891 11.25 2.75C11.25 2.55109 11.171 2.36032 11.0303 2.21967C10.8897 2.07902 10.6989 2 10.5 2H1.5C1.30109 2 1.11032 2.07902 0.96967 2.21967C0.829018 2.36032 0.75 2.55109 0.75 2.75C0.75 2.94891 0.829018 3.13968 0.96967 3.28033C1.11032 3.42098 1.30109 3.5 1.5 3.5ZM6 5.75C5.53579 5.75131 5.08335 5.89616 4.7047 6.1647C4.32605 6.43325 4.03974 6.81234 3.885 7.25H1.5C1.30109 7.25 1.11032 7.32902 0.96967 7.46967C0.829018 7.61032 0.75 7.80109 0.75 8C0.75 8.19891 0.829018 8.38968 0.96967 8.53033C1.11032 8.67098 1.30109 8.75 1.5 8.75H3.885C4.02259 9.13916 4.26458 9.48297 4.58448 9.74381C4.90439 10.0046 5.28988 10.1725 5.69877 10.2289C6.10766 10.2853 6.5242 10.2281 6.90278 10.0637C7.28137 9.89923 7.60742 9.6338 7.84526 9.29645C8.0831 8.95909 8.22355 8.56281 8.25125 8.15097C8.27895 7.73914 8.19282 7.32762 8.0023 6.96146C7.81178 6.59529 7.52421 6.28859 7.17105 6.07492C6.81789 5.86125 6.41276 5.74884 6 5.75ZM16.5 7.25H10.5C10.3011 7.25 10.1103 7.32902 9.96967 7.46967C9.82902 7.61032 9.75 7.80109 9.75 8C9.75 8.19891 9.82902 8.38968 9.96967 8.53033C10.1103 8.67098 10.3011 8.75 10.5 8.75H16.5C16.6989 8.75 16.8897 8.67098 17.0303 8.53033C17.171 8.38968 17.25 8.19891 17.25 8C17.25 7.80109 17.171 7.61032 17.0303 7.46967C16.8897 7.32902 16.6989 7.25 16.5 7.25ZM7.5 12.5H1.5C1.30109 12.5 1.11032 12.579 0.96967 12.7197C0.829018 12.8603 0.75 13.0511 0.75 13.25C0.75 13.4489 0.829018 13.6397 0.96967 13.7803C1.11032 13.921 1.30109 14 1.5 14H7.5C7.69891 14 7.88968 13.921 8.03033 13.7803C8.17098 13.6397 8.25 13.4489 8.25 13.25C8.25 13.0511 8.17098 12.8603 8.03033 12.7197C7.88968 12.579 7.69891 12.5 7.5 12.5ZM16.5 12.5H14.115C13.9381 11.9996 13.59 11.5778 13.1321 11.3093C12.6743 11.0407 12.1363 10.9427 11.6132 11.0324C11.0901 11.1222 10.6155 11.394 10.2734 11.7998C9.93132 12.2056 9.74368 12.7192 9.74368 13.25C9.74368 13.7808 9.93132 14.2944 10.2734 14.7002C10.6155 15.106 11.0901 15.3778 11.6132 15.4676C12.1363 15.5574 12.6743 15.4593 13.1321 15.1907C13.59 14.9222 13.9381 14.5004 14.115 14H16.5C16.6989 14 16.8897 13.921 17.0303 13.7803C17.171 13.6397 17.25 13.4489 17.25 13.25C17.25 13.0511 17.171 12.8603 17.0303 12.7197C16.8897 12.579 16.6989 12.5 16.5 12.5Z" fill="black"/>
</svg>
