<svg width="68" height="68" viewBox="0 0 68 68" fill="none" xmlns="http://www.w3.org/2000/svg">
    <circle cx="34" cy="34" r="33" stroke="#409CDE" stroke-width="2"/>
    <path d="M32.4692 44.7061V30.1294H35.4209V44.7061H32.4692ZM32.5449 26.3301C32.1816 25.9567 32 25.4976 32 24.9526C32 24.4077 32.1816 23.9486 32.5449 23.5752C32.9183 23.1917 33.3774 23 33.9224 23C34.4673 23 34.9264 23.1917 35.2998 23.5752C35.6833 23.9486 35.875 24.4077 35.875 24.9526C35.875 25.4976 35.6833 25.9567 35.2998 26.3301C34.9264 26.6934 34.4673 26.875 33.9224 26.875C33.3774 26.875 32.9183 26.6934 32.5449 26.3301Z" fill="#409CDE"/>
</svg>