<svg width="298" height="298" viewBox="0 0 298 298" fill="none" xmlns="http://www.w3.org/2000/svg">
    <circle opacity="0.7" cx="149" cy="149" r="149" fill="#F4E2B3"/>
    <rect opacity="0.3" x="96.5137" y="69.5088" width="90" height="180" rx="12" transform="rotate(8.36885 96.5137 69.5088)" fill="#937206"/>
    <rect x="104.5" y="59.5" width="88" height="177" rx="10.5" fill="white" stroke="black" stroke-width="3"/>
    <rect x="128" y="218" width="44" height="3" rx="1.5" fill="#C4C4C4"/>
    <rect x="79.5908" y="46.4629" width="47" height="47" rx="23.5" fill="#E3AF4C" stroke="white" stroke-width="4"/>
    <path d="M103.091 67.9633L110.091 60.9629L112.091 62.9626L105.091 69.963L112.091 76.9633L110.091 78.963L103.091 71.9627L96.0905 78.963L94.0908 76.9633L101.091 69.963L94.0908 62.9626L96.0905 60.9629L103.091 67.9633Z" fill="white"/>
    <path d="M150.466 126.466H150C138.933 126.6 128.534 130.933 120.8 138.666L124.6 142.466C138.466 128.534 161.8 128.334 175.466 142L179.266 138.2C171.6 130.666 161.4 126.466 150.466 126.466L150.466 126.466Z" fill="#E3AF4C"/>
    <path d="M130.534 148.4L134.334 152.2C143.134 143.4 157.2 143.266 165.734 151.8L169.534 148C164.334 142.8 157.4 140 150 140.133C142.667 140.267 135.734 143.2 130.534 148.4Z" fill="#E3AF4C"/>
    <path d="M139.866 157.734L143.666 161.534C147.266 157.934 153.066 157.8 156.4 161.134L160.2 157.334C154.666 151.867 145.534 152.067 139.866 157.734V157.734Z" fill="#E3AF4C"/>
    <path d="M146.6 164.134L150 167.534L153.2 164.334C151.067 162.2 148.267 162.4 146.6 164.134Z" fill="#E3AF4C"/>
</svg>
