<svg fill="none" height="68" viewBox="0 0 69 68" width="69" xmlns="http://www.w3.org/2000/svg">
    <path
        d="M67.6807 34.4434C67.6807 52.3787 52.9201 66.9434 34.6807 66.9434C16.4412 66.9434 1.68066 52.3787 1.68066 34.4434C1.68066 16.508 16.4412 1.94336 34.6807 1.94336C52.9201 1.94336 67.6807 16.508 67.6807 34.4434Z"
        stroke="#409CDE" stroke-width="2" />
    <path
        d="M33.3145 45.9434V31.3667H36.2661V45.9434H33.3145ZM33.3901 27.5674C33.0269 27.194 32.8452 26.7349 32.8452 26.1899C32.8452 25.645 33.0269 25.1859 33.3901 24.8125C33.7635 24.429 34.2227 24.2373 34.7676 24.2373C35.3125 24.2373 35.7716 24.429 36.145 24.8125C36.5285 25.1859 36.7202 25.645 36.7202 26.1899C36.7202 26.7349 36.5285 27.194 36.145 27.5674C35.7716 27.9307 35.3125 28.1123 34.7676 28.1123C34.2227 28.1123 33.7635 27.9307 33.3901 27.5674Z"
        fill="#409CDE" />
</svg>
