<svg width="68" height="68" viewBox="0 0 68 68" fill="none" xmlns="http://www.w3.org/2000/svg">
<circle r="33" transform="matrix(1 0 0 -1 34 34)" stroke="#E3AF4C" stroke-width="2"/>
<path d="M32.4692 23.2939V37.8706H35.4209V23.2939H32.4692ZM32.5449 41.6699C32.1816 42.0433 32 42.5024 32 43.0474C32 43.5923 32.1816 44.0514 32.5449 44.4248C32.9183 44.8083 33.3774 45 33.9224 45C34.4673 45 34.9264 44.8083 35.2998 44.4248C35.6833 44.0514 35.875 43.5923 35.875 43.0474C35.875 42.5024 35.6833 42.0433 35.2998 41.6699C34.9264 41.3066 34.4673 41.125 33.9224 41.125C33.3774 41.125 32.9183 41.3066 32.5449 41.6699Z" fill="#E3AF4C"/>
</svg>
