<svg fill="none" height="68" viewBox="0 0 69 68" width="69" xmlns="http://www.w3.org/2000/svg">
    <path
        d="M67.8574 33.8291C67.8574 51.7644 53.0968 66.3291 34.8574 66.3291C16.618 66.3291 1.85742 51.7644 1.85742 33.8291C1.85742 15.8938 16.618 1.3291 34.8574 1.3291C53.0968 1.3291 67.8574 15.8938 67.8574 33.8291Z"
        stroke="#F66322" stroke-width="2" />
    <path
        d="M22.8047 27.4966C21.424 27.4966 20.3047 28.6159 20.3047 29.9966V49.9916C20.3047 51.3723 21.424 52.4916 22.8047 52.4916H47.9097C49.2904 52.4916 50.4097 51.3723 50.4097 49.9916V29.9966C50.4097 28.6159 49.2904 27.4966 47.9097 27.4966H22.8047Z"
        stroke="#F66322" stroke-width="2" />
    <mask fill="black" height="18" id="path-3-outside-1_7517_1011220" maskUnits="userSpaceOnUse"
        width="22" x="24.4146" y="11.1665">
        <rect fill="white" height="18" width="22" x="24.4146" y="11.1665" />
        <path clip-rule="evenodd"
            d="M26.4146 28.4965V22.109C26.4146 17.1702 30.4182 13.1665 35.3571 13.1665C40.2959 13.1665 44.2996 17.1702 44.2996 22.109V28.4965"
            fill-rule="evenodd" />
    </mask>
    <path
        d="M28.4146 28.4965V22.109H24.4146V28.4965H28.4146ZM28.4146 22.109C28.4146 18.2748 31.5228 15.1665 35.3571 15.1665V11.1665C29.3137 11.1665 24.4146 16.0656 24.4146 22.109H28.4146ZM35.3571 15.1665C39.1913 15.1665 42.2996 18.2748 42.2996 22.109H46.2996C46.2996 16.0656 41.4004 11.1665 35.3571 11.1665V15.1665ZM42.2996 22.109V28.4965H46.2996V22.109H42.2996Z"
        fill="#F66322" mask="url(#path-3-outside-1_7517_1011220)" />
    <path d="M35.3574 37.439V42.549" stroke="#F66322" stroke-linecap="round" stroke-width="2" />
</svg>
