<svg width="69" height="67" viewBox="0 0 69 67" fill="none" xmlns="http://www.w3.org/2000/svg">
<path d="M67.9297 33.5C67.9297 51.4353 53.1691 66 34.9297 66C16.6903 66 1.92969 51.4353 1.92969 33.5C1.92969 15.5647 16.6903 1 34.9297 1C53.1691 1 67.9297 15.5647 67.9297 33.5Z" stroke="#409CDE" stroke-width="2"/>
<path d="M33.1445 33.5051H53.3945" stroke="#409CDE" stroke-width="2" stroke-linecap="round" stroke-linejoin="round"/>
<path d="M48.5742 38.3266L53.3956 33.5051L48.5742 28.6837" stroke="#409CDE" stroke-width="2" stroke-linecap="round" stroke-linejoin="round"/>
<path d="M43.7525 39.2857V45.0714C43.7984 46.0874 43.0145 46.9494 41.9988 47H26.2192C25.204 46.9487 24.421 46.0869 24.4668 45.0714V21.9286C24.4202 20.9128 25.2037 20.0506 26.2192 20H41.9988C43.0145 20.0506 43.7984 20.9126 43.7525 21.9286V27.7143" stroke="#409CDE" stroke-width="2" stroke-linecap="round" stroke-linejoin="round"/>
</svg>
