<svg width="79" height="79" viewBox="0 0 79 79" fill="none" xmlns="http://www.w3.org/2000/svg">
<path d="M36.6519 4.5C37.8066 2.5 40.6934 2.5 41.8481 4.5L70.6434 54.375C71.7981 56.375 70.3547 58.875 68.0453 58.875H10.4547C8.14526 58.875 6.70188 56.375 7.85658 54.375L36.6519 4.5Z" fill="#E3AF4C"/>
<path d="M39.5138 50.0642C38.4435 50.2712 37.4508 49.3392 37.45 48.2209C37.45 47.1929 38.2413 46.3872 39.2509 46.3872C39.3356 46.3872 39.4291 46.3944 39.5466 46.416C40.4043 46.5543 41.051 47.3304 41.051 48.2209C41.051 49.1217 40.3971 49.9123 39.5138 50.0642Z" fill="white"/>
<path d="M40.4939 41.1252C40.4901 41.1631 40.4879 41.2015 40.4879 41.2394C40.4879 41.8585 40.0385 42.4018 39.4315 42.5062C38.696 42.6512 38.0137 42.0074 38.0132 41.2394C38.0132 41.1988 38.011 41.1587 38.0066 41.1186L36.5004 25.9767L36.4268 25.2758C36.4268 23.6943 37.6935 22.4072 39.2508 22.4072C39.309 22.4072 39.3733 22.4116 39.4315 22.4226C39.4815 22.4314 39.532 22.4374 39.5831 22.4396C39.7358 22.4462 39.8853 22.472 40.0446 22.5143C40.879 22.7714 41.564 23.4185 41.8886 24.2733C42.0062 24.5605 42.0682 24.8808 42.0737 25.2258L40.4939 41.1252Z" fill="white"/>
</svg>
