<svg width="20" height="20" viewBox="0 0 20 20" fill="none" xmlns="http://www.w3.org/2000/svg">
<path d="M3.33334 17.8333V2.16666C3.33334 1.89052 3.5572 1.66666 3.83334 1.66666H13.5429C13.6755 1.66666 13.8027 1.71934 13.8964 1.81311L16.5203 4.43688C16.614 4.53066 16.6667 4.65783 16.6667 4.79044V17.8333C16.6667 18.1095 16.4428 18.3333 16.1667 18.3333H3.83334C3.5572 18.3333 3.33334 18.1095 3.33334 17.8333Z" stroke="#C83732" stroke-width="1.1" stroke-linecap="round" stroke-linejoin="round"/>
<path d="M13.3333 4.5V1.96129C13.3333 1.79857 13.4653 1.66666 13.628 1.66666C13.7061 1.66666 13.781 1.69771 13.8363 1.75296L16.5803 4.49704C16.6357 4.55229 16.6667 4.62723 16.6667 4.70537C16.6667 4.86809 16.5348 5 16.372 5H13.8333C13.5572 5 13.3333 4.77614 13.3333 4.5Z" fill="#C83732" stroke="#C83732" stroke-width="1.1" stroke-linecap="round" stroke-linejoin="round"/>
<path d="M6.66667 8.33334H13.3333" stroke="#C83732" stroke-width="1.1" stroke-linecap="round" stroke-linejoin="round"/>
<path d="M6.66667 15H13.3333" stroke="#C83732" stroke-width="1.1" stroke-linecap="round" stroke-linejoin="round"/>
<path d="M6.66667 11.6667H10" stroke="#C83732" stroke-width="1.1" stroke-linecap="round" stroke-linejoin="round"/>
</svg>
