<svg width="20" height="21" viewBox="0 0 20 21" fill="none" xmlns="http://www.w3.org/2000/svg">
<path d="M1.16419 10.4542L3.12807 11.8582C3.20391 11.9123 3.29808 11.9339 3.38991 11.9184C3.48173 11.9029 3.56368 11.8516 3.61759 11.7756L5.02158 9.81177V9.81193C5.13456 9.65335 5.09758 9.43335 4.93916 9.32053C4.78074 9.20755 4.56074 9.24453 4.44776 9.40295L3.53861 10.6753C3.19576 9.17498 3.33334 7.60455 3.93176 6.18655C4.53019 4.76859 5.55936 3.57459 6.87342 2.77339C8.18765 1.97235 9.72045 1.60458 11.2551 1.72243C12.7896 1.84011 14.2485 2.43727 15.425 3.4295C16.6015 4.42168 17.4365 5.75877 17.8116 7.25146C18.1868 8.74415 18.083 10.3171 17.5153 11.7475C17.4808 11.8341 17.4821 11.9308 17.5191 12.0164C17.5559 12.1021 17.6253 12.1695 17.712 12.2038C17.7532 12.2201 17.7974 12.2285 17.8417 12.2284C17.9856 12.2285 18.115 12.1409 18.1683 12.0073C18.7892 10.442 18.9033 8.72119 18.4942 7.08766C18.0851 5.45409 17.1734 3.99024 15.8878 2.90254C14.6023 1.81492 13.0078 1.15821 11.3293 1.02515C9.65076 0.892092 7.97234 1.28934 6.5316 2.16103C5.09077 3.03271 3.95991 4.33458 3.29863 5.88335C2.63722 7.43196 2.47877 9.14921 2.84546 10.7925L1.57135 9.88338V9.88354C1.49613 9.8229 1.39914 9.79579 1.3034 9.80895C1.20766 9.82211 1.12147 9.87414 1.06537 9.9528C1.00912 10.0315 0.987966 10.1299 1.00661 10.2247C1.02542 10.3195 1.08245 10.4024 1.16425 10.4539L1.16419 10.4542Z" fill="#C83732" stroke="#C83732" stroke-width="0.3"/>
<path d="M18.9757 14.4997C18.2737 13.6695 17.1225 14.0504 16.5011 14.254C16.108 14.3839 15.1656 14.7805 14.2372 15.1736C14.2931 14.8769 14.255 14.57 14.1283 14.2961C13.6264 13.1501 12.3874 13.3694 11.4816 13.531L11.4818 13.5309C11.2023 13.5916 10.918 13.6274 10.6323 13.638C10.1483 13.6325 9.6704 13.528 9.22834 13.3309C8.65423 13.0838 8.03322 12.9641 7.40832 12.9799C6.21195 13.002 5.03235 13.2659 3.94048 13.7556L3.74399 13.8363C2.11354 14.4856 1.41154 14.633 1.41154 14.633C1.27819 14.6597 1.17227 14.7608 1.13952 14.8929C1.1273 14.9438 0.851667 16.1214 1.63264 17.7764C2.30299 19.1804 3.08759 19.7191 3.62628 19.914V19.9139C3.74004 19.9546 3.86665 19.9341 3.96161 19.8595C3.96161 19.8595 4.40207 19.5085 4.73915 19.312C4.96197 19.177 5.50429 19.0909 6.83103 19.4595V19.4593C8.0586 19.786 9.32032 19.9668 10.5902 19.9981C11.0847 20.0142 11.5783 19.9467 12.0503 19.7981C13.435 19.2716 16.8046 17.5166 18.1296 16.7971C18.8316 16.4144 19.2142 16.002 19.302 15.5352C19.3598 15.158 19.2392 14.7754 18.9756 14.4998L18.9757 14.4997ZM18.6106 15.407C18.5667 15.6439 18.2754 15.9193 17.7928 16.1826C16.6801 16.7917 13.1804 18.6256 11.8029 19.1434C10.836 19.5049 8.40168 19.168 7.0189 18.7924C6.46641 18.6189 5.8935 18.5185 5.31485 18.494C4.98657 18.4782 4.6605 18.5534 4.37232 18.7117C4.1354 18.8555 3.86508 19.0522 3.69491 19.1785C3.16841 18.9153 2.66823 18.3185 2.26632 17.4727C1.9194 16.788 1.75723 16.0245 1.79606 15.2578C2.54632 15.0388 3.2839 14.7787 4.00564 14.4786L4.20746 14.3961C5.21878 13.9392 6.31298 13.6943 7.42254 13.6766C7.95875 13.6626 8.49122 13.7689 8.98106 13.9871C9.49801 14.2139 10.0557 14.3333 10.6201 14.3381C10.9512 14.328 11.2806 14.2886 11.6048 14.2206C12.5717 14.0451 13.2247 13.9802 13.4843 14.5716C13.574 14.7556 13.5834 14.9684 13.5106 15.1595C13.4124 15.4018 13.1596 15.6229 12.763 15.8018C12.412 15.9493 12.1488 16.0634 12.033 16.109C11.2888 16.4003 10.6483 16.2986 10.0289 16.2002L9.68835 16.1475L9.68819 16.1477C9.59512 16.135 9.50094 16.1599 9.4262 16.2169C9.35145 16.2738 9.30241 16.3581 9.28988 16.4512C9.26371 16.645 9.39956 16.8235 9.5934 16.8497C9.70042 16.8638 9.80932 16.8813 9.91807 16.8989C10.5972 17.0059 11.366 17.127 12.289 16.7672C12.3961 16.7251 12.6103 16.6356 12.8945 16.5128C12.9472 16.4918 12.9981 16.4706 13.0471 16.4479L13.5 16.2548C14.6424 15.7634 16.208 15.0895 16.7221 14.921C17.5382 14.6525 18.1103 14.57 18.4386 14.9527C18.6511 15.2017 18.6211 15.356 18.6106 15.407L18.6106 15.407Z" fill="#C83732" stroke="#C83732" stroke-width="0.3"/>
<path d="M11 11C12.6542 11 14 9.6542 14 8C14 6.3458 12.6542 5 11 5C9.3458 5 8 6.3458 8 8C8 9.6542 9.3458 11 11 11ZM11 5.75C12.2408 5.75 13.25 6.75916 13.25 8C13.25 9.24084 12.2408 10.25 11 10.25C9.75916 10.25 8.75 9.24084 8.75 8C8.75 6.75916 9.75916 5.75 11 5.75Z" fill="#C83732"/>
<path d="M10.9996 9.49833C11.8268 9.49833 12.4996 8.82552 12.4996 7.99833C12.4996 7.17114 11.8268 6.49833 10.9996 6.49833C10.1724 6.49833 9.49958 7.17114 9.49958 7.99833C9.49958 8.82552 10.1724 9.49833 10.9996 9.49833ZM10.9996 7.24833C11.4133 7.24833 11.7496 7.58466 11.7496 7.99833C11.7496 8.412 11.4133 8.74833 10.9996 8.74833C10.5859 8.74833 10.2496 8.412 10.2496 7.99833C10.2496 7.58466 10.5859 7.24833 10.9996 7.24833Z" fill="#C83732"/>
</svg>
