<svg width="24" height="24" viewBox="0 0 24 24" fill="none" xmlns="http://www.w3.org/2000/svg">
<path d="M11.88 15.24C13.4706 15.24 14.76 13.9507 14.76 12.36C14.76 10.7694 13.4706 9.48004 11.88 9.48004C10.2894 9.48004 8.99998 10.7694 8.99998 12.36C8.99998 13.9507 10.2894 15.24 11.88 15.24Z" stroke="#DA2228" stroke-width="1.7" stroke-linecap="round" stroke-linejoin="round"/>
<path d="M19.1975 10.8196L18.1437 8.27502L19.56 6.60001L17.64 4.68001L15.9741 6.10364L13.3755 5.03496L12.7779 2.76001H10.9017L10.2951 5.06509L7.75622 6.13533L6.11998 4.68001L4.19998 6.60001L5.59522 8.31731L4.55758 10.8685L2.27998 11.4V13.32L4.58505 13.9493L5.6551 16.4877L4.19998 18.12L6.11998 20.04L7.8395 18.6387L10.3411 19.6678L10.92 21.96H12.84L13.4203 19.6687L15.9649 18.6149C16.389 18.9181 17.64 20.04 17.64 20.04L19.56 18.12L18.1352 16.4394L19.1893 13.8941L21.4799 13.2981L21.48 11.4L19.1975 10.8196Z" stroke="#DA2228" stroke-width="1.7" stroke-linecap="round" stroke-linejoin="round"/>
</svg>
